<?xml version="1.0" standalone="no"?>
<!DOCTYPE svg PUBLIC "-//W3C//DTD SVG 1.1//EN" "http://www.w3.org/Graphics/SVG/1.1/DTD/svg11.dtd" >
<svg xmlns="http://www.w3.org/2000/svg" xmlns:xlink="http://www.w3.org/1999/xlink" version="1.1">
<metadata>
Created by FontForge 20201107 at Sat Nov 16 03:14:00 2024
 By 
Copyright 2016 The Inter Project Authors
</metadata>
<defs>
<font id="Inter-BlackItalic" horiz-adv-x="0" >
  <font-face 
    font-family="Inter Black"
    font-weight="900"
    font-style="italic"
    font-stretch="normal"
    units-per-em="2048"
    panose-1="2 0 10 3 0 0 0 2 0 4"
    ascent="1638"
    descent="-410"
    x-height="1118"
    cap-height="1490"
    bbox="-1710 -706 5321 2306"
    underline-thickness="232"
    underline-position="-418"
    slope="-9.39999"
    unicode-range="U+0020-1F852"
  />
<missing-glyph horiz-adv-x="1344" 
d="M855 -416h-688l376 2272h688zM473 320l-42 -256h320l42 256h-320zM537 704l-43 -256h320l43 256h-192l-22 -128h64l11 64h64l-21 -128h-192l32 192h-64zM388 -192l-10 -64h320l10 64h-215l236 127l11 65h-320l-11 -64h216zM653 1408l-37 -224h320l11 64h-128l26 160h-192
zM674 1536l-10 -64h320l10 64h-144l16 96h144l11 64h-320l-11 -64h112l-16 -96h-112zM579 960l-11 -64h192l27 160h128l10 64h-320l-10 -64h128l-16 -96h-128zM558 832l-11 -64h320l37 224h-64l-26 -160h-256zM697 128h-192l21 128h192zM755 1248h-64l15 96h64z" />
    <glyph glyph-name=".notdef" horiz-adv-x="1344" 
d="M855 -416h-688l376 2272h688zM473 320l-42 -256h320l42 256h-320zM537 704l-43 -256h320l43 256h-192l-22 -128h64l11 64h64l-21 -128h-192l32 192h-64zM388 -192l-10 -64h320l10 64h-215l236 127l11 65h-320l-11 -64h216zM653 1408l-37 -224h320l11 64h-128l26 160h-192
zM674 1536l-10 -64h320l10 64h-144l16 96h144l11 64h-320l-11 -64h112l-16 -96h-112zM579 960l-11 -64h192l27 160h128l10 64h-320l-10 -64h128l-16 -96h-128zM558 832l-11 -64h320l37 224h-64l-26 -160h-256zM697 128h-192l21 128h192zM755 1248h-64l15 96h64z" />
    <glyph glyph-name=".null" horiz-adv-x="1200" 
 />
    <glyph glyph-name="nonmarkingreturn" horiz-adv-x="682" 
 />
    <glyph glyph-name="space" unicode=" " horiz-adv-x="408" 
 />
    <glyph glyph-name="exclam" unicode="!" horiz-adv-x="778" 
d="M192 466l140 1024h424l-200 -1024h-364zM306 -24q-95 0 -150 66t-39 163q13 77 74 127t141 50q95 0 150 -66t39 -163q-13 -77 -74 -127t-141 -50z" />
    <glyph glyph-name="quotedbl" unicode="&#x22;" horiz-adv-x="1279" 
d="M277 824l73 666h370l-147 -666h-296zM794 824l73 666h370l-147 -666h-296z" />
    <glyph glyph-name="numbersign" unicode="#" horiz-adv-x="1356" 
d="M690 0l62 340h-234l-62 -340h-290l62 340h-194l56 292h191l40 226h-191l54 292h190l62 340h292l-62 -340h232l62 340h290l-62 -340h194l-54 -292h-193l-40 -226h193l-54 -292h-192l-62 -340h-290zM571 632h234l40 226h-232z" />
    <glyph glyph-name="dollar" unicode="$" horiz-adv-x="1364" 
d="M516 -186l28 171q-169 12 -289.5 73.5t-175.5 177t-27 288.5h384q-21 -182 163 -206l45 273l-115 25q-190 42 -286.5 143.5t-67.5 276.5q22 137 105.5 241.5t215.5 165t300 66.5l28 167h120l-28 -170q155 -14 262.5 -77.5t156.5 -167t28 -237.5h-388q12 126 -114 149
l-43 -260l77 -17q239 -53 329 -169.5t62 -286.5q-36 -215 -195 -332.5t-427 -125.5l-28 -168h-120zM720 319q67 11 107 43t47 78q7 40 -19 69t-95 52zM703 943l38 231q-65 -10 -99 -39.5t-41 -70.5q-14 -81 102 -121z" />
    <glyph glyph-name="percent" unicode="%" horiz-adv-x="2138" 
d="M530 734q-114 0 -185 48t-98 128t-12 174l13 78q16 96 71 176t142 128t198 48q116 0 186.5 -48t97.5 -128t11 -176l-13 -78q-15 -96 -69 -175.5t-141 -127t-201 -47.5zM1541 -24q-114 0 -185 48t-98 128t-12 174l13 78q16 96 71 176t142 128t198 48q116 0 186.5 -48
t97.5 -128t11 -176l-13 -78q-15 -96 -69 -175.5t-141 -127t-201 -47.5zM339 0l1271 1490h240l-1271 -1490h-240zM1578 204q60 0 85.5 39t32.5 83l13 78q8 44 -3.5 85t-73.5 41q-58 0 -84 -42.5t-33 -83.5l-13 -78q-7 -44 6.5 -83t69.5 -39zM567 962q60 0 85.5 39t32.5 83
l13 78q8 44 -3.5 85t-73.5 41q-58 0 -84 -42.5t-33 -83.5l-13 -78q-7 -44 6.5 -83t69.5 -39z" />
    <glyph glyph-name="ampersand" unicode="&#x26;" horiz-adv-x="1419" 
d="M503 -24q-166 0 -276.5 60.5t-159.5 162t-29 223.5q20 116 98.5 195.5t204.5 158.5l19 10q-38 68 -61 153.5t-6 186.5q18 107 83.5 194.5t167.5 139.5t227 52q131 0 217.5 -55t123.5 -147t18 -202q-16 -99 -75.5 -183t-165.5 -151l-96 -60l148 -195q46 57 78 122.5
t44 134.5h318q-24 -152 -79.5 -289.5t-150.5 -241.5l187 -245h-393l-58 77q-98 -56 -199 -78.5t-185 -22.5zM697 327l-168 221q-111 -74 -111 -156q0 -102 120 -102q76 0 159 37zM634 939l82 46q65 36 93.5 66.5t28.5 63.5q0 36 -29 58.5t-78 22.5q-55 0 -96.5 -32
t-41.5 -96q0 -27 9.5 -58t31.5 -71z" />
    <glyph glyph-name="quotesingle" unicode="'" horiz-adv-x="762" 
d="M277 824l73 666h370l-147 -666h-296z" />
    <glyph glyph-name="parenleft" unicode="(" horiz-adv-x="794" 
d="M136 607q28 168 90.5 348t148 344t180.5 282h366q-93 -153 -168.5 -320t-128 -333.5t-78.5 -320.5q-21 -130 -22 -259t21 -280t68 -347h-366q-93 205 -121 431t10 455z" />
    <glyph glyph-name="parenright" unicode=")" horiz-adv-x="778" 
d="M-99 -294q93 170 162.5 315.5t116.5 284t71 286.5q28 169 29 341.5t-18 334t-53 298.5h382q49 -111 73.5 -270.5t22.5 -341.5t-32 -362q-83 -502 -372 -886h-382z" />
    <glyph glyph-name="asterisk" unicode="*" horiz-adv-x="1246" 
d="M520 652l68 256l-238 -148l-82 202l250 108l-216 108l152 204l186 -148l20 256h234l-68 -256l238 148l82 -204l-250 -108l216 -108l-152 -202l-186 148l-20 -256h-234z" />
    <glyph glyph-name="plus" unicode="+" horiz-adv-x="1420" 
d="M466 66l62 376h-375l54 326h375l62 376h326l-62 -376h375l-54 -326h-375l-62 -376h-326z" />
    <glyph glyph-name="comma" unicode="," horiz-adv-x="764" 
d="M-51 -426l198 666h380l-318 -666h-260z" />
    <glyph glyph-name="hyphen" unicode="-" horiz-adv-x="972" 
d="M866 744l-50 -302h-698l50 302h698z" />
    <glyph glyph-name="period" unicode="." horiz-adv-x="764" 
d="M306 -24q-95 0 -150 66t-39 163q13 77 74 127t141 50q95 0 150 -66t39 -163q-13 -77 -74 -127t-141 -50z" />
    <glyph glyph-name="slash" unicode="/" horiz-adv-x="844" 
d="M998 1560l-774 -1784h-340l774 1784h340z" />
    <glyph glyph-name="zero" unicode="0" horiz-adv-x="1456" 
d="M633 -20q-310 0 -450.5 201.5t-81.5 562.5q40 241 146.5 412.5t269 262.5t369.5 91q311 0 451 -202.5t80 -563.5q-39 -241 -145.5 -411.5t-268.5 -261.5t-370 -91zM687 308q116 0 195.5 112t114.5 324q35 213 -7 326.5t-158 113.5q-115 0 -195.5 -114t-115.5 -326
t7.5 -324t158.5 -112z" />
    <glyph glyph-name="one" unicode="1" horiz-adv-x="926" 
d="M984 1490l-247 -1490h-404l189 1142h-10l-362 -220l57 344l371 224h406z" />
    <glyph glyph-name="two" unicode="2" horiz-adv-x="1325" 
d="M6 0l48 290l632 460q94 68 155.5 131.5t74.5 142.5q14 85 -31.5 129.5t-128.5 44.5q-85 0 -148.5 -50t-79.5 -144h-384q39 235 205.5 370.5t426.5 135.5q179 0 306.5 -57t188 -160.5t37.5 -242.5q-11 -64 -38 -127t-82.5 -132.5t-150 -153t-239.5 -189.5l-159 -116
l-2 -10h566l-53 -322h-1144z" />
    <glyph glyph-name="three" unicode="3" horiz-adv-x="1371" 
d="M593 -20q-176 0 -304.5 60.5t-190.5 167.5t-39 246h406q-10 -65 40 -106.5t138 -41.5q84 0 143 43.5t70 112.5q12 68 -42 111t-152 43h-152l46 280h152q90 0 154.5 43.5t75.5 110.5q11 65 -30.5 106.5t-117.5 41.5q-84 0 -145 -43t-72 -111h-388q23 137 112.5 242
t228.5 164.5t308 59.5q165 0 284.5 -56t177 -154t36.5 -224q-20 -124 -120 -204.5t-236 -95.5l-1 -10q176 -20 251.5 -110.5t52.5 -227.5q-22 -131 -115.5 -232.5t-240.5 -158.5t-330 -57z" />
    <glyph glyph-name="four" unicode="4" horiz-adv-x="1438" 
d="M30 232l52 314l757 944h512l-156 -944h171l-52 -314h-172l-38 -232h-388l38 232h-724zM816 546l87 524h-12l-409 -512l-2 -12h336z" />
    <glyph glyph-name="five" unicode="5" horiz-adv-x="1325" 
d="M577 -20q-172 0 -299 60.5t-190 167.5t-41 246h394q-13 -77 34 -122.5t128 -45.5q92 0 164 58.5t88 155.5q16 98 -28 157t-136 59q-65 0 -128 -31t-98 -85l-344 70l194 820h1002l-54 -324h-670l-82 -328h8q47 68 132 112t198 44q133 0 231 -61.5t144.5 -170t22.5 -250.5
q-26 -156 -116 -276t-231.5 -188t-322.5 -68z" />
    <glyph glyph-name="six" unicode="6" horiz-adv-x="1382" 
d="M644 -20q-130 0 -243.5 41t-193.5 130t-111.5 231.5t2.5 345.5q40 241 143.5 416.5t259 270.5t350.5 95q165 0 285.5 -63.5t183.5 -169t54 -233.5h-398q-3 64 -44.5 93t-105.5 29q-127 0 -208.5 -110t-111.5 -290h8q59 102 162 160t230 58q136 0 233.5 -61t142.5 -167.5
t22 -243.5q-26 -160 -116 -280t-229 -186t-315 -66zM658 286q91 0 163.5 60t87.5 152q16 92 -28.5 152t-135.5 60q-94 0 -164 -59.5t-86 -152.5q-15 -92 30 -152t133 -60z" />
    <glyph glyph-name="seven" unicode="7" horiz-adv-x="1218" 
d="M57 0l776 1158l1 8h-678l54 324h1106l-54 -324l-781 -1166h-424z" />
    <glyph glyph-name="eight" unicode="8" horiz-adv-x="1390" 
d="M622 -20q-180 0 -318 56t-209 152t-51 216q15 92 73.5 168.5t145.5 127.5t187 66l1 10q-124 23 -190.5 114.5t-46.5 215.5q20 117 103 208t214.5 143.5t295.5 52.5q165 0 291.5 -52.5t192 -144t45.5 -207.5q-14 -84 -63.5 -153t-123.5 -115.5t-160 -61.5l-1 -10
q93 -15 163 -66t104 -127.5t19 -168.5q-20 -120 -111 -216t-235.5 -152t-325.5 -56zM644 258q86 0 150.5 51.5t77.5 130.5q13 77 -35 126.5t-134 49.5q-85 0 -148.5 -49.5t-76.5 -126.5q-13 -78 34 -130t132 -52zM749 896q77 0 134.5 46t68.5 116q12 70 -30 115t-119 45
q-75 0 -132 -44.5t-69 -115.5q-11 -69 30.5 -115.5t116.5 -46.5z" />
    <glyph glyph-name="nine" unicode="9" horiz-adv-x="1381" 
d="M615 -24q-164 0 -290.5 64.5t-195 171.5t-60.5 234h398q3 -64 48 -95t109 -31q128 0 205.5 112t107.5 292h-8q-60 -102 -174.5 -160t-241.5 -58q-135 0 -227 61t-130.5 168t-16.5 243q27 161 118.5 281.5t233.5 187.5t317 67q131 0 243 -41.5t190 -131t108 -233
t-4 -346.5q-40 -241 -138 -417.5t-247.5 -272.5t-344.5 -96zM706 780q89 0 157.5 60.5t83.5 151.5q15 92 -33.5 152t-137.5 60t-158.5 -60t-84.5 -152t34 -152t139 -60z" />
    <glyph glyph-name="colon" unicode=":" horiz-adv-x="765" 
d="M307 -24q-95 0 -150 66t-39 163q13 77 74 127t141 50q95 0 150 -66t39 -163q-13 -77 -74 -127t-141 -50zM420 661q-95 0 -150 66t-39 163q13 77 74 127t141 50q95 0 150 -66t39 -163q-13 -77 -74 -127t-141 -50z" />
    <glyph glyph-name="semicolon" unicode=";" horiz-adv-x="774" 
d="M-51 -426l198 666h380l-318 -666h-260zM429 661q-95 0 -150 66t-39 163q13 77 74 127t141 50q95 0 150 -66t39 -163q-13 -77 -74 -127t-141 -50z" />
    <glyph glyph-name="less" unicode="&#x3c;" horiz-adv-x="1420" 
d="M139 430l58 350l1152 434l-60 -368l-717 -234l-2 -14l639 -234l-60 -366z" />
    <glyph glyph-name="equal" unicode="=" horiz-adv-x="1420" 
d="M110 184l52 326h1078l-54 -326h-1076zM194 702l56 324h1076l-54 -324h-1078z" />
    <glyph glyph-name="greater" unicode="&#x3e;" horiz-adv-x="1420" 
d="M1239 430l-1154 -432l60 366l717 234l2 14l-639 234l60 368l1012 -434z" />
    <glyph glyph-name="question" unicode="?" horiz-adv-x="1229" 
d="M380 466l6 34q21 120 51.5 191.5t74 114.5t103.5 78q77 46 130.5 88.5t63.5 103.5q9 55 -23.5 88.5t-86.5 33.5q-59 0 -108.5 -39.5t-60.5 -102.5h-372q27 160 105.5 260t195.5 147t258 47q156 0 279.5 -45.5t188.5 -136.5t42 -228q-22 -133 -102 -217.5t-198 -146.5
q-86 -46 -135 -97.5t-64 -138.5l-6 -34h-342zM470 -24q-97 0 -146.5 53.5t-34.5 145.5t82.5 145.5t164.5 53.5q98 0 147 -53.5t34 -145.5t-82 -145.5t-165 -53.5z" />
    <glyph glyph-name="at" unicode="@" horiz-adv-x="2168" 
d="M935 -450q-314 0 -527 114t-304.5 329.5t-40.5 520.5q36 218 128 401.5t238 319t345.5 210.5t449.5 75q226 0 405 -62.5t297.5 -181t167 -286.5t13.5 -379q-46 -281 -199.5 -431t-370.5 -150q-233 0 -235 167h-8q-42 -84 -134 -129.5t-214 -45.5q-210 0 -312.5 134
t-64.5 368q27 159 102.5 277t188.5 183t250 65q100 0 170 -35.5t90 -104.5h11l19 118h248l-113 -688q-7 -39 2.5 -52.5t40.5 -13.5q159 0 208 299q55 331 -84.5 489.5t-465.5 158.5q-364 0 -577.5 -183t-267.5 -507q-55 -331 95.5 -504.5t502.5 -173.5q125 0 236.5 21
t194.5 56l66 -265q-88 -43 -224.5 -78.5t-326.5 -35.5zM1021 286q105 0 176.5 63t90.5 176q38 232 -173 232q-106 0 -176.5 -59t-89.5 -172q-19 -114 23.5 -177t148.5 -63z" />
    <glyph glyph-name="A" unicode="A" horiz-adv-x="1628" 
d="M-47 0l730 1490h552l254 -1490h-442l-38 286h-459l-129 -286h-468zM686 588h283q-18 137 -30.5 281t-22.5 290q-55 -146 -111.5 -290t-118.5 -281z" />
    <glyph glyph-name="B" unicode="B" horiz-adv-x="1368" 
d="M3 0l247 1490h636q255 0 374.5 -109.5t89.5 -288.5q-19 -114 -116.5 -196t-228.5 -107v-13q95 -3 167 -51.5t106 -132.5t15 -196q-19 -116 -94.5 -205.5t-198 -140t-284.5 -50.5h-713zM461 322h179q101 0 166 47t78 131q23 138 -165 138h-206zM554 888h156
q80 0 142.5 44.5t75.5 123.5q10 59 -29.5 87.5t-114.5 28.5h-183z" />
    <glyph glyph-name="C" unicode="C" horiz-adv-x="1532" 
d="M714 -20q-184 0 -324.5 71t-219.5 208t-79 335q0 187 58.5 352.5t168.5 292.5t264 199t344 72q187 0 327 -65t213.5 -191t62.5 -308h-410q4 95 -45 153.5t-153 58.5q-107 0 -186 -51t-130.5 -134.5t-77 -182.5t-25.5 -195q0 -263 239 -263q119 0 201 58.5t113 153.5h410
q-23 -95 -83.5 -194t-155.5 -183t-223.5 -135.5t-288.5 -51.5z" />
    <glyph glyph-name="D" unicode="D" horiz-adv-x="1479" 
d="M625 0h-622l247 1490h552q230 0 386 -89.5t223.5 -256.5t28.5 -400q-58 -349 -266.5 -546.5t-548.5 -197.5zM464 344h154q111 0 195 35t140 122.5t81 242.5q26 156 1 243.5t-98 123t-190 35.5h-150z" />
    <glyph glyph-name="E" unicode="E" horiz-adv-x="1274" 
d="M3 0l247 1490h1074l-54 -326h-670l-42 -252h614l-53 -318h-614l-44 -268h666l-54 -326h-1070z" />
    <glyph glyph-name="F" unicode="F" horiz-adv-x="1196" 
d="M3 0l247 1490h1048l-54 -326h-644l-56 -336h580l-53 -318h-580l-84 -510h-404z" />
    <glyph glyph-name="G" unicode="G" horiz-adv-x="1546" 
d="M726 -20q-195 0 -337.5 74.5t-220 212.5t-77.5 330q0 187 61 352.5t173.5 291.5t267.5 197.5t343 71.5q169 0 306.5 -62t215.5 -176.5t68 -273.5h-408q-6 77 -55 118.5t-136 41.5q-106 0 -185.5 -49t-132.5 -130.5t-79.5 -180t-26.5 -198.5q0 -129 60 -198.5t184 -69.5
q138 0 223 59.5t108 152.5h-269l47 288h660l-36 -219q-33 -204 -140 -345t-265.5 -214.5t-348.5 -73.5z" />
    <glyph glyph-name="H" unicode="H" horiz-adv-x="1536" 
d="M3 0l247 1490h404l-94 -566h536l94 566h404l-247 -1490h-404l99 598h-536l-99 -598h-404z" />
    <glyph glyph-name="I" unicode="I" horiz-adv-x="596" 
d="M654 1490l-247 -1490h-404l247 1490h404z" />
    <glyph glyph-name="J" unicode="J" horiz-adv-x="1221" 
d="M507 -20q-233 0 -362 99t-129 285q0 24 4.5 61t20.5 134h404q-15 -88 -18 -112.5t-3 -35.5q0 -117 119 -117q139 0 167 166l171 1030h398l-170 -1022q-39 -235 -191 -361.5t-411 -126.5z" />
    <glyph glyph-name="K" unicode="K" horiz-adv-x="1555" 
d="M3 0l247 1490h416l-53 -320l-58 -314q81 106 217 251l360 383h503l-627 -642l408 -848h-452l-260 599l3 3l-224 -216l-64 -386h-416z" />
    <glyph glyph-name="L" unicode="L" horiz-adv-x="1158" 
d="M3 0l247 1490h404l-193 -1164h602l-54 -326h-1006z" />
    <glyph glyph-name="M" unicode="M" horiz-adv-x="1958" 
d="M3 0l247 1490h638l57 -466q6 -55 11 -143t8 -190t5 -200q33 98 69.5 200t70.5 190t59 143l209 466h639l-247 -1490h-408l95 576q10 57 29 155.5t42 214t42 224.5q-43 -113 -89 -227t-87.5 -210t-69.5 -157l-268 -576h-336l-81 576q-8 58 -18 150t-19 200.5t-15 218.5
q-16 -106 -30.5 -216.5t-27.5 -204t-22 -148.5l-95 -576h-408z" />
    <glyph glyph-name="N" unicode="N" horiz-adv-x="1576" 
d="M3 0l247 1490h440l258 -585q41 -92 72.5 -185.5t56.5 -219.5q11 114 24 238t26 206l91 546h416l-247 -1490h-440l-241 544q-50 114 -82.5 211t-65.5 222q-12 -128 -24.5 -243.5t-24.5 -189.5l-90 -544h-416z" />
    <glyph glyph-name="O" unicode="O" horiz-adv-x="1590" 
d="M720 -20q-184 0 -326 71.5t-222.5 209t-80.5 336.5q0 187 59 352.5t169.5 291.5t265.5 197.5t347 71.5q183 0 324.5 -71t222.5 -209t81 -338q0 -187 -59.5 -352t-170 -291t-265 -197.5t-345.5 -71.5zM737 332q109 0 187 51.5t128 136t73.5 183.5t23.5 193q0 262 -234 262
q-109 0 -187.5 -52t-128.5 -136.5t-73.5 -183t-23.5 -192.5q0 -262 235 -262z" />
    <glyph glyph-name="P" unicode="P" horiz-adv-x="1343" 
d="M3 0l247 1490h642q166 0 279.5 -65.5t163.5 -184.5t23 -278q-26 -160 -116.5 -276.5t-229 -180t-308.5 -63.5h-224l-73 -442h-404zM532 756h142q107 0 176.5 56t85.5 150q17 97 -35 150.5t-159 53.5h-142z" />
    <glyph glyph-name="Q" unicode="Q" horiz-adv-x="1590" 
d="M720 -20q-184 0 -326 71.5t-222.5 209t-80.5 336.5q0 187 59 352.5t169.5 291.5t265.5 197.5t347 71.5q183 0 324.5 -71t222.5 -209t81 -338q0 -232 -91 -430t-256 -322l166 -250h-330l-87 124q-115 -34 -242 -34zM646 552h286l67 -104q78 85 114 208t36 240
q0 262 -234 262q-109 0 -187.5 -52t-128.5 -136.5t-73.5 -183t-23.5 -192.5q0 -262 235 -262q20 0 39 2z" />
    <glyph glyph-name="R" unicode="R" horiz-adv-x="1368" 
d="M3 0l247 1490h642q166 0 280.5 -60.5t165 -174t24.5 -271.5q-26 -155 -111 -263t-214 -165l212 -556h-440l-181 492h-140l-81 -492h-404zM540 806h142q107 0 174.5 41t83.5 137q16 95 -37.5 138.5t-160.5 43.5h-142z" />
    <glyph glyph-name="S" unicode="S" horiz-adv-x="1364" 
d="M630 -18q-194 0 -335 57.5t-207 177.5t-36 307h384q-12 -103 45 -156.5t174 -53.5q97 0 153.5 35.5t65.5 90.5q8 50 -36.5 84t-163.5 60l-145 32q-190 42 -286.5 143.5t-67.5 276.5q23 142 111.5 248.5t228 166t316.5 59.5q181 0 308.5 -60.5t187 -170t36.5 -255.5h-388
q7 73 -35 113.5t-140 40.5q-94 0 -142.5 -32t-56.5 -82q-9 -53 33 -86t144 -56l117 -26q239 -53 329 -169.5t62 -286.5q-37 -221 -205 -339.5t-451 -118.5z" />
    <glyph glyph-name="T" unicode="T" horiz-adv-x="1406" 
d="M156 1164l54 326h1294l-54 -326h-445l-193 -1164h-404l193 1164h-445z" />
    <glyph glyph-name="U" unicode="U" horiz-adv-x="1478" 
d="M663 -18q-197 0 -335 70.5t-200 198.5t-34 298l156 941h404l-154 -933q-17 -104 33.5 -164.5t146.5 -60.5q75 0 139.5 34t108 91t54.5 126l150 907h404l-160 -967q-28 -170 -126 -291.5t-249 -185.5t-338 -64z" />
    <glyph glyph-name="V" unicode="V" horiz-adv-x="1628" 
d="M453 0l-253 1490h458l77 -578q19 -140 31.5 -282.5t21.5 -288.5q56 146 114 288.5t121 282.5l261 578h452l-731 -1490h-552z" />
    <glyph glyph-name="W" unicode="W" horiz-adv-x="2216" 
d="M348 0l-148 1490h452l23 -578q4 -97 1.5 -210t-5.5 -227q0 -11 -0.5 -22t-0.5 -22q39 124 79.5 249.5t82.5 231.5l228 578h404l36 -578q6 -95 5.5 -205.5t-1.5 -222.5q-1 -12 -1 -24v-24q37 122 75.5 246.5t77.5 229.5l216 578h452l-642 -1490h-457l-48 607q-6 82 -6 173
t2 184q-27 -92 -55.5 -183t-63.5 -174l-249 -607h-457z" />
    <glyph glyph-name="X" unicode="X" horiz-adv-x="1610" 
d="M-47 0l664 762l-357 728h455l87 -194q29 -65 46 -124.5t30 -112.5q33 53 70 112.5t88 124.5l153 194h471l-587 -717l398 -773h-475l-120 256q-35 75 -49.5 122t-30.5 89q-28 -42 -59 -89.5t-93 -121.5l-213 -256h-478z" />
    <glyph glyph-name="Y" unicode="Y" horiz-adv-x="1588" 
d="M508 0l86 518l-394 972h459l140 -450q13 -41 22.5 -83t17.5 -89q44 93 92 172l276 450h489l-700 -972l-86 -518h-402z" />
    <glyph glyph-name="Z" unicode="Z" horiz-adv-x="1423" 
d="M10 0l37 224l860 940h-702l54 326h1216l-37 -224l-860 -940h702l-54 -326h-1216z" />
    <glyph glyph-name="bracketleft" unicode="[" horiz-adv-x="794" 
d="M5 -279l308 1860h566l-48 -292h-176l-211 -1276h176l-49 -292h-566z" />
    <glyph glyph-name="backslash" unicode="\" horiz-adv-x="838" 
d="M362 -224l-184 1784h330l186 -1784h-332z" />
    <glyph glyph-name="bracketright" unicode="]" horiz-adv-x="794" 
d="M-55 -279l49 292h176l211 1276h-176l48 292h566l-308 -1860h-566z" />
    <glyph glyph-name="asciicircum" unicode="^" horiz-adv-x="1024" 
d="M102 814l418 652h286l204 -652h-266l-105 408h-13l-236 -408h-288z" />
    <glyph glyph-name="underscore" unicode="_" horiz-adv-x="1010" 
d="M917 0l-47 -286h-1010l47 286h1010z" />
    <glyph glyph-name="grave" unicode="`" horiz-adv-x="822" 
d="M503 1256l-164 326h344l84 -326h-264z" />
    <glyph glyph-name="a" unicode="a" horiz-adv-x="1322" 
d="M407 -14q-119 0 -209 62.5t-129.5 189.5t-7.5 320q34 203 118 329.5t194 185.5t221 59q124 0 192.5 -62t87.5 -148h6l32 196h400l-185 -1118h-398l30 184h-8q-49 -85 -137.5 -141.5t-206.5 -56.5zM606 294q83 0 142.5 71.5t78.5 192.5q21 125 -15 195.5t-119 70.5
q-82 0 -139.5 -70.5t-78.5 -195.5q-20 -124 14.5 -194t116.5 -70z" />
    <glyph glyph-name="b" unicode="b" horiz-adv-x="1321" 
d="M746 -14q-126 0 -199 62.5t-93 147.5h-14l-33 -196h-398l247 1490h402l-96 -568h8q47 92 128 151t200 59q100 0 184 -46t135.5 -143t51.5 -249q0 -111 -29 -234t-91.5 -230.5t-162 -175.5t-240.5 -68zM608 294q70 0 117.5 39.5t76.5 99.5t42 123t13 111q0 157 -121 157
q-62 0 -109.5 -34.5t-79.5 -90t-48.5 -119.5t-16.5 -123q0 -77 32.5 -120t93.5 -43z" />
    <glyph glyph-name="c" unicode="c" horiz-adv-x="1233" 
d="M565 -20q-241 0 -375 132t-134 349q0 126 40 246t121.5 216t205.5 152.5t291 56.5q154 0 266 -52.5t170 -147.5t50 -225l-379 -55q1 88 -20.5 134t-88.5 46q-70 0 -118.5 -38.5t-77.5 -99.5t-42 -128t-13 -124q0 -162 118 -162q66 0 125 47.5t87 138.5l360 -54
q-53 -199 -203 -315.5t-383 -116.5z" />
    <glyph glyph-name="d" unicode="d" horiz-adv-x="1322" 
d="M428 -14q-160 0 -268 110t-108 330q0 127 33.5 252t99.5 228t163 164.5t224 61.5q133 0 204.5 -68t89.5 -154h10l96 580h402l-247 -1490h-398l34 184h-13q-49 -95 -130.5 -146.5t-191.5 -51.5zM586 294q83 0 139 59t85 145t29 165q0 161 -125 161q-63 0 -110 -35.5
t-78 -92.5t-46.5 -122t-15.5 -124q0 -156 122 -156z" />
    <glyph glyph-name="e" unicode="e" horiz-adv-x="1232" 
d="M566 -24q-238 0 -376.5 121.5t-138.5 338.5q0 137 46.5 262t134 222.5t211.5 154.5t279 57q127 0 232 -40.5t167.5 -117t62.5 -185.5q0 -128 -90.5 -198t-257.5 -100t-397 -37v-28q0 -73 32 -120t126 -47q68 0 118 26t66 75l357 -26q-49 -159 -199 -258.5t-373 -99.5z
M470 672q148 2 223.5 11t101.5 26.5t26 48.5q0 92 -141 92q-89 0 -138 -53t-72 -125z" />
    <glyph glyph-name="f" unicode="f" horiz-adv-x="902" 
d="M936 1118l-49 -292h-228l-133 -808q-38 -229 -173 -351.5t-351 -122.5q-50 0 -103 3t-93 11l79 296q21 -4 42 -7t41 -3q128 0 151 144l138 838h-193l49 292h193q43 214 180 327t354 113q57 0 103.5 -4.5t95.5 -17.5l-98 -288q-24 4 -45 6t-60 2q-105 0 -123 -106l-5 -32
h228z" />
    <glyph glyph-name="g" unicode="g" horiz-adv-x="1327" 
d="M492 -442q-237 0 -370 91.5t-133 235.5l354 26q2 -45 41.5 -64t108.5 -19q106 0 168 49.5t78 137.5l33 177h-38q-46 -85 -120.5 -131.5t-180.5 -46.5t-192.5 44t-137 136t-50.5 236q0 127 34 251.5t100.5 226.5t164 163t223.5 61q132 0 207 -68t94 -154h9l35 208h398
l-181 -1089q-39 -236 -213.5 -353.5t-431.5 -117.5zM588 300q85 0 140.5 58t83.5 142.5t28 162.5q0 161 -125 161q-62 0 -109 -35.5t-78.5 -91.5t-47 -120.5t-15.5 -123.5q0 -153 123 -153z" />
    <glyph glyph-name="h" unicode="h" horiz-adv-x="1330" 
d="M515 628l-104 -628h-402l247 1490h392l-100 -602q58 106 145 175t223 69q119 0 201.5 -54t119 -149t16.5 -217l-118 -712h-402l104 628q14 83 -20.5 130.5t-110.5 47.5q-74 0 -125.5 -47.5t-65.5 -130.5z" />
    <glyph glyph-name="i" unicode="i" horiz-adv-x="607" 
d="M10 0l185 1118h402l-185 -1118h-402zM414 1232q-82 0 -131 54t-37 130q13 77 80 130.5t149 53.5t131 -53.5t36 -130.5q-12 -76 -79 -130t-149 -54z" />
    <glyph glyph-name="j" unicode="j" horiz-adv-x="606" 
d="M194 1118h402l-191 -1156q-24 -147 -99.5 -229.5t-192 -116.5t-263.5 -34h-82l49 296h46q73 0 103 22t38 70zM414 1232q-82 0 -131 54t-37 130q13 77 80 130.5t149 53.5t131 -53.5t36 -130.5q-12 -76 -79 -130t-149 -54z" />
    <glyph glyph-name="k" unicode="k" horiz-adv-x="1242" 
d="M9 0l247 1490h402l-124 -748h14l332 376h452l-461 -490l286 -628h-458l-163 394l-72 -77l-53 -317h-402z" />
    <glyph glyph-name="l" unicode="l" horiz-adv-x="606" 
d="M658 1490l-247 -1490h-402l247 1490h402z" />
    <glyph glyph-name="m" unicode="m" horiz-adv-x="1932" 
d="M9 0l186 1118h366l-16 -212q68 126 158.5 176t184.5 50q110 0 173 -63.5t86 -205.5q77 153 184 211t213 58q112 0 189.5 -50t111.5 -138t15 -203l-123 -741h-402l111 665q24 143 -92 143q-70 0 -120.5 -48t-62.5 -121l-106 -639h-384l111 665q12 73 -13 108t-79 35
q-70 0 -120.5 -48t-62.5 -121l-106 -639h-402z" />
    <glyph glyph-name="n" unicode="n" horiz-adv-x="1330" 
d="M513 615l-102 -615h-402l186 1118h376l-29 -227q60 108 149 174.5t221 66.5q124 0 207 -57.5t118 -155.5t14 -220l-116 -699h-402l107 641q14 83 -23.5 124t-105.5 41q-82 0 -133 -54t-65 -137z" />
    <glyph glyph-name="o" unicode="o" horiz-adv-x="1280" 
d="M566 -20q-247 0 -379 130t-132 345q0 136 44 258t128.5 216.5t207 148.5t280.5 54q246 0 377.5 -130t131.5 -345q0 -135 -43 -257t-127 -216.5t-206.5 -149t-281.5 -54.5zM582 280q67 0 113 42t73.5 105.5t39.5 131t12 117.5q0 77 -32.5 116.5t-88.5 39.5
q-68 0 -114.5 -41t-74 -103.5t-39.5 -129t-12 -117.5q0 -78 33.5 -119.5t89.5 -41.5z" />
    <glyph glyph-name="p" unicode="p" horiz-adv-x="1321" 
d="M-60 -418l255 1536h398l-36 -196h9q47 86 131.5 148t200.5 62q100 0 184 -46t135.5 -143t51.5 -249q0 -111 -29 -234t-91.5 -230.5t-162 -175.5t-240.5 -68q-126 0 -199 62.5t-93 147.5h-12l-100 -614h-402zM608 294q70 0 117.5 39.5t76.5 99.5t42 123t13 111
q0 157 -121 157q-62 0 -109.5 -34.5t-79.5 -90t-48.5 -119.5t-16.5 -123q0 -77 32.5 -120t93.5 -43z" />
    <glyph glyph-name="q" unicode="q" horiz-adv-x="1322" 
d="M1058 -418h-402l101 596h-13q-50 -90 -128 -141t-188 -51q-160 0 -268 110t-108 330q0 127 33.5 252t99.5 228t163 164.5t224 61.5q133 0 206.5 -68t91.5 -154h10l35 208h398zM586 294q83 0 139 59t85 145t29 165q0 161 -125 161q-63 0 -110 -35.5t-78 -92.5t-46.5 -122
t-15.5 -124q0 -156 122 -156z" />
    <glyph glyph-name="r" unicode="r" horiz-adv-x="889" 
d="M10 0l185 1118h390l-35 -214h12q50 119 125 173.5t164 54.5q50 0 100 -16l-57 -342q-28 11 -71 15.5t-74 4.5q-89 0 -156.5 -58t-84.5 -154l-96 -582h-402z" />
    <glyph glyph-name="s" unicode="s" horiz-adv-x="1202" 
d="M524 -20q-235 0 -370 100t-137 263v5l372 28q8 -66 40 -95t117 -29q33 0 69.5 7t62.5 25t26 51q0 26 -23.5 43.5t-81.5 27.5l-192 36q-146 28 -221.5 105.5t-75.5 187.5q0 135 77 223t204 131t275 43q229 0 356 -90.5t130 -241.5v-4l-354 -25q-4 55 -36 74t-91 19
q-31 0 -68 -8t-63.5 -27t-26.5 -54q0 -20 16.5 -38t66.5 -27l222 -40q147 -26 224 -93.5t77 -175.5q0 -104 -50 -183t-135 -132t-191.5 -79.5t-218.5 -26.5z" />
    <glyph glyph-name="t" unicode="t" horiz-adv-x="820" 
d="M849 1118l-48 -292h-192l-77 -467q-10 -70 65 -70q18 0 53 4.5t47 8.5v-287q-72 -19 -134 -25.5t-116 -6.5q-379 0 -323 339l84 504h-143l48 292h143l44 266h402l-44 -266h191z" />
    <glyph glyph-name="u" unicode="u" horiz-adv-x="1331" 
d="M398 -14q-118 0 -197 54t-111.5 149t-12.5 217l118 712h402l-104 -628q-13 -83 21 -130.5t110 -47.5q74 0 126 47.5t65 130.5l104 628h402l-185 -1118h-377l34 253q-60 -115 -156 -191t-239 -76z" />
    <glyph glyph-name="v" unicode="v" horiz-adv-x="1294" 
d="M318 0l-213 1118h406l61 -510q9 -76 14 -154t7 -162q30 84 60.5 161.5t64.5 154.5l225 510h432l-585 -1118h-472z" />
    <glyph glyph-name="w" unicode="w" horiz-adv-x="1796" 
d="M228 0l-137 1118h420l6 -350q1 -30 1.5 -60t1.5 -62q2 -70 3.5 -145t0.5 -156q41 118 82.5 223t77.5 200l133 350h348l13 -350q1 -38 3.5 -77t4.5 -80q4 -63 7.5 -130t4.5 -138q36 118 72.5 223.5t70.5 201.5l122 350h428l-511 -1118h-412l-45 368q-6 51 -8.5 125
t-4.5 148q-26 -74 -53 -148t-50 -125l-167 -368h-412z" />
    <glyph glyph-name="x" unicode="x" horiz-adv-x="1248" 
d="M-70 0l429 574l-224 544h413l46 -142q16 -51 30 -105t27 -108l66 108t68 105l97 142h421l-414 -544l243 -574h-410l-61 176q-18 52 -33.5 106.5t-30.5 109.5q-31 -55 -64 -109.5t-67 -106.5l-116 -176h-420z" />
    <glyph glyph-name="y" unicode="y" horiz-adv-x="1302" 
d="M-53 -388l135 286l50 -14q94 -26 156 2.5t52 80.5l-6 32l-229 1119h414l61 -510q8 -71 9.5 -142.5t1.5 -147.5q29 77 59.5 148t64.5 142l244 510h424l-663 -1220q-49 -91 -119 -164.5t-170 -116.5t-241 -43q-69 0 -134 10t-109 28z" />
    <glyph glyph-name="z" unicode="z" horiz-adv-x="1208" 
d="M21 0l37 222l576 584l1 6h-464l51 306h946l-41 -246l-528 -560l-1 -6h454l-51 -306h-980z" />
    <glyph glyph-name="braceleft" unicode="{" horiz-adv-x="1035" 
d="M812 -279q-112 0 -216 8t-181.5 45t-112 123.5t-8.5 243.5l21 128q18 107 -23.5 157.5t-168.5 50.5l58 348q127 0 185 50.5t75 157.5l22 128q26 157 89 243.5t153 123.5t196.5 45t218.5 8l-48 -292q-131 0 -180 -44t-64 -136l-26 -160q-9 -52 -38 -106.5t-92.5 -101.5
t-177.5 -77l-4 -26q103 -30 151.5 -77t59.5 -101.5t2 -106.5l-27 -160q-15 -91 19.5 -135.5t165.5 -44.5z" />
    <glyph glyph-name="bar" unicode="|" horiz-adv-x="830" 
d="M846 1970l-406 -2450h-394l406 2450h394z" />
    <glyph glyph-name="braceright" unicode="}" horiz-adv-x="1035" 
d="M-55 -279l49 292q131 0 179 44.5t64 135.5l27 160q9 52 37.5 106.5t92.5 101.5t177 77l4 26q-103 30 -151 77t-59 101.5t-2 106.5l26 160q15 92 -19 136t-165 44l48 292q113 0 217 -8t182 -45t112.5 -123.5t7.5 -243.5l-22 -128q-19 -107 23 -157.5t169 -50.5l-58 -348
q-127 0 -185 -50.5t-75 -157.5l-21 -128q-26 -157 -89.5 -243.5t-153 -123.5t-196 -45t-219.5 -8z" />
    <glyph glyph-name="asciitilde" unicode="~" horiz-adv-x="1420" 
d="M120 376q26 224 132 356t278 132q65 0 122.5 -26t127.5 -96q30 -31 53.5 -50.5t60.5 -19.5q45 0 82 38t50 124h292q-28 -222 -137.5 -355t-276.5 -133q-71 0 -129.5 29t-122.5 93q-35 35 -54 52.5t-56 17.5q-46 0 -83.5 -37.5t-48.5 -124.5h-290z" />
    <glyph glyph-name="uni00A0" unicode="&#xa0;" horiz-adv-x="408" 
 />
    <glyph glyph-name="exclamdown" unicode="&#xa1;" horiz-adv-x="780" 
d="M24 -372l200 1024h364l-140 -1024h-424zM421 744q-97 0 -146.5 53.5t-34.5 145.5t82.5 145.5t164.5 53.5q98 0 147 -53.5t34 -145.5t-82 -145.5t-165 -53.5z" />
    <glyph glyph-name="cent" unicode="&#xa2;" horiz-adv-x="1233" 
d="M491 0l29 174q-206 21 -319.5 149t-113.5 328q0 123 38 240t115 212t194.5 153.5t275.5 64.5l28 169h120l-29 -172q194 -21 303.5 -133t98.5 -288l-379 -55q1 74 -14 118.5t-58 56.5l-88 -528q42 21 76.5 63t53.5 104l360 -54q-51 -190 -189.5 -305t-353.5 -126l-28 -171
h-120zM570 476l87 527q-61 -30 -97 -94t-52 -139t-16 -138q0 -132 78 -156z" />
    <glyph glyph-name="sterling" unicode="&#xa3;" horiz-adv-x="1357" 
d="M-12 0l54 328h1q78 0 132 30t60 90l17 182h-160l38 230h144l10 104q17 181 102 303t216 184.5t285 62.5q138 0 245 -51t168 -146t62 -228l-383 -57q3 80 -26.5 117t-96.5 37q-84 0 -128 -47t-58 -151l-17 -128h315l-38 -230h-306l-14 -106q-10 -76 -56 -123t-110 -73h406
q30 0 35 30l9 51h373l-11 -63q-29 -166 -141.5 -256t-295.5 -90h-831z" />
    <glyph glyph-name="currency" unicode="&#xa4;" horiz-adv-x="1624" 
d="M718 -20q-105 0 -195 32t-158 91l-161 -135l-128 158l165 137q-36 73 -47.5 160.5t4.5 184.5q16 102 60 192.5t108 166.5l-124 147l180 158l127 -149q85 53 181 82t196 29t186.5 -30t154.5 -85l179 153l130 -158l-181 -151q39 -75 53 -165t-2 -190q-16 -96 -57 -182.5
t-100 -160.5l121 -139l-182 -158l-116 137q-88 -59 -189 -92t-205 -33zM754 190q116 0 220 54.5t177.5 149.5t94.5 214q19 121 -22.5 215.5t-128 149t-201.5 53.5q-120 1 -225 -53.5t-176 -149t-91 -215.5q-21 -119 18.5 -214t126.5 -149.5t207 -54.5z" />
    <glyph glyph-name="yen" unicode="&#xa5;" horiz-adv-x="1204" 
d="M588 1490l93 -458l245 458h404l-425 -704h201l-36 -212h-273l-13 -76h274l-36 -212h-273l-47 -286h-400l48 286h-312l38 212h310l12 76h-310l34 212h249l-187 704h404z" />
    <glyph glyph-name="brokenbar" unicode="&#xa6;" horiz-adv-x="814" 
d="M206 424h356l-116 -704h-356zM738 1490l-116 -702h-354l116 702h354z" />
    <glyph glyph-name="section" unicode="&#xa7;" horiz-adv-x="1164" 
d="M442 -300q-204 0 -316 100.5t-108 266.5l339 49q-3 -112 133 -112q130 0 144 95q6 41 -22 69t-99 46l-237 61q-111 29 -167.5 107.5t-36.5 189.5q21 115 103 158.5t188 38.5v1q-207 103 -167 344q31 187 171.5 293.5t354.5 106.5q203 0 306 -95t99 -262l-342 -49
q3 106 -109 106q-119 0 -134 -101q-7 -51 24.5 -80.5t110.5 -49.5l236 -57q106 -25 160 -99t36 -179q-19 -109 -100 -162t-192 -55v-1q80 -31 118.5 -87t47.5 -121.5t-2 -127.5q-20 -117 -94 -206t-188.5 -138.5t-256.5 -49.5zM670 470q26 -6 63.5 10t55.5 59q15 37 -1 78
t-90 60l-191 48q-27 7 -66.5 -6t-59.5 -60q-21 -49 6.5 -90t86.5 -55z" />
    <glyph glyph-name="dieresis" unicode="&#xa8;" horiz-adv-x="1330" 
d="M548 1247q-73 0 -116 49.5t-32 119.5q12 70 71.5 119.5t132.5 49.5t116.5 -49.5t31.5 -119.5q-11 -70 -71 -119.5t-133 -49.5zM1010 1247q-73 0 -116 49.5t-32 119.5q12 70 71.5 119.5t132.5 49.5t116.5 -49.5t31.5 -119.5q-11 -70 -71 -119.5t-133 -49.5z" />
    <glyph glyph-name="copyright" unicode="&#xa9;" horiz-adv-x="1873" 
d="M840 -23q-190 0 -337.5 84.5t-231 230t-83.5 327.5q0 175 74 335.5t201 286.5t290 199t341 73q191 0 338 -84.5t230.5 -229.5t83.5 -327q0 -175 -74 -336t-201 -287t-290 -199t-341 -73zM888 267q111 0 212 45.5t180.5 123.5t125.5 178.5t46 209.5q0 113 -52 203.5
t-143.5 143t-210.5 52.5q-111 0 -212.5 -45.5t-180.5 -124t-124.5 -178.5t-45.5 -208q0 -113 51.5 -204t143 -143.5t210.5 -52.5zM576 744q18 110 86 199.5t167.5 143t208.5 53.5q97 0 171 -43t114.5 -116.5t34.5 -166.5h-242q-2 42 -35.5 68t-81.5 26q-67 0 -123.5 -47
t-67.5 -115q-10 -67 30 -115.5t107 -48.5q48 0 90 26t58 66h242q-25 -92 -89.5 -165.5t-153 -116t-185.5 -42.5q-109 0 -190.5 53.5t-120 143t-20.5 197.5z" />
    <glyph glyph-name="ordfeminine" unicode="&#xaa;" horiz-adv-x="966" 
d="M356 659q-129 0 -201.5 60.5t-51.5 185.5q15 91 69 147t134 84t173 34q118 8 167 22.5t55 51.5v3q6 35 -21.5 54.5t-81.5 19.5q-117 0 -150 -78l-259 28q42 105 156.5 178t288.5 73q115 0 200.5 -35.5t128 -97.5t28.5 -143l-95 -573h-272l20 118h-7q-94 -132 -281 -132z
M477 845q65 0 118.5 33.5t63.5 91.5l12 73q-27 -10 -70.5 -18t-85.5 -14q-62 -9 -95.5 -33t-39.5 -57q-6 -37 22 -56.5t75 -19.5z" />
    <glyph glyph-name="guillemotleft" unicode="&#xab;" horiz-adv-x="1487" 
d="M412 144l-323 472l479 472h414l-472 -472l316 -472h-414zM934 144l-323 472l479 472h414l-472 -472l316 -472h-414z" />
    <glyph glyph-name="logicalnot" unicode="&#xac;" horiz-adv-x="1420" 
d="M797 259l40 245h-638l52 310h964l-92 -555h-326z" />
    <glyph glyph-name="registered" unicode="&#xae;" horiz-adv-x="1350" 
d="M638 346q-160 0 -279 78.5t-175 211t-29 292.5q20 120 82.5 225.5t155 185.5t205.5 125.5t233 45.5q161 0 280 -78.5t176 -210.5t30 -293q-20 -120 -82.5 -225.5t-156 -185.5t-206.5 -125.5t-234 -45.5zM665 510q117 0 221.5 56t177 151t91.5 211t-22 210.5t-127 151
t-202 56.5q-115 0 -219.5 -56.5t-176.5 -151t-91 -210.5q-19 -115 21.5 -210t126 -151.5t200.5 -56.5zM777 666l-45 180h-71l-30 -180h-154l89 536h256q94 0 139 -48.5t31 -131.5q-18 -106 -108 -150l63 -206h-170zM676 940h73q72 0 84 75t-60 75h-72z" />
    <glyph glyph-name="macron" unicode="&#xaf;" horiz-adv-x="833" 
d="M878 1532l-39 -232h-600l39 232h600z" />
    <glyph glyph-name="degree" unicode="&#xb0;" horiz-adv-x="948" 
d="M568 754q-103 0 -188 50t-135 134.5t-51 187.5q1 103 51 187.5t135 134.5t188 50t187 -50t134.5 -134.5t50.5 -187.5t-50.5 -187.5t-134.5 -134.5t-187 -50zM568 1000q51 1 87.5 37.5t36.5 88.5t-36.5 88.5t-87.5 35.5q-52 1 -89 -35.5t-37 -88.5t37 -88.5t89 -37.5z" />
    <glyph glyph-name="plusminus" unicode="&#xb1;" horiz-adv-x="1420" 
d="M186 664l50 290h375l37 222h326l-37 -222h381l-50 -290h-379l-37 -222h-326l37 222h-377zM84 46l50 304h1082l-50 -304h-1082z" />
    <glyph glyph-name="two.sups" unicode="&#xb2;" horiz-adv-x="973" 
d="M164 886l33 202l412 244q60 36 88.5 59t33.5 51q7 41 -23.5 62.5t-82.5 21.5q-51 0 -84 -16.5t-39 -53.5h-270q23 134 139.5 208t287.5 74q190 0 283.5 -72.5t73.5 -193.5q-6 -36 -21.5 -75.5t-55 -82.5t-116 -90t-205.5 -98l-22 -9l-2 -9h375l-36 -222h-769z" />
    <glyph glyph-name="three.sups" unicode="&#xb3;" horiz-adv-x="1012" 
d="M549 876q-103 0 -190 36.5t-134.5 101t-34.5 147.5h291q-4 -28 24 -45t80 -17q53 0 87 17.5t39 50.5t-21.5 53t-74.5 20h-132l24 142h132q44 0 75 20t36 52q11 64 -97 64q-51 0 -84.5 -14.5t-37.5 -37.5h-272q14 82 76.5 143t157 95t202.5 34q167 0 261 -73.5t75 -187.5
q-11 -65 -76.5 -107t-157.5 -47l-1 -9q128 -11 179 -57t38 -120q-13 -78 -76.5 -137t-164 -91.5t-223.5 -32.5z" />
    <glyph glyph-name="acute" unicode="&#xb4;" horiz-adv-x="562" 
d="M155 1256l192 326h344l-272 -326h-264z" />
    <glyph glyph-name="uni00B5" unicode="&#xb5;" horiz-adv-x="1361" 
d="M-59 -418l254 1536h400l-107 -646q-13 -81 24 -127.5t110 -46.5t126 46.5t66 127.5l107 646h400l-124 -748q-11 -66 53 -66h58l-50 -304h-204q-221 0 -249 178q-46 -82 -102.5 -114t-108.5 -32q-49 0 -92.5 24.5t-68.5 84.5l-92 -559h-400z" />
    <glyph glyph-name="paragraph" unicode="&#xb6;" horiz-adv-x="1224" 
d="M743 0l199 1198h-181l-104 -646h-88q-167 0 -272.5 61t-147 167.5t-20.5 241.5q24 134 100.5 239.5t201.5 167t292 61.5h558l-246 -1490h-292z" />
    <glyph glyph-name="periodcentered" unicode="&#xb7;" horiz-adv-x="764" 
d="M393 502q-95 0 -150 66t-39 163q13 77 74 127t141 50q95 0 150 -66t39 -163q-13 -77 -74 -127t-141 -50z" />
    <glyph glyph-name="cedilla" unicode="&#xb8;" horiz-adv-x="915" 
d="M144 -418l21 131h135q80 0 90 58q10 57 -70 57h-100l77 212h133l-7 -40l-26 -90q95 12 144 -31t36 -121q-16 -96 -80.5 -136t-194.5 -40h-158z" />
    <glyph glyph-name="one.sups" unicode="&#xb9;" horiz-adv-x="733" 
d="M822 1728l-139 -842h-285l100 607h-11l-231 -123l39 234l228 124h299z" />
    <glyph glyph-name="ordmasculine" unicode="&#xba;" horiz-adv-x="1016" 
d="M525 658q-212 0 -312.5 119.5t-69.5 312.5q22 129 92 226t181 151.5t252 54.5q212 0 312.5 -119.5t68.5 -312.5q-21 -129 -91.5 -226t-180.5 -151.5t-252 -54.5zM561 876q76 0 126.5 57.5t66.5 157.5q17 101 -14.5 157t-107.5 56t-125.5 -56t-66.5 -157
q-16 -100 14.5 -157.5t106.5 -57.5z" />
    <glyph glyph-name="guillemotright" unicode="&#xbb;" horiz-adv-x="1488" 
d="M2 144l472 472l-316 472h414l323 -472l-479 -472h-414zM524 144l472 472l-316 472h414l323 -472l-479 -472h-414z" />
    <glyph glyph-name="onequarter" unicode="&#xbc;" horiz-adv-x="1809" 
d="M661 1490l-139 -842h-240l107 646h-9l-197 -132l33 202l191 126h254zM141 0l1271 1490h240l-1271 -1490h-240zM963 101l31 184l416 557h302l-92 -553h96l-32 -188h-95l-17 -101h-227l16 101h-398zM1403 289l47 284h-12l-198 -272l-2 -12h165z" />
    <glyph glyph-name="onehalf" unicode="&#xbd;" horiz-adv-x="1868" 
d="M661 1490l-139 -842h-240l107 646h-9l-197 -132l33 202l191 126h254zM141 0l1271 1490h240l-1271 -1490h-240zM1075 0l28 171l351 260q61 45 84.5 79.5t29.5 71.5q8 47 -17 68.5t-68 21.5t-72 -21.5t-36 -60.5h-227q20 121 109 191t237 70q155 0 241 -70t68 -181
q-4 -28 -16 -61.5t-45 -77.5t-98.5 -104.5t-177.5 -143.5l-19 -14l-2 -10h303l-32 -189h-641z" />
    <glyph glyph-name="threequarters" unicode="&#xbe;" horiz-adv-x="1950" 
d="M407 639q-80 0 -155 27t-118.5 80.5t-30.5 132.5h246q-2 -15 25.5 -28t67.5 -13q37 0 64.5 20.5t34.5 57.5q6 33 -21 55t-74 22h-91l27 164h91q38 0 72.5 22.5t41.5 57.5t-15 54t-56 19q-44 0 -74.5 -19t-35.5 -50h-228q13 78 65.5 136t131 90t167.5 32
q138 0 217.5 -71.5t62.5 -181.5q-10 -64 -65.5 -109t-136.5 -53l-1 -9q206 -25 178 -183q-20 -114 -128.5 -183.5t-261.5 -69.5zM282 0l1271 1490h240l-1271 -1490h-240zM1104 101l31 184l416 557h302l-92 -553h96l-32 -188h-95l-17 -101h-227l16 101h-398zM1544 289l47 284
h-12l-198 -272l-2 -12h165z" />
    <glyph glyph-name="questiondown" unicode="&#xbf;" horiz-adv-x="1228" 
d="M844 628l-6 -34q-21 -120 -51.5 -191.5t-74 -114.5t-103.5 -78q-76 -46 -130 -88.5t-64 -103.5q-9 -55 23.5 -88.5t86.5 -33.5q59 0 109 39.5t60 102.5h372q-26 -160 -105 -260t-195.5 -147t-258.5 -47q-155 0 -279 45.5t-188.5 137t-42.5 227.5q22 133 102 217.5
t198 146.5q86 47 135 98t64 138l6 34h342zM754 1118q98 0 147 -53.5t34 -145.5t-82 -145.5t-165 -53.5q-97 0 -146.5 53.5t-34.5 145.5t82.5 145.5t164.5 53.5z" />
    <glyph glyph-name="Agrave" unicode="&#xc0;" horiz-adv-x="1628" 
d="M-47 0l730 1490h552l254 -1490h-442l-38 286h-459l-129 -286h-468zM686 588h283q-18 137 -30.5 281t-22.5 290q-55 -146 -111.5 -290t-118.5 -281zM857 1628l-164 326h344l84 -326h-264z" />
    <glyph glyph-name="Aacute" unicode="&#xc1;" horiz-adv-x="1628" 
d="M-47 0l730 1490h552l254 -1490h-442l-38 286h-459l-129 -286h-468zM686 588h283q-18 137 -30.5 281t-22.5 290q-55 -146 -111.5 -290t-118.5 -281zM853 1628l192 326h344l-272 -326h-264z" />
    <glyph glyph-name="Acircumflex" unicode="&#xc2;" horiz-adv-x="1628" 
d="M-47 0l730 1490h552l254 -1490h-442l-38 286h-459l-129 -286h-468zM686 588h283q-18 137 -30.5 281t-22.5 290q-55 -146 -111.5 -290t-118.5 -281zM845 1628h-332l1 6l387 320h280l281 -320l-1 -6h-332l-115 166z" />
    <glyph glyph-name="Atilde" unicode="&#xc3;" horiz-adv-x="1628" 
d="M-47 0l730 1490h552l254 -1490h-442l-38 286h-459l-129 -286h-468zM686 588h283q-18 137 -30.5 281t-22.5 290q-55 -146 -111.5 -290t-118.5 -281zM1135 1628q-57 0 -93 18t-61 42t-46.5 42t-49.5 18q-72 0 -95 -112h-198q29 158 113 235t187 77q56 0 93 -17.5t63 -41
t47.5 -41t47.5 -17.5q42 0 64 29.5t32 81.5h196q-28 -154 -113 -234t-187 -80z" />
    <glyph glyph-name="Adieresis" unicode="&#xc4;" horiz-adv-x="1628" 
d="M-47 0l730 1490h552l254 -1490h-442l-38 286h-459l-129 -286h-468zM686 588h283q-18 137 -30.5 281t-22.5 290q-55 -146 -111.5 -290t-118.5 -281zM754 1619q-73 0 -116 49.5t-32 119.5q12 70 71.5 119.5t132.5 49.5t116.5 -49.5t31.5 -119.5q-11 -70 -71 -119.5
t-133 -49.5zM1216 1619q-73 0 -116 49.5t-32 119.5q12 70 71.5 119.5t132.5 49.5t116.5 -49.5t31.5 -119.5q-11 -70 -71 -119.5t-133 -49.5z" />
    <glyph glyph-name="Aring" unicode="&#xc5;" horiz-adv-x="1628" 
d="M-47 0l730 1490h552l254 -1490h-442l-38 286h-459l-129 -286h-468zM686 588h283q-18 137 -30.5 281t-22.5 290q-55 -146 -111.5 -290t-118.5 -281zM994 1548q-139 0 -209.5 77t-51.5 189q15 93 95.5 153.5t204.5 60.5q139 0 209.5 -76.5t51.5 -189.5
q-15 -93 -95.5 -153.5t-204.5 -60.5zM996 1685q52 0 87 28t42 75q8 47 -17 75t-77 28t-87 -28t-43 -75q-7 -47 18 -75t77 -28z" />
    <glyph glyph-name="AE" unicode="&#xc6;" horiz-adv-x="2164" 
d="M-47 0l829 1490h1432l-54 -326h-670l-43 -256h614l-54 -326h-614l-42 -256h666l-54 -326h-1070l47 286h-390l-151 -286h-446zM710 588h280l82 492h-102z" />
    <glyph glyph-name="Ccedilla" unicode="&#xc7;" horiz-adv-x="1532" 
d="M714 -20q-184 0 -324.5 71t-219.5 208t-79 335q0 187 58.5 352.5t168.5 292.5t264 199t344 72q187 0 327 -65t213.5 -191t62.5 -308h-410q4 95 -45 153.5t-153 58.5q-107 0 -186 -51t-130.5 -134.5t-77 -182.5t-25.5 -195q0 -263 239 -263q119 0 201 58.5t113 153.5h410
q-23 -95 -83.5 -194t-155.5 -183t-223.5 -135.5t-288.5 -51.5zM477 -412l21 131h135q80 0 90 58q10 57 -70 57h-100l77 212h133l-7 -40l-26 -90q95 12 144 -31t36 -121q-16 -96 -80.5 -136t-194.5 -40h-158z" />
    <glyph glyph-name="Egrave" unicode="&#xc8;" horiz-adv-x="1274" 
d="M3 0l247 1490h1074l-54 -326h-670l-42 -252h614l-53 -318h-614l-44 -268h666l-54 -326h-1070zM680 1628l-164 326h344l84 -326h-264z" />
    <glyph glyph-name="Eacute" unicode="&#xc9;" horiz-adv-x="1274" 
d="M3 0l247 1490h1074l-54 -326h-670l-42 -252h614l-53 -318h-614l-44 -268h666l-54 -326h-1070zM676 1628l192 326h344l-272 -326h-264z" />
    <glyph glyph-name="Ecircumflex" unicode="&#xca;" horiz-adv-x="1274" 
d="M3 0l247 1490h1074l-54 -326h-670l-42 -252h614l-53 -318h-614l-44 -268h666l-54 -326h-1070zM668 1628h-332l1 6l387 320h280l281 -320l-1 -6h-332l-115 166z" />
    <glyph glyph-name="Edieresis" unicode="&#xcb;" horiz-adv-x="1274" 
d="M3 0l247 1490h1074l-54 -326h-670l-42 -252h614l-53 -318h-614l-44 -268h666l-54 -326h-1070zM577 1619q-73 0 -116 49.5t-32 119.5q12 70 71.5 119.5t132.5 49.5t116.5 -49.5t31.5 -119.5q-11 -70 -71 -119.5t-133 -49.5zM1039 1619q-73 0 -116 49.5t-32 119.5
q12 70 71.5 119.5t132.5 49.5t116.5 -49.5t31.5 -119.5q-11 -70 -71 -119.5t-133 -49.5z" />
    <glyph glyph-name="Igrave" unicode="&#xcc;" horiz-adv-x="596" 
d="M654 1490l-247 -1490h-404l247 1490h404zM347 1628l-164 326h344l84 -326h-264z" />
    <glyph glyph-name="Iacute" unicode="&#xcd;" horiz-adv-x="596" 
d="M654 1490l-247 -1490h-404l247 1490h404zM343 1628l192 326h344l-272 -326h-264z" />
    <glyph glyph-name="Icircumflex" unicode="&#xce;" horiz-adv-x="596" 
d="M654 1490l-247 -1490h-404l247 1490h404zM335 1628h-332l1 6l387 320h280l281 -320l-1 -6h-332l-115 166z" />
    <glyph glyph-name="Idieresis" unicode="&#xcf;" horiz-adv-x="596" 
d="M654 1490l-247 -1490h-404l247 1490h404zM244 1619q-73 0 -116 49.5t-32 119.5q12 70 71.5 119.5t132.5 49.5t116.5 -49.5t31.5 -119.5q-11 -70 -71 -119.5t-133 -49.5zM706 1619q-73 0 -116 49.5t-32 119.5q12 70 71.5 119.5t132.5 49.5t116.5 -49.5t31.5 -119.5
q-11 -70 -71 -119.5t-133 -49.5z" />
    <glyph glyph-name="Eth" unicode="&#xd0;" horiz-adv-x="1599" 
d="M745 0h-622l247 1490h552q230 0 386 -89.5t223.5 -256.5t28.5 -400q-58 -349 -266.5 -546.5t-548.5 -197.5zM584 344h154q111 0 195 35t140 122.5t81 242.5q26 156 1 243.5t-98 123t-190 35.5h-150zM25 621l41 248h848l-41 -248h-848z" />
    <glyph glyph-name="Ntilde" unicode="&#xd1;" horiz-adv-x="1576" 
d="M3 0l247 1490h440l258 -585q41 -92 72.5 -185.5t56.5 -219.5q11 114 24 238t26 206l91 546h416l-247 -1490h-440l-241 544q-50 114 -82.5 211t-65.5 222q-12 -128 -24.5 -243.5t-24.5 -189.5l-90 -544h-416zM1113 1628q-57 0 -93 18t-61 42t-46.5 42t-49.5 18
q-72 0 -95 -112h-198q29 158 113 235t187 77q56 0 93 -17.5t63 -41t47.5 -41t47.5 -17.5q42 0 64 29.5t32 81.5h196q-28 -154 -113 -234t-187 -80z" />
    <glyph glyph-name="Ograve" unicode="&#xd2;" horiz-adv-x="1590" 
d="M720 -20q-184 0 -326 71.5t-222.5 209t-80.5 336.5q0 187 59 352.5t169.5 291.5t265.5 197.5t347 71.5q183 0 324.5 -71t222.5 -209t81 -338q0 -187 -59.5 -352t-170 -291t-265 -197.5t-345.5 -71.5zM737 332q109 0 187 51.5t128 136t73.5 183.5t23.5 193q0 262 -234 262
q-109 0 -187.5 -52t-128.5 -136.5t-73.5 -183t-23.5 -192.5q0 -262 235 -262zM842 1628l-164 326h344l84 -326h-264z" />
    <glyph glyph-name="Oacute" unicode="&#xd3;" horiz-adv-x="1590" 
d="M720 -20q-184 0 -326 71.5t-222.5 209t-80.5 336.5q0 187 59 352.5t169.5 291.5t265.5 197.5t347 71.5q183 0 324.5 -71t222.5 -209t81 -338q0 -187 -59.5 -352t-170 -291t-265 -197.5t-345.5 -71.5zM737 332q109 0 187 51.5t128 136t73.5 183.5t23.5 193q0 262 -234 262
q-109 0 -187.5 -52t-128.5 -136.5t-73.5 -183t-23.5 -192.5q0 -262 235 -262zM838 1628l192 326h344l-272 -326h-264z" />
    <glyph glyph-name="Ocircumflex" unicode="&#xd4;" horiz-adv-x="1590" 
d="M720 -20q-184 0 -326 71.5t-222.5 209t-80.5 336.5q0 187 59 352.5t169.5 291.5t265.5 197.5t347 71.5q183 0 324.5 -71t222.5 -209t81 -338q0 -187 -59.5 -352t-170 -291t-265 -197.5t-345.5 -71.5zM737 332q109 0 187 51.5t128 136t73.5 183.5t23.5 193q0 262 -234 262
q-109 0 -187.5 -52t-128.5 -136.5t-73.5 -183t-23.5 -192.5q0 -262 235 -262zM830 1628h-332l1 6l387 320h280l281 -320l-1 -6h-332l-115 166z" />
    <glyph glyph-name="Otilde" unicode="&#xd5;" horiz-adv-x="1590" 
d="M720 -20q-184 0 -326 71.5t-222.5 209t-80.5 336.5q0 187 59 352.5t169.5 291.5t265.5 197.5t347 71.5q183 0 324.5 -71t222.5 -209t81 -338q0 -187 -59.5 -352t-170 -291t-265 -197.5t-345.5 -71.5zM737 332q109 0 187 51.5t128 136t73.5 183.5t23.5 193q0 262 -234 262
q-109 0 -187.5 -52t-128.5 -136.5t-73.5 -183t-23.5 -192.5q0 -262 235 -262zM1120 1628q-57 0 -93 18t-61 42t-46.5 42t-49.5 18q-72 0 -95 -112h-198q29 158 113 235t187 77q56 0 93 -17.5t63 -41t47.5 -41t47.5 -17.5q42 0 64 29.5t32 81.5h196q-28 -154 -113 -234
t-187 -80z" />
    <glyph glyph-name="Odieresis" unicode="&#xd6;" horiz-adv-x="1590" 
d="M720 -20q-184 0 -326 71.5t-222.5 209t-80.5 336.5q0 187 59 352.5t169.5 291.5t265.5 197.5t347 71.5q183 0 324.5 -71t222.5 -209t81 -338q0 -187 -59.5 -352t-170 -291t-265 -197.5t-345.5 -71.5zM737 332q109 0 187 51.5t128 136t73.5 183.5t23.5 193q0 262 -234 262
q-109 0 -187.5 -52t-128.5 -136.5t-73.5 -183t-23.5 -192.5q0 -262 235 -262zM739 1619q-73 0 -116 49.5t-32 119.5q12 70 71.5 119.5t132.5 49.5t116.5 -49.5t31.5 -119.5q-11 -70 -71 -119.5t-133 -49.5zM1201 1619q-73 0 -116 49.5t-32 119.5q12 70 71.5 119.5
t132.5 49.5t116.5 -49.5t31.5 -119.5q-11 -70 -71 -119.5t-133 -49.5z" />
    <glyph glyph-name="multiply" unicode="&#xd7;" horiz-adv-x="1420" 
d="M952 32l-275 328l-383 -328l-204 244l382 328l-274 326l284 248l275 -329l383 329l204 -248l-382 -326l274 -328z" />
    <glyph glyph-name="Oslash" unicode="&#xd8;" horiz-adv-x="1590" 
d="M720 -20q-184 0 -326 71.5t-222.5 209t-80.5 336.5q0 187 59 352.5t169.5 291.5t265.5 197.5t347 71.5q183 0 324.5 -71t222.5 -209t81 -338q0 -187 -59.5 -352t-170 -291t-265 -197.5t-345.5 -71.5zM737 332q109 0 187 51.5t128 136t73.5 183.5t23.5 193q0 262 -234 262
q-109 0 -187.5 -52t-128.5 -136.5t-73.5 -183t-23.5 -192.5q0 -262 235 -262zM227 -78l-144 110l1342 1534l144 -112z" />
    <glyph glyph-name="Ugrave" unicode="&#xd9;" horiz-adv-x="1478" 
d="M663 -18q-197 0 -335 70.5t-200 198.5t-34 298l156 941h404l-154 -933q-17 -104 33.5 -164.5t146.5 -60.5q75 0 139.5 34t108 91t54.5 126l150 907h404l-160 -967q-28 -170 -126 -291.5t-249 -185.5t-338 -64zM785 1628l-164 326h344l84 -326h-264z" />
    <glyph glyph-name="Uacute" unicode="&#xda;" horiz-adv-x="1478" 
d="M663 -18q-197 0 -335 70.5t-200 198.5t-34 298l156 941h404l-154 -933q-17 -104 33.5 -164.5t146.5 -60.5q75 0 139.5 34t108 91t54.5 126l150 907h404l-160 -967q-28 -170 -126 -291.5t-249 -185.5t-338 -64zM781 1628l192 326h344l-272 -326h-264z" />
    <glyph glyph-name="Ucircumflex" unicode="&#xdb;" horiz-adv-x="1478" 
d="M663 -18q-197 0 -335 70.5t-200 198.5t-34 298l156 941h404l-154 -933q-17 -104 33.5 -164.5t146.5 -60.5q75 0 139.5 34t108 91t54.5 126l150 907h404l-160 -967q-28 -170 -126 -291.5t-249 -185.5t-338 -64zM773 1628h-332l1 6l387 320h280l281 -320l-1 -6h-332
l-115 166z" />
    <glyph glyph-name="Udieresis" unicode="&#xdc;" horiz-adv-x="1478" 
d="M663 -18q-197 0 -335 70.5t-200 198.5t-34 298l156 941h404l-154 -933q-17 -104 33.5 -164.5t146.5 -60.5q75 0 139.5 34t108 91t54.5 126l150 907h404l-160 -967q-28 -170 -126 -291.5t-249 -185.5t-338 -64zM682 1619q-73 0 -116 49.5t-32 119.5q12 70 71.5 119.5
t132.5 49.5t116.5 -49.5t31.5 -119.5q-11 -70 -71 -119.5t-133 -49.5zM1144 1619q-73 0 -116 49.5t-32 119.5q12 70 71.5 119.5t132.5 49.5t116.5 -49.5t31.5 -119.5q-11 -70 -71 -119.5t-133 -49.5z" />
    <glyph glyph-name="Yacute" unicode="&#xdd;" horiz-adv-x="1588" 
d="M508 0l86 518l-394 972h459l140 -450q13 -41 22.5 -83t17.5 -89q44 93 92 172l276 450h489l-700 -972l-86 -518h-402zM837 1628l192 326h344l-272 -326h-264z" />
    <glyph glyph-name="Thorn" unicode="&#xde;" horiz-adv-x="1428" 
d="M254 1490h404l-42 -250h172q194 0 317.5 -61t175.5 -167.5t29 -245.5q-23 -140 -110.5 -246.5t-231 -166t-336.5 -59.5h-173l-49 -294h-404zM508 590h172q81 1 131.5 27.5t77 66t33.5 78.5q6 41 -7 82t-54.5 68.5t-122.5 27.5h-172z" />
    <glyph glyph-name="germandbls" unicode="&#xdf;" horiz-adv-x="1418" 
d="M3 0l181 1088q22 132 106.5 226.5t220.5 145t310 50.5q159 0 287 -45t196 -137t45 -234q-18 -107 -83.5 -186t-166.5 -102l-3 -18q146 -7 210.5 -113.5t38.5 -264.5q-23 -139 -103.5 -230t-202.5 -135.5t-270 -44.5h-220l52 314h134q86 0 143 39t68 107
q11 69 -38.5 107.5t-145.5 38.5h-106l48 292h68q58 0 100.5 39t52.5 99q11 66 -26.5 107t-117.5 41q-84 0 -139 -46t-69 -126l-168 -1012h-402z" />
    <glyph glyph-name="agrave" unicode="&#xe0;" horiz-adv-x="1322" 
d="M407 -14q-119 0 -209 62.5t-129.5 189.5t-7.5 320q34 203 118 329.5t194 185.5t221 59q124 0 192.5 -62t87.5 -148h6l32 196h400l-185 -1118h-398l30 184h-8q-49 -85 -137.5 -141.5t-206.5 -56.5zM606 294q83 0 142.5 71.5t78.5 192.5q21 125 -15 195.5t-119 70.5
q-82 0 -139.5 -70.5t-78.5 -195.5q-20 -124 14.5 -194t116.5 -70zM652 1256l-164 326h344l84 -326h-264z" />
    <glyph glyph-name="aacute" unicode="&#xe1;" horiz-adv-x="1322" 
d="M407 -14q-119 0 -209 62.5t-129.5 189.5t-7.5 320q34 203 118 329.5t194 185.5t221 59q124 0 192.5 -62t87.5 -148h6l32 196h400l-185 -1118h-398l30 184h-8q-49 -85 -137.5 -141.5t-206.5 -56.5zM606 294q83 0 142.5 71.5t78.5 192.5q21 125 -15 195.5t-119 70.5
q-82 0 -139.5 -70.5t-78.5 -195.5q-20 -124 14.5 -194t116.5 -70zM648 1256l192 326h344l-272 -326h-264z" />
    <glyph glyph-name="acircumflex" unicode="&#xe2;" horiz-adv-x="1322" 
d="M407 -14q-119 0 -209 62.5t-129.5 189.5t-7.5 320q34 203 118 329.5t194 185.5t221 59q124 0 192.5 -62t87.5 -148h6l32 196h400l-185 -1118h-398l30 184h-8q-49 -85 -137.5 -141.5t-206.5 -56.5zM606 294q83 0 142.5 71.5t78.5 192.5q21 125 -15 195.5t-119 70.5
q-82 0 -139.5 -70.5t-78.5 -195.5q-20 -124 14.5 -194t116.5 -70zM640 1256h-332l1 6l387 320h280l281 -320l-1 -6h-332l-115 166z" />
    <glyph glyph-name="atilde" unicode="&#xe3;" horiz-adv-x="1322" 
d="M407 -14q-119 0 -209 62.5t-129.5 189.5t-7.5 320q34 203 118 329.5t194 185.5t221 59q124 0 192.5 -62t87.5 -148h6l32 196h400l-185 -1118h-398l30 184h-8q-49 -85 -137.5 -141.5t-206.5 -56.5zM606 294q83 0 142.5 71.5t78.5 192.5q21 125 -15 195.5t-119 70.5
q-82 0 -139.5 -70.5t-78.5 -195.5q-20 -124 14.5 -194t116.5 -70zM930 1256q-57 0 -93 18t-61 42t-46.5 42t-49.5 18q-72 0 -95 -112h-198q29 158 113 235t187 77q56 0 93 -17.5t63 -41t47.5 -41t47.5 -17.5q42 0 64 29.5t32 81.5h196q-28 -154 -113 -234t-187 -80z" />
    <glyph glyph-name="adieresis" unicode="&#xe4;" horiz-adv-x="1322" 
d="M407 -14q-119 0 -209 62.5t-129.5 189.5t-7.5 320q34 203 118 329.5t194 185.5t221 59q124 0 192.5 -62t87.5 -148h6l32 196h400l-185 -1118h-398l30 184h-8q-49 -85 -137.5 -141.5t-206.5 -56.5zM606 294q83 0 142.5 71.5t78.5 192.5q21 125 -15 195.5t-119 70.5
q-82 0 -139.5 -70.5t-78.5 -195.5q-20 -124 14.5 -194t116.5 -70zM549 1247q-73 0 -116 49.5t-32 119.5q12 70 71.5 119.5t132.5 49.5t116.5 -49.5t31.5 -119.5q-11 -70 -71 -119.5t-133 -49.5zM1011 1247q-73 0 -116 49.5t-32 119.5q12 70 71.5 119.5t132.5 49.5
t116.5 -49.5t31.5 -119.5q-11 -70 -71 -119.5t-133 -49.5z" />
    <glyph glyph-name="aring" unicode="&#xe5;" horiz-adv-x="1322" 
d="M407 -14q-119 0 -209 62.5t-129.5 189.5t-7.5 320q34 203 118 329.5t194 185.5t221 59q124 0 192.5 -62t87.5 -148h6l32 196h400l-185 -1118h-398l30 184h-8q-49 -85 -137.5 -141.5t-206.5 -56.5zM606 294q83 0 142.5 71.5t78.5 192.5q21 125 -15 195.5t-119 70.5
q-82 0 -139.5 -70.5t-78.5 -195.5q-20 -124 14.5 -194t116.5 -70zM772 1199q-78 0 -137 35.5t-87.5 95t-16.5 131.5q12 73 60.5 132t119 94.5t148.5 35.5q79 0 137.5 -35.5t87.5 -94.5t17 -132q-12 -72 -60.5 -131.5t-119 -95t-149.5 -35.5zM797 1346q48 0 87 33.5t47 81.5
t-20 81.5t-76 33.5t-87 -33.5t-47 -81.5t20 -81.5t76 -33.5z" />
    <glyph glyph-name="ae" unicode="&#xe6;" horiz-adv-x="1915" 
d="M401 -18q-201 0 -304 88t-78 238q26 160 152.5 256t316.5 100q66 1 131.5 3t131.5 3l14 84q8 47 -22.5 74.5t-90.5 27.5q-59 0 -103.5 -27t-61.5 -73l-356 36q52 157 208.5 248.5t371.5 91.5q220 0 310 -112q79 54 175 83t204 29q127 0 232 -40.5t167.5 -117t62.5 -185.5
q0 -128 -90.5 -197.5t-257.5 -98.5t-397 -36q-1 -15 -1 -26q0 -172 159 -172q68 0 119 27t65 74h366q-58 -174 -203.5 -279t-377.5 -105q-264 0 -402 146q-80 -67 -192 -103.5t-249 -36.5zM715 454q-40 -2 -80.5 -3.5t-80.5 -2.5q-73 -2 -109.5 -37.5t-43.5 -78.5
q-7 -47 21 -71.5t79 -24.5q68 0 130 42t75 118zM1150 672q147 3 222 11.5t101 26.5t26 48q0 92 -141 92q-87 0 -136.5 -43t-71.5 -135z" />
    <glyph glyph-name="ccedilla" unicode="&#xe7;" horiz-adv-x="1233" 
d="M565 -20q-241 0 -375 132t-134 349q0 126 40 246t121.5 216t205.5 152.5t291 56.5q154 0 266 -52.5t170 -147.5t50 -225l-379 -55q1 88 -20.5 134t-88.5 46q-70 0 -118.5 -38.5t-77.5 -99.5t-42 -128t-13 -124q0 -162 118 -162q66 0 125 47.5t87 138.5l360 -54
q-53 -199 -203 -315.5t-383 -116.5zM335 -418l21 131h135q80 0 90 58q10 57 -70 57h-100l77 212h133l-7 -40l-26 -90q95 12 144 -31t36 -121q-16 -96 -80.5 -136t-194.5 -40h-158z" />
    <glyph glyph-name="egrave" unicode="&#xe8;" horiz-adv-x="1232" 
d="M566 -24q-238 0 -376.5 121.5t-138.5 338.5q0 137 46.5 262t134 222.5t211.5 154.5t279 57q127 0 232 -40.5t167.5 -117t62.5 -185.5q0 -128 -90.5 -198t-257.5 -100t-397 -37v-28q0 -73 32 -120t126 -47q68 0 118 26t66 75l357 -26q-49 -159 -199 -258.5t-373 -99.5z
M470 672q148 2 223.5 11t101.5 26.5t26 48.5q0 92 -141 92q-89 0 -138 -53t-72 -125zM630 1256l-164 326h344l84 -326h-264z" />
    <glyph glyph-name="eacute" unicode="&#xe9;" horiz-adv-x="1232" 
d="M566 -24q-238 0 -376.5 121.5t-138.5 338.5q0 137 46.5 262t134 222.5t211.5 154.5t279 57q127 0 232 -40.5t167.5 -117t62.5 -185.5q0 -128 -90.5 -198t-257.5 -100t-397 -37v-28q0 -73 32 -120t126 -47q68 0 118 26t66 75l357 -26q-49 -159 -199 -258.5t-373 -99.5z
M470 672q148 2 223.5 11t101.5 26.5t26 48.5q0 92 -141 92q-89 0 -138 -53t-72 -125zM626 1256l192 326h344l-272 -326h-264z" />
    <glyph glyph-name="ecircumflex" unicode="&#xea;" horiz-adv-x="1232" 
d="M566 -24q-238 0 -376.5 121.5t-138.5 338.5q0 137 46.5 262t134 222.5t211.5 154.5t279 57q127 0 232 -40.5t167.5 -117t62.5 -185.5q0 -128 -90.5 -198t-257.5 -100t-397 -37v-28q0 -73 32 -120t126 -47q68 0 118 26t66 75l357 -26q-49 -159 -199 -258.5t-373 -99.5z
M470 672q148 2 223.5 11t101.5 26.5t26 48.5q0 92 -141 92q-89 0 -138 -53t-72 -125zM618 1256h-332l1 6l387 320h280l281 -320l-1 -6h-332l-115 166z" />
    <glyph glyph-name="edieresis" unicode="&#xeb;" horiz-adv-x="1232" 
d="M566 -24q-238 0 -376.5 121.5t-138.5 338.5q0 137 46.5 262t134 222.5t211.5 154.5t279 57q127 0 232 -40.5t167.5 -117t62.5 -185.5q0 -128 -90.5 -198t-257.5 -100t-397 -37v-28q0 -73 32 -120t126 -47q68 0 118 26t66 75l357 -26q-49 -159 -199 -258.5t-373 -99.5z
M470 672q148 2 223.5 11t101.5 26.5t26 48.5q0 92 -141 92q-89 0 -138 -53t-72 -125zM527 1247q-73 0 -116 49.5t-32 119.5q12 70 71.5 119.5t132.5 49.5t116.5 -49.5t31.5 -119.5q-11 -70 -71 -119.5t-133 -49.5zM989 1247q-73 0 -116 49.5t-32 119.5q12 70 71.5 119.5
t132.5 49.5t116.5 -49.5t31.5 -119.5q-11 -70 -71 -119.5t-133 -49.5z" />
    <glyph glyph-name="igrave" unicode="&#xec;" horiz-adv-x="607" 
d="M10 0l185 1118h402l-185 -1118h-402zM288 1256l-164 326h344l84 -326h-264z" />
    <glyph glyph-name="iacute" unicode="&#xed;" horiz-adv-x="607" 
d="M10 0l185 1118h402l-185 -1118h-402zM284 1256l192 326h344l-272 -326h-264z" />
    <glyph glyph-name="icircumflex" unicode="&#xee;" horiz-adv-x="607" 
d="M10 0l185 1118h402l-185 -1118h-402zM276 1256h-332l1 6l387 320h280l281 -320l-1 -6h-332l-115 166z" />
    <glyph glyph-name="idieresis" unicode="&#xef;" horiz-adv-x="607" 
d="M10 0l185 1118h402l-185 -1118h-402zM185 1247q-73 0 -116 49.5t-32 119.5q12 70 71.5 119.5t132.5 49.5t116.5 -49.5t31.5 -119.5q-11 -70 -71 -119.5t-133 -49.5zM647 1247q-73 0 -116 49.5t-32 119.5q12 70 71.5 119.5t132.5 49.5t116.5 -49.5t31.5 -119.5
q-11 -70 -71 -119.5t-133 -49.5z" />
    <glyph glyph-name="eth" unicode="&#xf0;" horiz-adv-x="1255" 
d="M1079 1394l-142 -69q151 -128 226 -314.5t36 -420.5q-30 -182 -122 -320.5t-233 -215.5t-321 -78q-166 1 -281 67.5t-165.5 187t-23.5 281.5q23 141 98 257.5t189.5 186.5t256.5 70q85 -1 148.5 -26.5t103.5 -69.5h16q-27 78 -79.5 144.5t-119.5 119.5l-389 -188l28 164
l233 112q-51 29 -102.5 51.5t-98.5 36.5l32 194q248 -33 444 -150l294 142zM583 270q88 -1 153 70.5t87 201.5q20 122 -18.5 188.5t-133.5 67.5q-96 -1 -156 -67.5t-80 -188.5q-20 -128 20 -200.5t128 -71.5z" />
    <glyph glyph-name="ntilde" unicode="&#xf1;" horiz-adv-x="1330" 
d="M513 615l-102 -615h-402l186 1118h376l-29 -227q60 108 149 174.5t221 66.5q124 0 207 -57.5t118 -155.5t14 -220l-116 -699h-402l107 641q14 83 -23.5 124t-105.5 41q-82 0 -133 -54t-65 -137zM928 1256q-57 0 -93 18t-61 42t-46.5 42t-49.5 18q-72 0 -95 -112h-198
q29 158 113 235t187 77q56 0 93 -17.5t63 -41t47.5 -41t47.5 -17.5q42 0 64 29.5t32 81.5h196q-28 -154 -113 -234t-187 -80z" />
    <glyph glyph-name="ograve" unicode="&#xf2;" horiz-adv-x="1280" 
d="M566 -20q-247 0 -379 130t-132 345q0 136 44 258t128.5 216.5t207 148.5t280.5 54q246 0 377.5 -130t131.5 -345q0 -135 -43 -257t-127 -216.5t-206.5 -149t-281.5 -54.5zM582 280q67 0 113 42t73.5 105.5t39.5 131t12 117.5q0 77 -32.5 116.5t-88.5 39.5
q-68 0 -114.5 -41t-74 -103.5t-39.5 -129t-12 -117.5q0 -78 33.5 -119.5t89.5 -41.5zM626 1256l-164 326h344l84 -326h-264z" />
    <glyph glyph-name="oacute" unicode="&#xf3;" horiz-adv-x="1280" 
d="M566 -20q-247 0 -379 130t-132 345q0 136 44 258t128.5 216.5t207 148.5t280.5 54q246 0 377.5 -130t131.5 -345q0 -135 -43 -257t-127 -216.5t-206.5 -149t-281.5 -54.5zM582 280q67 0 113 42t73.5 105.5t39.5 131t12 117.5q0 77 -32.5 116.5t-88.5 39.5
q-68 0 -114.5 -41t-74 -103.5t-39.5 -129t-12 -117.5q0 -78 33.5 -119.5t89.5 -41.5zM622 1256l192 326h344l-272 -326h-264z" />
    <glyph glyph-name="ocircumflex" unicode="&#xf4;" horiz-adv-x="1280" 
d="M566 -20q-247 0 -379 130t-132 345q0 136 44 258t128.5 216.5t207 148.5t280.5 54q246 0 377.5 -130t131.5 -345q0 -135 -43 -257t-127 -216.5t-206.5 -149t-281.5 -54.5zM582 280q67 0 113 42t73.5 105.5t39.5 131t12 117.5q0 77 -32.5 116.5t-88.5 39.5
q-68 0 -114.5 -41t-74 -103.5t-39.5 -129t-12 -117.5q0 -78 33.5 -119.5t89.5 -41.5zM614 1256h-332l1 6l387 320h280l281 -320l-1 -6h-332l-115 166z" />
    <glyph glyph-name="otilde" unicode="&#xf5;" horiz-adv-x="1280" 
d="M566 -20q-247 0 -379 130t-132 345q0 136 44 258t128.5 216.5t207 148.5t280.5 54q246 0 377.5 -130t131.5 -345q0 -135 -43 -257t-127 -216.5t-206.5 -149t-281.5 -54.5zM582 280q67 0 113 42t73.5 105.5t39.5 131t12 117.5q0 77 -32.5 116.5t-88.5 39.5
q-68 0 -114.5 -41t-74 -103.5t-39.5 -129t-12 -117.5q0 -78 33.5 -119.5t89.5 -41.5zM904 1256q-57 0 -93 18t-61 42t-46.5 42t-49.5 18q-72 0 -95 -112h-198q29 158 113 235t187 77q56 0 93 -17.5t63 -41t47.5 -41t47.5 -17.5q42 0 64 29.5t32 81.5h196q-28 -154 -113 -234
t-187 -80z" />
    <glyph glyph-name="odieresis" unicode="&#xf6;" horiz-adv-x="1280" 
d="M566 -20q-247 0 -379 130t-132 345q0 136 44 258t128.5 216.5t207 148.5t280.5 54q246 0 377.5 -130t131.5 -345q0 -135 -43 -257t-127 -216.5t-206.5 -149t-281.5 -54.5zM582 280q67 0 113 42t73.5 105.5t39.5 131t12 117.5q0 77 -32.5 116.5t-88.5 39.5
q-68 0 -114.5 -41t-74 -103.5t-39.5 -129t-12 -117.5q0 -78 33.5 -119.5t89.5 -41.5zM523 1247q-73 0 -116 49.5t-32 119.5q12 70 71.5 119.5t132.5 49.5t116.5 -49.5t31.5 -119.5q-11 -70 -71 -119.5t-133 -49.5zM985 1247q-73 0 -116 49.5t-32 119.5q12 70 71.5 119.5
t132.5 49.5t116.5 -49.5t31.5 -119.5q-11 -70 -71 -119.5t-133 -49.5z" />
    <glyph glyph-name="divide" unicode="&#xf7;" horiz-adv-x="1420" 
d="M1280 756l-50 -302h-1076l50 302h1076zM776 824q-62 0 -109 31t-70 83.5t-13 115.5q14 76 77 127.5t139 52.5q94 -1 147 -67t39 -161q-10 -76 -71.5 -129.5t-138.5 -52.5zM634 -24q-94 1 -149 68.5t-39 161.5q13 77 75.5 129t138.5 51q94 1 148.5 -65.5t37.5 -160.5
q-13 -76 -74 -129.5t-138 -54.5z" />
    <glyph glyph-name="oslash" unicode="&#xf8;" horiz-adv-x="1280" 
d="M566 -20q-247 0 -379 130t-132 345q0 136 44 258t128.5 216.5t207 148.5t280.5 54q246 0 377.5 -130t131.5 -345q0 -135 -43 -257t-127 -216.5t-206.5 -149t-281.5 -54.5zM582 280q67 0 113 42t73.5 105.5t39.5 131t12 117.5q0 77 -32.5 116.5t-88.5 39.5
q-68 0 -114.5 -41t-74 -103.5t-39.5 -129t-12 -117.5q0 -78 33.5 -119.5t89.5 -41.5zM84 -47l-88 94l1200 1118l88 -94z" />
    <glyph glyph-name="ugrave" unicode="&#xf9;" horiz-adv-x="1331" 
d="M398 -14q-118 0 -197 54t-111.5 149t-12.5 217l118 712h402l-104 -628q-13 -83 21 -130.5t110 -47.5q74 0 126 47.5t65 130.5l104 628h402l-185 -1118h-377l34 253q-60 -115 -156 -191t-239 -76zM652 1256l-164 326h344l84 -326h-264z" />
    <glyph glyph-name="uacute" unicode="&#xfa;" horiz-adv-x="1331" 
d="M398 -14q-118 0 -197 54t-111.5 149t-12.5 217l118 712h402l-104 -628q-13 -83 21 -130.5t110 -47.5q74 0 126 47.5t65 130.5l104 628h402l-185 -1118h-377l34 253q-60 -115 -156 -191t-239 -76zM648 1256l192 326h344l-272 -326h-264z" />
    <glyph glyph-name="ucircumflex" unicode="&#xfb;" horiz-adv-x="1331" 
d="M398 -14q-118 0 -197 54t-111.5 149t-12.5 217l118 712h402l-104 -628q-13 -83 21 -130.5t110 -47.5q74 0 126 47.5t65 130.5l104 628h402l-185 -1118h-377l34 253q-60 -115 -156 -191t-239 -76zM640 1256h-332l1 6l387 320h280l281 -320l-1 -6h-332l-115 166z" />
    <glyph glyph-name="udieresis" unicode="&#xfc;" horiz-adv-x="1331" 
d="M398 -14q-118 0 -197 54t-111.5 149t-12.5 217l118 712h402l-104 -628q-13 -83 21 -130.5t110 -47.5q74 0 126 47.5t65 130.5l104 628h402l-185 -1118h-377l34 253q-60 -115 -156 -191t-239 -76zM549 1247q-73 0 -116 49.5t-32 119.5q12 70 71.5 119.5t132.5 49.5
t116.5 -49.5t31.5 -119.5q-11 -70 -71 -119.5t-133 -49.5zM1011 1247q-73 0 -116 49.5t-32 119.5q12 70 71.5 119.5t132.5 49.5t116.5 -49.5t31.5 -119.5q-11 -70 -71 -119.5t-133 -49.5z" />
    <glyph glyph-name="yacute" unicode="&#xfd;" horiz-adv-x="1302" 
d="M-53 -388l135 286l50 -14q94 -26 156 2.5t52 80.5l-6 32l-229 1119h414l61 -510q8 -71 9.5 -142.5t1.5 -147.5q29 77 59.5 148t64.5 142l244 510h424l-663 -1220q-49 -91 -119 -164.5t-170 -116.5t-241 -43q-69 0 -134 10t-109 28zM637 1256l192 326h344l-272 -326h-264z
" />
    <glyph glyph-name="thorn" unicode="&#xfe;" horiz-adv-x="1321" 
d="M725 -14q-118 0 -187.5 56.5t-89.5 141.5h-6l-100 -602h-402l316 1908h402l-94 -568h6q47 86 136 148t213 62q111 0 201 -59t132 -185.5t8 -329.5q-32 -193 -113.5 -320t-191.5 -189.5t-230 -62.5zM628 294q83 0 140.5 70t77.5 194q20 125 -13.5 195.5t-116.5 70.5
q-82 0 -142 -70.5t-80 -195.5q-20 -121 16 -192.5t118 -71.5z" />
    <glyph glyph-name="ydieresis" unicode="&#xff;" horiz-adv-x="1302" 
d="M-53 -388l135 286l50 -14q94 -26 156 2.5t52 80.5l-6 32l-229 1119h414l61 -510q8 -71 9.5 -142.5t1.5 -147.5q29 77 59.5 148t64.5 142l244 510h424l-663 -1220q-49 -91 -119 -164.5t-170 -116.5t-241 -43q-69 0 -134 10t-109 28zM538 1247q-73 0 -116 49.5t-32 119.5
q12 70 71.5 119.5t132.5 49.5t116.5 -49.5t31.5 -119.5q-11 -70 -71 -119.5t-133 -49.5zM1000 1247q-73 0 -116 49.5t-32 119.5q12 70 71.5 119.5t132.5 49.5t116.5 -49.5t31.5 -119.5q-11 -70 -71 -119.5t-133 -49.5z" />
    <glyph glyph-name="Amacron" unicode="&#x100;" horiz-adv-x="1628" 
d="M-47 0l730 1490h552l254 -1490h-442l-38 286h-459l-129 -286h-468zM686 588h283q-18 137 -30.5 281t-22.5 290q-55 -146 -111.5 -290t-118.5 -281zM1333 1904l-39 -232h-600l39 232h600z" />
    <glyph glyph-name="amacron" unicode="&#x101;" horiz-adv-x="1322" 
d="M407 -14q-119 0 -209 62.5t-129.5 189.5t-7.5 320q34 203 118 329.5t194 185.5t221 59q124 0 192.5 -62t87.5 -148h6l32 196h400l-185 -1118h-398l30 184h-8q-49 -85 -137.5 -141.5t-206.5 -56.5zM606 294q83 0 142.5 71.5t78.5 192.5q21 125 -15 195.5t-119 70.5
q-82 0 -139.5 -70.5t-78.5 -195.5q-20 -124 14.5 -194t116.5 -70zM1128 1532l-39 -232h-600l39 232h600z" />
    <glyph glyph-name="Abreve" unicode="&#x102;" horiz-adv-x="1628" 
d="M-47 0l730 1490h552l254 -1490h-442l-38 286h-459l-129 -286h-468zM686 588h283q-18 137 -30.5 281t-22.5 290q-55 -146 -111.5 -290t-118.5 -281zM984 1612q-112 0 -193 44.5t-119.5 120.5t-23.5 169h212q-10 -58 35.5 -98.5t121.5 -40.5q75 0 133 40.5t68 98.5h214
q-15 -93 -79.5 -169t-160.5 -120.5t-208 -44.5z" />
    <glyph glyph-name="abreve" unicode="&#x103;" horiz-adv-x="1322" 
d="M407 -14q-119 0 -209 62.5t-129.5 189.5t-7.5 320q34 203 118 329.5t194 185.5t221 59q124 0 192.5 -62t87.5 -148h6l32 196h400l-185 -1118h-398l30 184h-8q-49 -85 -137.5 -141.5t-206.5 -56.5zM606 294q83 0 142.5 71.5t78.5 192.5q21 125 -15 195.5t-119 70.5
q-82 0 -139.5 -70.5t-78.5 -195.5q-20 -124 14.5 -194t116.5 -70zM779 1240q-112 0 -193 44.5t-119.5 120.5t-23.5 169h212q-10 -58 35.5 -98.5t121.5 -40.5q75 0 133 40.5t68 98.5h214q-15 -93 -79.5 -169t-160.5 -120.5t-208 -44.5z" />
    <glyph glyph-name="Aogonek" unicode="&#x104;" horiz-adv-x="1628" 
d="M-47 0l730 1490h552l254 -1490h-442l-38 286h-459l-129 -286h-468zM686 588h283q-18 137 -30.5 281t-22.5 290q-55 -146 -111.5 -290t-118.5 -281zM1201 -426q-133 0 -211.5 64t-61.5 170q11 62 50 117t90 91l421 -16q-95 -28 -135.5 -64.5t-48.5 -80.5q-11 -69 52 -69
q32 0 67 19l39 -180q-46 -24 -123 -37.5t-139 -13.5z" />
    <glyph glyph-name="aogonek" unicode="&#x105;" horiz-adv-x="1322" 
d="M407 -14q-119 0 -209 62.5t-129.5 189.5t-7.5 320q34 203 118 329.5t194 185.5t221 59q124 0 192.5 -62t87.5 -148h6l32 196h400l-185 -1118h-398l30 184h-8q-49 -85 -137.5 -141.5t-206.5 -56.5zM606 294q83 0 142.5 71.5t78.5 192.5q21 125 -15 195.5t-119 70.5
q-82 0 -139.5 -70.5t-78.5 -195.5q-20 -124 14.5 -194t116.5 -70zM855 -426q-133 0 -200.5 60t-49.5 166q11 68 52 123.5t97 92.5l373 -16q-95 -28 -136 -64.5t-48 -80.5q-11 -69 52 -69q32 0 67 19l39 -180q-46 -24 -115 -37.5t-131 -13.5z" />
    <glyph glyph-name="Cacute" unicode="&#x106;" horiz-adv-x="1532" 
d="M714 -20q-184 0 -324.5 71t-219.5 208t-79 335q0 187 58.5 352.5t168.5 292.5t264 199t344 72q187 0 327 -65t213.5 -191t62.5 -308h-410q4 95 -45 153.5t-153 58.5q-107 0 -186 -51t-130.5 -134.5t-77 -182.5t-25.5 -195q0 -263 239 -263q119 0 201 58.5t113 153.5h410
q-23 -95 -83.5 -194t-155.5 -183t-223.5 -135.5t-288.5 -51.5zM832 1628l192 326h344l-272 -326h-264z" />
    <glyph glyph-name="cacute" unicode="&#x107;" horiz-adv-x="1233" 
d="M565 -20q-241 0 -375 132t-134 349q0 126 40 246t121.5 216t205.5 152.5t291 56.5q154 0 266 -52.5t170 -147.5t50 -225l-379 -55q1 88 -20.5 134t-88.5 46q-70 0 -118.5 -38.5t-77.5 -99.5t-42 -128t-13 -124q0 -162 118 -162q66 0 125 47.5t87 138.5l360 -54
q-53 -199 -203 -315.5t-383 -116.5zM622 1256l192 326h344l-272 -326h-264z" />
    <glyph glyph-name="Ccircumflex" unicode="&#x108;" horiz-adv-x="1532" 
d="M714 -20q-184 0 -324.5 71t-219.5 208t-79 335q0 187 58.5 352.5t168.5 292.5t264 199t344 72q187 0 327 -65t213.5 -191t62.5 -308h-410q4 95 -45 153.5t-153 58.5q-107 0 -186 -51t-130.5 -134.5t-77 -182.5t-25.5 -195q0 -263 239 -263q119 0 201 58.5t113 153.5h410
q-23 -95 -83.5 -194t-155.5 -183t-223.5 -135.5t-288.5 -51.5zM824 1628h-332l1 6l387 320h280l281 -320l-1 -6h-332l-115 166z" />
    <glyph glyph-name="ccircumflex" unicode="&#x109;" horiz-adv-x="1233" 
d="M565 -20q-241 0 -375 132t-134 349q0 126 40 246t121.5 216t205.5 152.5t291 56.5q154 0 266 -52.5t170 -147.5t50 -225l-379 -55q1 88 -20.5 134t-88.5 46q-70 0 -118.5 -38.5t-77.5 -99.5t-42 -128t-13 -124q0 -162 118 -162q66 0 125 47.5t87 138.5l360 -54
q-53 -199 -203 -315.5t-383 -116.5zM614 1256h-332l1 6l387 320h280l281 -320l-1 -6h-332l-115 166z" />
    <glyph glyph-name="Cdotaccent" unicode="&#x10a;" horiz-adv-x="1532" 
d="M714 -20q-184 0 -324.5 71t-219.5 208t-79 335q0 187 58.5 352.5t168.5 292.5t264 199t344 72q187 0 327 -65t213.5 -191t62.5 -308h-410q4 95 -45 153.5t-153 58.5q-107 0 -186 -51t-130.5 -134.5t-77 -182.5t-25.5 -195q0 -263 239 -263q119 0 201 58.5t113 153.5h410
q-23 -95 -83.5 -194t-155.5 -183t-223.5 -135.5t-288.5 -51.5zM962 1604q-82 0 -131 54t-37 130q13 77 80 130.5t149 53.5t131 -53.5t36 -130.5q-12 -76 -79 -130t-149 -54z" />
    <glyph glyph-name="cdotaccent" unicode="&#x10b;" horiz-adv-x="1233" 
d="M565 -20q-241 0 -375 132t-134 349q0 126 40 246t121.5 216t205.5 152.5t291 56.5q154 0 266 -52.5t170 -147.5t50 -225l-379 -55q1 88 -20.5 134t-88.5 46q-70 0 -118.5 -38.5t-77.5 -99.5t-42 -128t-13 -124q0 -162 118 -162q66 0 125 47.5t87 138.5l360 -54
q-53 -199 -203 -315.5t-383 -116.5zM752 1232q-82 0 -131 54t-37 130q13 77 80 130.5t149 53.5t131 -53.5t36 -130.5q-12 -76 -79 -130t-149 -54z" />
    <glyph glyph-name="Ccaron" unicode="&#x10c;" horiz-adv-x="1532" 
d="M714 -20q-184 0 -324.5 71t-219.5 208t-79 335q0 187 58.5 352.5t168.5 292.5t264 199t344 72q187 0 327 -65t213.5 -191t62.5 -308h-410q4 95 -45 153.5t-153 58.5q-107 0 -186 -51t-130.5 -134.5t-77 -182.5t-25.5 -195q0 -263 239 -263q119 0 201 58.5t113 153.5h410
q-23 -95 -83.5 -194t-155.5 -183t-223.5 -135.5t-288.5 -51.5zM878 1954l114 -166l170 166h332l-1 -6l-387 -320h-280l-281 320l1 6h332z" />
    <glyph glyph-name="ccaron" unicode="&#x10d;" horiz-adv-x="1233" 
d="M565 -20q-241 0 -375 132t-134 349q0 126 40 246t121.5 216t205.5 152.5t291 56.5q154 0 266 -52.5t170 -147.5t50 -225l-379 -55q1 88 -20.5 134t-88.5 46q-70 0 -118.5 -38.5t-77.5 -99.5t-42 -128t-13 -124q0 -162 118 -162q66 0 125 47.5t87 138.5l360 -54
q-53 -199 -203 -315.5t-383 -116.5zM668 1582l114 -166l170 166h332l-1 -6l-387 -320h-280l-281 320l1 6h332z" />
    <glyph glyph-name="Dcaron" unicode="&#x10e;" horiz-adv-x="1479" 
d="M625 0h-622l247 1490h552q230 0 386 -89.5t223.5 -256.5t28.5 -400q-58 -349 -266.5 -546.5t-548.5 -197.5zM464 344h154q111 0 195 35t140 122.5t81 242.5q26 156 1 243.5t-98 123t-190 35.5h-150zM683 1954l114 -166l170 166h332l-1 -6l-387 -320h-280l-281 320l1 6
h332z" />
    <glyph glyph-name="dcaron" unicode="&#x10f;" horiz-adv-x="1588" 
d="M428 -14q-160 0 -268 110t-108 330q0 127 33.5 252t99.5 228t163 164.5t224 61.5q133 0 204.5 -68t89.5 -154h10l96 580h402l-247 -1490h-398l34 184h-13q-49 -95 -130.5 -146.5t-191.5 -51.5zM586 294q83 0 139 59t85 145t29 165q0 161 -125 161q-63 0 -110 -35.5
t-78 -92.5t-46.5 -122t-15.5 -124q0 -156 122 -156zM1442 1182l64 388h270l-118 -388h-216z" />
    <glyph glyph-name="Dcroat" unicode="&#x110;" horiz-adv-x="1599" 
d="M745 0h-622l247 1490h552q230 0 386 -89.5t223.5 -256.5t28.5 -400q-58 -349 -266.5 -546.5t-548.5 -197.5zM584 344h154q111 0 195 35t140 122.5t81 242.5q26 156 1 243.5t-98 123t-190 35.5h-150zM25 621l41 248h848l-41 -248h-848z" />
    <glyph glyph-name="dcroat" unicode="&#x111;" horiz-adv-x="1322" 
d="M428 -14q-160 0 -268 110t-108 330q0 127 33.5 252t99.5 228t163 164.5t224 61.5q133 0 204.5 -68t89.5 -154h10l96 580h402l-247 -1490h-398l34 184h-13q-49 -95 -130.5 -146.5t-191.5 -51.5zM586 294q83 0 139 59t85 145t29 165q0 161 -125 161q-63 0 -110 -35.5
t-78 -92.5t-46.5 -122t-15.5 -124q0 -156 122 -156zM651 1196l36 216h782l-36 -216h-782z" />
    <glyph glyph-name="Emacron" unicode="&#x112;" horiz-adv-x="1274" 
d="M3 0l247 1490h1074l-54 -326h-670l-42 -252h614l-53 -318h-614l-44 -268h666l-54 -326h-1070zM1156 1904l-39 -232h-600l39 232h600z" />
    <glyph glyph-name="emacron" unicode="&#x113;" horiz-adv-x="1232" 
d="M566 -24q-238 0 -376.5 121.5t-138.5 338.5q0 137 46.5 262t134 222.5t211.5 154.5t279 57q127 0 232 -40.5t167.5 -117t62.5 -185.5q0 -128 -90.5 -198t-257.5 -100t-397 -37v-28q0 -73 32 -120t126 -47q68 0 118 26t66 75l357 -26q-49 -159 -199 -258.5t-373 -99.5z
M470 672q148 2 223.5 11t101.5 26.5t26 48.5q0 92 -141 92q-89 0 -138 -53t-72 -125zM1106 1532l-39 -232h-600l39 232h600z" />
    <glyph glyph-name="Ebreve" unicode="&#x114;" horiz-adv-x="1274" 
d="M3 0l247 1490h1074l-54 -326h-670l-42 -252h614l-53 -318h-614l-44 -268h666l-54 -326h-1070zM807 1612q-112 0 -193 44.5t-119.5 120.5t-23.5 169h212q-10 -58 35.5 -98.5t121.5 -40.5q75 0 133 40.5t68 98.5h214q-15 -93 -79.5 -169t-160.5 -120.5t-208 -44.5z" />
    <glyph glyph-name="ebreve" unicode="&#x115;" horiz-adv-x="1232" 
d="M566 -24q-238 0 -376.5 121.5t-138.5 338.5q0 137 46.5 262t134 222.5t211.5 154.5t279 57q127 0 232 -40.5t167.5 -117t62.5 -185.5q0 -128 -90.5 -198t-257.5 -100t-397 -37v-28q0 -73 32 -120t126 -47q68 0 118 26t66 75l357 -26q-49 -159 -199 -258.5t-373 -99.5z
M470 672q148 2 223.5 11t101.5 26.5t26 48.5q0 92 -141 92q-89 0 -138 -53t-72 -125zM757 1240q-112 0 -193 44.5t-119.5 120.5t-23.5 169h212q-10 -58 35.5 -98.5t121.5 -40.5q75 0 133 40.5t68 98.5h214q-15 -93 -79.5 -169t-160.5 -120.5t-208 -44.5z" />
    <glyph glyph-name="Edotaccent" unicode="&#x116;" horiz-adv-x="1274" 
d="M3 0l247 1490h1074l-54 -326h-670l-42 -252h614l-53 -318h-614l-44 -268h666l-54 -326h-1070zM806 1604q-82 0 -131 54t-37 130q13 77 80 130.5t149 53.5t131 -53.5t36 -130.5q-12 -76 -79 -130t-149 -54z" />
    <glyph glyph-name="edotaccent" unicode="&#x117;" horiz-adv-x="1232" 
d="M566 -24q-238 0 -376.5 121.5t-138.5 338.5q0 137 46.5 262t134 222.5t211.5 154.5t279 57q127 0 232 -40.5t167.5 -117t62.5 -185.5q0 -128 -90.5 -198t-257.5 -100t-397 -37v-28q0 -73 32 -120t126 -47q68 0 118 26t66 75l357 -26q-49 -159 -199 -258.5t-373 -99.5z
M470 672q148 2 223.5 11t101.5 26.5t26 48.5q0 92 -141 92q-89 0 -138 -53t-72 -125zM756 1232q-82 0 -131 54t-37 130q13 77 80 130.5t149 53.5t131 -53.5t36 -130.5q-12 -76 -79 -130t-149 -54z" />
    <glyph glyph-name="Eogonek" unicode="&#x118;" horiz-adv-x="1274" 
d="M3 0l247 1490h1074l-54 -326h-670l-42 -252h614l-53 -318h-614l-44 -268h666l-54 -326h-1070zM801 -426q-133 0 -200.5 60t-49.5 166q11 70 53 130t97 97l372 -27q-95 -28 -136 -64.5t-48 -80.5q-11 -69 52 -69q32 0 67 19l39 -180q-46 -24 -115 -37.5t-131 -13.5z" />
    <glyph glyph-name="eogonek" unicode="&#x119;" horiz-adv-x="1232" 
d="M566 -24q-238 0 -376.5 121.5t-138.5 338.5q0 137 46.5 262t134 222.5t211.5 154.5t279 57q127 0 232 -40.5t167.5 -117t62.5 -185.5q0 -128 -90.5 -198t-257.5 -100t-397 -37v-28q0 -73 32 -120t126 -47q68 0 118 26t66 75l357 -26q-49 -159 -199 -258.5t-373 -99.5z
M470 672q148 2 223.5 11t101.5 26.5t26 48.5q0 92 -141 92q-89 0 -138 -53t-72 -125zM767 -426q-133 0 -200.5 60t-49.5 166q11 68 51 121t100 107l470 306q-28 -81 -75 -142t-95 -112.5t-80.5 -105t-32.5 -119.5q0 -32 10.5 -50.5t41.5 -18.5q30 0 67 19l39 -180
q-46 -24 -115 -37.5t-131 -13.5z" />
    <glyph glyph-name="Ecaron" unicode="&#x11a;" horiz-adv-x="1274" 
d="M3 0l247 1490h1074l-54 -326h-670l-42 -252h614l-53 -318h-614l-44 -268h666l-54 -326h-1070zM722 1954l114 -166l170 166h332l-1 -6l-387 -320h-280l-281 320l1 6h332z" />
    <glyph glyph-name="ecaron" unicode="&#x11b;" horiz-adv-x="1232" 
d="M566 -24q-238 0 -376.5 121.5t-138.5 338.5q0 137 46.5 262t134 222.5t211.5 154.5t279 57q127 0 232 -40.5t167.5 -117t62.5 -185.5q0 -128 -90.5 -198t-257.5 -100t-397 -37v-28q0 -73 32 -120t126 -47q68 0 118 26t66 75l357 -26q-49 -159 -199 -258.5t-373 -99.5z
M470 672q148 2 223.5 11t101.5 26.5t26 48.5q0 92 -141 92q-89 0 -138 -53t-72 -125zM672 1582l114 -166l170 166h332l-1 -6l-387 -320h-280l-281 320l1 6h332z" />
    <glyph glyph-name="Gcircumflex" unicode="&#x11c;" horiz-adv-x="1546" 
d="M726 -20q-195 0 -337.5 74.5t-220 212.5t-77.5 330q0 187 61 352.5t173.5 291.5t267.5 197.5t343 71.5q169 0 306.5 -62t215.5 -176.5t68 -273.5h-408q-6 77 -55 118.5t-136 41.5q-106 0 -185.5 -49t-132.5 -130.5t-79.5 -180t-26.5 -198.5q0 -129 60 -198.5t184 -69.5
q138 0 223 59.5t108 152.5h-269l47 288h660l-36 -219q-33 -204 -140 -345t-265.5 -214.5t-348.5 -73.5zM822 1628h-332l1 6l387 320h280l281 -320l-1 -6h-332l-115 166z" />
    <glyph glyph-name="gcircumflex" unicode="&#x11d;" horiz-adv-x="1327" 
d="M492 -442q-237 0 -370 91.5t-133 235.5l354 26q2 -45 41.5 -64t108.5 -19q106 0 168 49.5t78 137.5l33 177h-38q-46 -85 -120.5 -131.5t-180.5 -46.5t-192.5 44t-137 136t-50.5 236q0 127 34 251.5t100.5 226.5t164 163t223.5 61q132 0 207 -68t94 -154h9l35 208h398
l-181 -1089q-39 -236 -213.5 -353.5t-431.5 -117.5zM588 300q85 0 140.5 58t83.5 142.5t28 162.5q0 161 -125 161q-62 0 -109 -35.5t-78.5 -91.5t-47 -120.5t-15.5 -123.5q0 -153 123 -153zM626 1256h-332l1 6l387 320h280l281 -320l-1 -6h-332l-115 166z" />
    <glyph glyph-name="Gbreve" unicode="&#x11e;" horiz-adv-x="1546" 
d="M726 -20q-195 0 -337.5 74.5t-220 212.5t-77.5 330q0 187 61 352.5t173.5 291.5t267.5 197.5t343 71.5q169 0 306.5 -62t215.5 -176.5t68 -273.5h-408q-6 77 -55 118.5t-136 41.5q-106 0 -185.5 -49t-132.5 -130.5t-79.5 -180t-26.5 -198.5q0 -129 60 -198.5t184 -69.5
q138 0 223 59.5t108 152.5h-269l47 288h660l-36 -219q-33 -204 -140 -345t-265.5 -214.5t-348.5 -73.5zM961 1612q-112 0 -193 44.5t-119.5 120.5t-23.5 169h212q-10 -58 35.5 -98.5t121.5 -40.5q75 0 133 40.5t68 98.5h214q-15 -93 -79.5 -169t-160.5 -120.5t-208 -44.5z
" />
    <glyph glyph-name="gbreve" unicode="&#x11f;" horiz-adv-x="1327" 
d="M492 -442q-237 0 -370 91.5t-133 235.5l354 26q2 -45 41.5 -64t108.5 -19q106 0 168 49.5t78 137.5l33 177h-38q-46 -85 -120.5 -131.5t-180.5 -46.5t-192.5 44t-137 136t-50.5 236q0 127 34 251.5t100.5 226.5t164 163t223.5 61q132 0 207 -68t94 -154h9l35 208h398
l-181 -1089q-39 -236 -213.5 -353.5t-431.5 -117.5zM588 300q85 0 140.5 58t83.5 142.5t28 162.5q0 161 -125 161q-62 0 -109 -35.5t-78.5 -91.5t-47 -120.5t-15.5 -123.5q0 -153 123 -153zM765 1240q-112 0 -193 44.5t-119.5 120.5t-23.5 169h212q-10 -58 35.5 -98.5
t121.5 -40.5q75 0 133 40.5t68 98.5h214q-15 -93 -79.5 -169t-160.5 -120.5t-208 -44.5z" />
    <glyph glyph-name="Gdotaccent" unicode="&#x120;" horiz-adv-x="1546" 
d="M726 -20q-195 0 -337.5 74.5t-220 212.5t-77.5 330q0 187 61 352.5t173.5 291.5t267.5 197.5t343 71.5q169 0 306.5 -62t215.5 -176.5t68 -273.5h-408q-6 77 -55 118.5t-136 41.5q-106 0 -185.5 -49t-132.5 -130.5t-79.5 -180t-26.5 -198.5q0 -129 60 -198.5t184 -69.5
q138 0 223 59.5t108 152.5h-269l47 288h660l-36 -219q-33 -204 -140 -345t-265.5 -214.5t-348.5 -73.5zM960 1604q-82 0 -131 54t-37 130q13 77 80 130.5t149 53.5t131 -53.5t36 -130.5q-12 -76 -79 -130t-149 -54z" />
    <glyph glyph-name="gdotaccent" unicode="&#x121;" horiz-adv-x="1327" 
d="M492 -442q-237 0 -370 91.5t-133 235.5l354 26q2 -45 41.5 -64t108.5 -19q106 0 168 49.5t78 137.5l33 177h-38q-46 -85 -120.5 -131.5t-180.5 -46.5t-192.5 44t-137 136t-50.5 236q0 127 34 251.5t100.5 226.5t164 163t223.5 61q132 0 207 -68t94 -154h9l35 208h398
l-181 -1089q-39 -236 -213.5 -353.5t-431.5 -117.5zM588 300q85 0 140.5 58t83.5 142.5t28 162.5q0 161 -125 161q-62 0 -109 -35.5t-78.5 -91.5t-47 -120.5t-15.5 -123.5q0 -153 123 -153zM764 1232q-82 0 -131 54t-37 130q13 77 80 130.5t149 53.5t131 -53.5t36 -130.5
q-12 -76 -79 -130t-149 -54z" />
    <glyph glyph-name="uni0122" unicode="&#x122;" horiz-adv-x="1546" 
d="M726 -20q-195 0 -337.5 74.5t-220 212.5t-77.5 330q0 187 61 352.5t173.5 291.5t267.5 197.5t343 71.5q169 0 306.5 -62t215.5 -176.5t68 -273.5h-408q-6 77 -55 118.5t-136 41.5q-106 0 -185.5 -49t-132.5 -130.5t-79.5 -180t-26.5 -198.5q0 -129 60 -198.5t184 -69.5
q138 0 223 59.5t108 152.5h-269l47 288h660l-36 -219q-33 -204 -140 -345t-265.5 -214.5t-348.5 -73.5zM342 -466l154 348h360l-242 -348h-272z" />
    <glyph glyph-name="uni0123" unicode="&#x123;" horiz-adv-x="1327" 
d="M492 -442q-237 0 -370 91.5t-133 235.5l354 26q2 -45 41.5 -64t108.5 -19q106 0 168 49.5t78 137.5l33 177h-38q-46 -85 -120.5 -131.5t-180.5 -46.5t-192.5 44t-137 136t-50.5 236q0 127 34 251.5t100.5 226.5t164 163t223.5 61q132 0 207 -68t94 -154h9l35 208h398
l-181 -1089q-39 -236 -213.5 -353.5t-431.5 -117.5zM588 300q85 0 140.5 58t83.5 142.5t28 162.5q0 161 -125 161q-62 0 -109 -35.5t-78.5 -91.5t-47 -120.5t-15.5 -123.5q0 -153 123 -153zM634 1230l24 146q21 129 73 212.5t131 125.5l172 -70q-25 -31 -67 -107.5
t-58 -174.5l-21 -132h-254z" />
    <glyph glyph-name="Hcircumflex" unicode="&#x124;" horiz-adv-x="1536" 
d="M3 0l247 1490h404l-94 -566h536l94 566h404l-247 -1490h-404l99 598h-536l-99 -598h-404zM803 1628h-332l1 6l387 320h280l281 -320l-1 -6h-332l-115 166z" />
    <glyph glyph-name="hcircumflex" unicode="&#x125;" horiz-adv-x="1330" 
d="M515 628l-104 -628h-402l247 1490h392l-100 -602q58 106 145 175t223 69q119 0 201.5 -54t119 -149t16.5 -217l-118 -712h-402l104 628q14 83 -20.5 130.5t-110.5 47.5q-74 0 -125.5 -47.5t-65.5 -130.5zM330 1628h-332l1 6l387 320h280l281 -320l-1 -6h-332l-115 166z
" />
    <glyph glyph-name="Hbar" unicode="&#x126;" horiz-adv-x="1707" 
d="M1768 1268l-32 -192h-127l-178 -1076h-404l99 598h-536l-99 -598h-404l178 1076h-123l32 192h123l37 222h404l-37 -222h536l37 222h404l-37 -222h127zM1205 1076h-536l-25 -152h536z" />
    <glyph glyph-name="hbar" unicode="&#x127;" horiz-adv-x="1330" 
d="M515 628l-104 -628h-402l247 1490h392l-100 -602q58 106 145 175t223 69q119 0 201.5 -54t119 -149t16.5 -217l-118 -712h-402l104 628q14 83 -20.5 130.5t-110.5 47.5q-74 0 -125.5 -47.5t-65.5 -130.5zM81 1196l36 216h782l-36 -216h-782z" />
    <glyph glyph-name="Itilde" unicode="&#x128;" horiz-adv-x="596" 
d="M654 1490l-247 -1490h-404l247 1490h404zM625 1628q-57 0 -93 18t-61 42t-46.5 42t-49.5 18q-72 0 -95 -112h-198q29 158 113 235t187 77q56 0 93 -17.5t63 -41t47.5 -41t47.5 -17.5q42 0 64 29.5t32 81.5h196q-28 -154 -113 -234t-187 -80z" />
    <glyph glyph-name="itilde" unicode="&#x129;" horiz-adv-x="607" 
d="M10 0l185 1118h402l-185 -1118h-402zM566 1256q-57 0 -93 18t-61 42t-46.5 42t-49.5 18q-72 0 -95 -112h-198q29 158 113 235t187 77q56 0 93 -17.5t63 -41t47.5 -41t47.5 -17.5q42 0 64 29.5t32 81.5h196q-28 -154 -113 -234t-187 -80z" />
    <glyph glyph-name="Imacron" unicode="&#x12a;" horiz-adv-x="596" 
d="M654 1490l-247 -1490h-404l247 1490h404zM823 1904l-39 -232h-600l39 232h600z" />
    <glyph glyph-name="imacron" unicode="&#x12b;" horiz-adv-x="607" 
d="M10 0l185 1118h402l-185 -1118h-402zM764 1532l-39 -232h-600l39 232h600z" />
    <glyph glyph-name="Ibreve" unicode="&#x12c;" horiz-adv-x="596" 
d="M654 1490l-247 -1490h-404l247 1490h404zM474 1612q-112 0 -193 44.5t-119.5 120.5t-23.5 169h212q-10 -58 35.5 -98.5t121.5 -40.5q75 0 133 40.5t68 98.5h214q-15 -93 -79.5 -169t-160.5 -120.5t-208 -44.5z" />
    <glyph glyph-name="ibreve" unicode="&#x12d;" horiz-adv-x="607" 
d="M10 0l185 1118h402l-185 -1118h-402zM415 1240q-112 0 -193 44.5t-119.5 120.5t-23.5 169h212q-10 -58 35.5 -98.5t121.5 -40.5q75 0 133 40.5t68 98.5h214q-15 -93 -79.5 -169t-160.5 -120.5t-208 -44.5z" />
    <glyph glyph-name="Iogonek" unicode="&#x12e;" horiz-adv-x="596" 
d="M654 1490l-247 -1490h-404l247 1490h404zM135 -426q-133 0 -200.5 60t-49.5 166q11 70 53 130t97 97l372 -27q-95 -28 -136 -64.5t-48 -80.5q-11 -69 52 -69q32 0 67 19l39 -180q-46 -24 -115 -37.5t-131 -13.5z" />
    <glyph glyph-name="iogonek" unicode="&#x12f;" horiz-adv-x="607" 
d="M10 0l185 1118h402l-185 -1118h-402zM140 -426q-133 0 -200.5 60t-49.5 166q11 70 53 130t97 97l372 -27q-95 -28 -136 -64.5t-48 -80.5q-11 -69 52 -69q32 0 67 19l39 -180q-46 -24 -115 -37.5t-131 -13.5zM414 1232q-82 0 -131 54t-37 130q13 77 80 130.5t149 53.5
t131 -53.5t36 -130.5q-12 -76 -79 -130t-149 -54z" />
    <glyph glyph-name="Idotaccent" unicode="&#x130;" horiz-adv-x="596" 
d="M654 1490l-247 -1490h-404l247 1490h404zM473 1604q-82 0 -131 54t-37 130q13 77 80 130.5t149 53.5t131 -53.5t36 -130.5q-12 -76 -79 -130t-149 -54z" />
    <glyph glyph-name="dotlessi" unicode="&#x131;" horiz-adv-x="607" 
d="M10 0l185 1118h402l-185 -1118h-402z" />
    <glyph glyph-name="IJ" unicode="&#x132;" horiz-adv-x="1817" 
d="M654 1490l-247 -1490h-404l247 1490h404zM1103 -20q-233 0 -362 99t-129 285q0 24 4.5 61t20.5 134h404q-15 -88 -18 -112.5t-3 -35.5q0 -117 119 -117q139 0 167 166l171 1030h398l-170 -1022q-39 -235 -191 -361.5t-411 -126.5z" />
    <glyph glyph-name="ij" unicode="&#x133;" horiz-adv-x="1213" 
d="M10 0l185 1118h402l-185 -1118h-402zM414 1232q-82 0 -131 54t-37 130q13 77 80 130.5t149 53.5t131 -53.5t36 -130.5q-12 -76 -79 -130t-149 -54zM801 1118h402l-191 -1156q-24 -147 -99.5 -229.5t-192 -116.5t-263.5 -34h-82l49 296h46q73 0 103 22t38 70zM1021 1232
q-82 0 -131 54t-37 130q13 77 80 130.5t149 53.5t131 -53.5t36 -130.5q-12 -76 -79 -130t-149 -54z" />
    <glyph glyph-name="Jcircumflex" unicode="&#x134;" horiz-adv-x="1221" 
d="M507 -20q-233 0 -362 99t-129 285q0 24 4.5 61t20.5 134h404q-15 -88 -18 -112.5t-3 -35.5q0 -117 119 -117q139 0 167 166l171 1030h398l-170 -1022q-39 -235 -191 -361.5t-411 -126.5zM960 1628h-332l1 6l387 320h280l281 -320l-1 -6h-332l-115 166z" />
    <glyph glyph-name="jcircumflex" unicode="&#x135;" horiz-adv-x="606" 
d="M194 1118h402l-191 -1156q-24 -147 -99.5 -229.5t-192 -116.5t-263.5 -34h-82l49 296h46q73 0 103 22t38 70zM276 1256h-332l1 6l387 320h280l281 -320l-1 -6h-332l-115 166z" />
    <glyph glyph-name="uni0136" unicode="&#x136;" horiz-adv-x="1555" 
d="M3 0l247 1490h416l-53 -320l-58 -314q81 106 217 251l360 383h503l-627 -642l408 -848h-452l-260 599l3 3l-224 -216l-64 -386h-416zM309 -466l154 348h360l-242 -348h-272z" />
    <glyph glyph-name="uni0137" unicode="&#x137;" horiz-adv-x="1242" 
d="M9 0l247 1490h402l-124 -748h14l332 376h452l-461 -490l286 -628h-458l-163 394l-72 -77l-53 -317h-402zM187 -466l154 348h360l-242 -348h-272z" />
    <glyph glyph-name="kgreenlandic" unicode="&#x138;" horiz-adv-x="1308" 
d="M597 1118l-69 -418h94l301 418h486l-459 -542l256 -576h-482l-140 408h-104l-68 -408h-402l185 1118h402z" />
    <glyph glyph-name="Lacute" unicode="&#x139;" horiz-adv-x="1158" 
d="M3 0l247 1490h404l-193 -1164h602l-54 -326h-1006zM337 1628l192 326h344l-272 -326h-264z" />
    <glyph glyph-name="lacute" unicode="&#x13a;" horiz-adv-x="606" 
d="M658 1490l-247 -1490h-402l247 1490h402zM346 1628l192 326h344l-272 -326h-264z" />
    <glyph glyph-name="uni013B" unicode="&#x13b;" horiz-adv-x="1158" 
d="M3 0l247 1490h404l-193 -1164h602l-54 -326h-1006zM159 -466l154 348h360l-242 -348h-272z" />
    <glyph glyph-name="uni013C" unicode="&#x13c;" horiz-adv-x="606" 
d="M658 1490l-247 -1490h-402l247 1490h402zM-139 -466l154 348h360l-242 -348h-272z" />
    <glyph glyph-name="Lcaron" unicode="&#x13d;" horiz-adv-x="1158" 
d="M3 0l247 1490h404l-193 -1164h602l-54 -326h-1006zM808 1182l64 388h270l-118 -388h-216z" />
    <glyph glyph-name="lcaron" unicode="&#x13e;" horiz-adv-x="866" 
d="M658 1490l-247 -1490h-402l247 1490h402zM724 1182l64 388h270l-118 -388h-216z" />
    <glyph glyph-name="Ldot" unicode="&#x13f;" horiz-adv-x="1210" 
d="M11 0l247 1490h404l-193 -1164h602l-54 -326h-1006zM828 752q-82 0 -131 54t-37 130q13 77 80 130.5t149 53.5t131 -53.5t36 -130.5q-12 -76 -79 -130t-149 -54z" />
    <glyph glyph-name="ldot" unicode="&#x140;" horiz-adv-x="1076" 
d="M658 1490l-247 -1490h-402l247 1490h402zM855 542q-95 0 -150 66t-39 163q13 77 74 127t141 50q95 0 150 -66t39 -163q-13 -77 -74 -127t-141 -50z" />
    <glyph glyph-name="Lslash" unicode="&#x141;" horiz-adv-x="1158" 
d="M3 0l247 1490h404l-193 -1164h602l-54 -326h-1006zM-3 337l54 327l1025 540l-54 -327z" />
    <glyph glyph-name="lslash" unicode="&#x142;" horiz-adv-x="606" 
d="M658 1490l-247 -1490h-402l247 1490h402zM-40 466l48 288l714 376l-48 -288z" />
    <glyph glyph-name="Nacute" unicode="&#x143;" horiz-adv-x="1576" 
d="M3 0l247 1490h440l258 -585q41 -92 72.5 -185.5t56.5 -219.5q11 114 24 238t26 206l91 546h416l-247 -1490h-440l-241 544q-50 114 -82.5 211t-65.5 222q-12 -128 -24.5 -243.5t-24.5 -189.5l-90 -544h-416zM831 1628l192 326h344l-272 -326h-264z" />
    <glyph glyph-name="nacute" unicode="&#x144;" horiz-adv-x="1330" 
d="M513 615l-102 -615h-402l186 1118h376l-29 -227q60 108 149 174.5t221 66.5q124 0 207 -57.5t118 -155.5t14 -220l-116 -699h-402l107 641q14 83 -23.5 124t-105.5 41q-82 0 -133 -54t-65 -137zM646 1256l192 326h344l-272 -326h-264z" />
    <glyph glyph-name="uni0145" unicode="&#x145;" horiz-adv-x="1576" 
d="M3 0l247 1490h440l258 -585q41 -92 72.5 -185.5t56.5 -219.5q11 114 24 238t26 206l91 546h416l-247 -1490h-440l-241 544q-50 114 -82.5 211t-65.5 222q-12 -128 -24.5 -243.5t-24.5 -189.5l-90 -544h-416zM347 -466l154 348h360l-242 -348h-272z" />
    <glyph glyph-name="uni0146" unicode="&#x146;" horiz-adv-x="1330" 
d="M513 615l-102 -615h-402l186 1118h376l-29 -227q60 108 149 174.5t221 66.5q124 0 207 -57.5t118 -155.5t14 -220l-116 -699h-402l107 641q14 83 -23.5 124t-105.5 41q-82 0 -133 -54t-65 -137zM223 -466l154 348h360l-242 -348h-272z" />
    <glyph glyph-name="Ncaron" unicode="&#x147;" horiz-adv-x="1576" 
d="M3 0l247 1490h440l258 -585q41 -92 72.5 -185.5t56.5 -219.5q11 114 24 238t26 206l91 546h416l-247 -1490h-440l-241 544q-50 114 -82.5 211t-65.5 222q-12 -128 -24.5 -243.5t-24.5 -189.5l-90 -544h-416zM877 1954l114 -166l170 166h332l-1 -6l-387 -320h-280
l-281 320l1 6h332z" />
    <glyph glyph-name="ncaron" unicode="&#x148;" horiz-adv-x="1330" 
d="M513 615l-102 -615h-402l186 1118h376l-29 -227q60 108 149 174.5t221 66.5q124 0 207 -57.5t118 -155.5t14 -220l-116 -699h-402l107 641q14 83 -23.5 124t-105.5 41q-82 0 -133 -54t-65 -137zM692 1582l114 -166l170 166h332l-1 -6l-387 -320h-280l-281 320l1 6h332z
" />
    <glyph glyph-name="Eng" unicode="&#x14a;" horiz-adv-x="1576" 
d="M696 -417l49 297q29 -4 57 -6.5t57 -2.5q59 0 84 17.5t32 62.5l8 49h-36l-241 544q-50 114 -82.5 211t-65.5 222q-12 -128 -24.5 -243.5t-24.5 -189.5l-90 -544h-416l247 1490h440l258 -585q41 -92 72.5 -185.5t56.5 -219.5q11 114 24 238t26 206l91 546h416l-247 -1490
v0l-12 -73q-62 -368 -485 -368q-110 0 -194 24z" />
    <glyph glyph-name="eng" unicode="&#x14b;" horiz-adv-x="1330" 
d="M444 -417l49 297q29 -4 57 -6.5t57 -2.5q59 0 85 17.5t33 62.5l8 49l107 641q14 83 -23.5 124t-105.5 41q-82 0 -133 -54t-65 -137l-102 -615h-402l186 1118h376l-29 -227q60 108 149 174.5t221 66.5q124 0 207 -57.5t118 -155.5t14 -220l-116 -699l-12 -73
q-62 -368 -485 -368q-110 0 -194 24z" />
    <glyph glyph-name="Omacron" unicode="&#x14c;" horiz-adv-x="1590" 
d="M720 -20q-184 0 -326 71.5t-222.5 209t-80.5 336.5q0 187 59 352.5t169.5 291.5t265.5 197.5t347 71.5q183 0 324.5 -71t222.5 -209t81 -338q0 -187 -59.5 -352t-170 -291t-265 -197.5t-345.5 -71.5zM737 332q109 0 187 51.5t128 136t73.5 183.5t23.5 193q0 262 -234 262
q-109 0 -187.5 -52t-128.5 -136.5t-73.5 -183t-23.5 -192.5q0 -262 235 -262zM1318 1904l-39 -232h-600l39 232h600z" />
    <glyph glyph-name="omacron" unicode="&#x14d;" horiz-adv-x="1280" 
d="M566 -20q-247 0 -379 130t-132 345q0 136 44 258t128.5 216.5t207 148.5t280.5 54q246 0 377.5 -130t131.5 -345q0 -135 -43 -257t-127 -216.5t-206.5 -149t-281.5 -54.5zM582 280q67 0 113 42t73.5 105.5t39.5 131t12 117.5q0 77 -32.5 116.5t-88.5 39.5
q-68 0 -114.5 -41t-74 -103.5t-39.5 -129t-12 -117.5q0 -78 33.5 -119.5t89.5 -41.5zM1102 1532l-39 -232h-600l39 232h600z" />
    <glyph glyph-name="Obreve" unicode="&#x14e;" horiz-adv-x="1590" 
d="M720 -20q-184 0 -326 71.5t-222.5 209t-80.5 336.5q0 187 59 352.5t169.5 291.5t265.5 197.5t347 71.5q183 0 324.5 -71t222.5 -209t81 -338q0 -187 -59.5 -352t-170 -291t-265 -197.5t-345.5 -71.5zM737 332q109 0 187 51.5t128 136t73.5 183.5t23.5 193q0 262 -234 262
q-109 0 -187.5 -52t-128.5 -136.5t-73.5 -183t-23.5 -192.5q0 -262 235 -262zM969 1612q-112 0 -193 44.5t-119.5 120.5t-23.5 169h212q-10 -58 35.5 -98.5t121.5 -40.5q75 0 133 40.5t68 98.5h214q-15 -93 -79.5 -169t-160.5 -120.5t-208 -44.5z" />
    <glyph glyph-name="obreve" unicode="&#x14f;" horiz-adv-x="1280" 
d="M566 -20q-247 0 -379 130t-132 345q0 136 44 258t128.5 216.5t207 148.5t280.5 54q246 0 377.5 -130t131.5 -345q0 -135 -43 -257t-127 -216.5t-206.5 -149t-281.5 -54.5zM582 280q67 0 113 42t73.5 105.5t39.5 131t12 117.5q0 77 -32.5 116.5t-88.5 39.5
q-68 0 -114.5 -41t-74 -103.5t-39.5 -129t-12 -117.5q0 -78 33.5 -119.5t89.5 -41.5zM753 1240q-112 0 -193 44.5t-119.5 120.5t-23.5 169h212q-10 -58 35.5 -98.5t121.5 -40.5q75 0 133 40.5t68 98.5h214q-15 -93 -79.5 -169t-160.5 -120.5t-208 -44.5z" />
    <glyph glyph-name="Ohungarumlaut" unicode="&#x150;" horiz-adv-x="1590" 
d="M720 -20q-184 0 -326 71.5t-222.5 209t-80.5 336.5q0 187 59 352.5t169.5 291.5t265.5 197.5t347 71.5q183 0 324.5 -71t222.5 -209t81 -338q0 -187 -59.5 -352t-170 -291t-265 -197.5t-345.5 -71.5zM737 332q109 0 187 51.5t128 136t73.5 183.5t23.5 193q0 262 -234 262
q-109 0 -187.5 -52t-128.5 -136.5t-73.5 -183t-23.5 -192.5q0 -262 235 -262zM1216 1628h-272l224 326h360zM846 1628h-264l152 326h326z" />
    <glyph glyph-name="ohungarumlaut" unicode="&#x151;" horiz-adv-x="1280" 
d="M566 -20q-247 0 -379 130t-132 345q0 136 44 258t128.5 216.5t207 148.5t280.5 54q246 0 377.5 -130t131.5 -345q0 -135 -43 -257t-127 -216.5t-206.5 -149t-281.5 -54.5zM582 280q67 0 113 42t73.5 105.5t39.5 131t12 117.5q0 77 -32.5 116.5t-88.5 39.5
q-68 0 -114.5 -41t-74 -103.5t-39.5 -129t-12 -117.5q0 -78 33.5 -119.5t89.5 -41.5zM1000 1256h-272l224 326h360zM630 1256h-264l152 326h326z" />
    <glyph glyph-name="OE" unicode="&#x152;" horiz-adv-x="2154" 
d="M668 0q-193 0 -336.5 80t-208.5 244.5t-23 417.5q41 255 161 420.5t290.5 246.5t362.5 81h1290l-54 -326h-670l-42 -252h614l-53 -318h-614l-44 -268h666l-54 -326h-1285zM937 326l139 838h-216q-81 0 -151 -37.5t-121 -129.5t-78 -255q-27 -164 -5.5 -254.5t79.5 -126
t138 -35.5h215z" />
    <glyph glyph-name="oe" unicode="&#x153;" horiz-adv-x="2002" 
d="M566 -20q-247 0 -379 130t-132 345q0 136 44 258t128.5 216.5t207 148.5t280.5 54q246 0 377.5 -130t131.5 -345q0 -135 -43 -257t-127 -216.5t-206.5 -149t-281.5 -54.5zM582 280q67 0 113 42t73.5 105.5t39.5 131t12 117.5q0 77 -32.5 116.5t-88.5 39.5
q-68 0 -114.5 -41t-74 -103.5t-39.5 -129t-12 -117.5q0 -78 33.5 -119.5t89.5 -41.5zM1336 -24q-238 0 -376.5 121.5t-138.5 338.5q0 137 46.5 262t134 222.5t211.5 154.5t279 57q127 0 232 -40.5t167.5 -117t62.5 -185.5q0 -128 -90.5 -198t-257.5 -100t-397 -37v-28
q0 -73 32 -120t126 -47q68 0 118 26t66 75l357 -26q-49 -159 -199 -258.5t-373 -99.5zM1240 672q148 2 223.5 11t101.5 26.5t26 48.5q0 92 -141 92q-89 0 -138 -53t-72 -125z" />
    <glyph glyph-name="Racute" unicode="&#x154;" horiz-adv-x="1368" 
d="M3 0l247 1490h642q166 0 280.5 -60.5t165 -174t24.5 -271.5q-26 -155 -111 -263t-214 -165l212 -556h-440l-181 492h-140l-81 -492h-404zM540 806h142q107 0 174.5 41t83.5 137q16 95 -37.5 138.5t-160.5 43.5h-142zM717 1628l192 326h344l-272 -326h-264z" />
    <glyph glyph-name="racute" unicode="&#x155;" horiz-adv-x="889" 
d="M10 0l185 1118h390l-35 -214h12q50 119 125 173.5t164 54.5q50 0 100 -16l-57 -342q-28 11 -71 15.5t-74 4.5q-89 0 -156.5 -58t-84.5 -154l-96 -582h-402zM464 1256l192 326h344l-272 -326h-264z" />
    <glyph glyph-name="uni0156" unicode="&#x156;" horiz-adv-x="1368" 
d="M3 0l247 1490h642q166 0 280.5 -60.5t165 -174t24.5 -271.5q-26 -155 -111 -263t-214 -165l212 -556h-440l-181 492h-140l-81 -492h-404zM540 806h142q107 0 174.5 41t83.5 137q16 95 -37.5 138.5t-160.5 43.5h-142zM257 -466l154 348h360l-242 -348h-272z" />
    <glyph glyph-name="uni0157" unicode="&#x157;" horiz-adv-x="889" 
d="M10 0l185 1118h390l-35 -214h12q50 119 125 173.5t164 54.5q50 0 100 -16l-57 -342q-28 11 -71 15.5t-74 4.5q-89 0 -156.5 -58t-84.5 -154l-96 -582h-402zM-134 -466l154 348h360l-242 -348h-272z" />
    <glyph glyph-name="Rcaron" unicode="&#x158;" horiz-adv-x="1368" 
d="M3 0l247 1490h642q166 0 280.5 -60.5t165 -174t24.5 -271.5q-26 -155 -111 -263t-214 -165l212 -556h-440l-181 492h-140l-81 -492h-404zM540 806h142q107 0 174.5 41t83.5 137q16 95 -37.5 138.5t-160.5 43.5h-142zM763 1954l114 -166l170 166h332l-1 -6l-387 -320h-280
l-281 320l1 6h332z" />
    <glyph glyph-name="rcaron" unicode="&#x159;" horiz-adv-x="889" 
d="M10 0l185 1118h390l-35 -214h12q50 119 125 173.5t164 54.5q50 0 100 -16l-57 -342q-28 11 -71 15.5t-74 4.5q-89 0 -156.5 -58t-84.5 -154l-96 -582h-402zM510 1582l114 -166l170 166h332l-1 -6l-387 -320h-280l-281 320l1 6h332z" />
    <glyph glyph-name="Sacute" unicode="&#x15a;" horiz-adv-x="1364" 
d="M630 -18q-194 0 -335 57.5t-207 177.5t-36 307h384q-12 -103 45 -156.5t174 -53.5q97 0 153.5 35.5t65.5 90.5q8 50 -36.5 84t-163.5 60l-145 32q-190 42 -286.5 143.5t-67.5 276.5q23 142 111.5 248.5t228 166t316.5 59.5q181 0 308.5 -60.5t187 -170t36.5 -255.5h-388
q7 73 -35 113.5t-140 40.5q-94 0 -142.5 -32t-56.5 -82q-9 -53 33 -86t144 -56l117 -26q239 -53 329 -169.5t62 -286.5q-37 -221 -205 -339.5t-451 -118.5zM727 1628l192 326h344l-272 -326h-264z" />
    <glyph glyph-name="sacute" unicode="&#x15b;" horiz-adv-x="1202" 
d="M524 -20q-235 0 -370 100t-137 263v5l372 28q8 -66 40 -95t117 -29q33 0 69.5 7t62.5 25t26 51q0 26 -23.5 43.5t-81.5 27.5l-192 36q-146 28 -221.5 105.5t-75.5 187.5q0 135 77 223t204 131t275 43q229 0 356 -90.5t130 -241.5v-4l-354 -25q-4 55 -36 74t-91 19
q-31 0 -68 -8t-63.5 -27t-26.5 -54q0 -20 16.5 -38t66.5 -27l222 -40q147 -26 224 -93.5t77 -175.5q0 -104 -50 -183t-135 -132t-191.5 -79.5t-218.5 -26.5zM577 1256l192 326h344l-272 -326h-264z" />
    <glyph glyph-name="Scircumflex" unicode="&#x15c;" horiz-adv-x="1364" 
d="M630 -18q-194 0 -335 57.5t-207 177.5t-36 307h384q-12 -103 45 -156.5t174 -53.5q97 0 153.5 35.5t65.5 90.5q8 50 -36.5 84t-163.5 60l-145 32q-190 42 -286.5 143.5t-67.5 276.5q23 142 111.5 248.5t228 166t316.5 59.5q181 0 308.5 -60.5t187 -170t36.5 -255.5h-388
q7 73 -35 113.5t-140 40.5q-94 0 -142.5 -32t-56.5 -82q-9 -53 33 -86t144 -56l117 -26q239 -53 329 -169.5t62 -286.5q-37 -221 -205 -339.5t-451 -118.5zM719 1628h-332l1 6l387 320h280l281 -320l-1 -6h-332l-115 166z" />
    <glyph glyph-name="scircumflex" unicode="&#x15d;" horiz-adv-x="1202" 
d="M524 -20q-235 0 -370 100t-137 263v5l372 28q8 -66 40 -95t117 -29q33 0 69.5 7t62.5 25t26 51q0 26 -23.5 43.5t-81.5 27.5l-192 36q-146 28 -221.5 105.5t-75.5 187.5q0 135 77 223t204 131t275 43q229 0 356 -90.5t130 -241.5v-4l-354 -25q-4 55 -36 74t-91 19
q-31 0 -68 -8t-63.5 -27t-26.5 -54q0 -20 16.5 -38t66.5 -27l222 -40q147 -26 224 -93.5t77 -175.5q0 -104 -50 -183t-135 -132t-191.5 -79.5t-218.5 -26.5zM569 1256h-332l1 6l387 320h280l281 -320l-1 -6h-332l-115 166z" />
    <glyph glyph-name="Scedilla" unicode="&#x15e;" horiz-adv-x="1364" 
d="M630 -18q-194 0 -335 57.5t-207 177.5t-36 307h384q-12 -103 45 -156.5t174 -53.5q97 0 153.5 35.5t65.5 90.5q8 50 -36.5 84t-163.5 60l-145 32q-190 42 -286.5 143.5t-67.5 276.5q23 142 111.5 248.5t228 166t316.5 59.5q181 0 308.5 -60.5t187 -170t36.5 -255.5h-388
q7 73 -35 113.5t-140 40.5q-94 0 -142.5 -32t-56.5 -82q-9 -53 33 -86t144 -56l117 -26q239 -53 329 -169.5t62 -286.5q-37 -221 -205 -339.5t-451 -118.5zM381 -418l21 131h135q80 0 90 58q10 57 -70 57h-100l77 212h133l-7 -40l-26 -90q95 12 144 -31t36 -121
q-16 -96 -80.5 -136t-194.5 -40h-158z" />
    <glyph glyph-name="scedilla" unicode="&#x15f;" horiz-adv-x="1202" 
d="M524 -20q-235 0 -370 100t-137 263v5l372 28q8 -66 40 -95t117 -29q33 0 69.5 7t62.5 25t26 51q0 26 -23.5 43.5t-81.5 27.5l-192 36q-146 28 -221.5 105.5t-75.5 187.5q0 135 77 223t204 131t275 43q229 0 356 -90.5t130 -241.5v-4l-354 -25q-4 55 -36 74t-91 19
q-31 0 -68 -8t-63.5 -27t-26.5 -54q0 -20 16.5 -38t66.5 -27l222 -40q147 -26 224 -93.5t77 -175.5q0 -104 -50 -183t-135 -132t-191.5 -79.5t-218.5 -26.5zM301 -418l21 131h135q80 0 90 58q10 57 -70 57h-100l77 212h133l-7 -40l-26 -90q95 12 144 -31t36 -121
q-16 -96 -80.5 -136t-194.5 -40h-158z" />
    <glyph glyph-name="Scaron" unicode="&#x160;" horiz-adv-x="1364" 
d="M630 -18q-194 0 -335 57.5t-207 177.5t-36 307h384q-12 -103 45 -156.5t174 -53.5q97 0 153.5 35.5t65.5 90.5q8 50 -36.5 84t-163.5 60l-145 32q-190 42 -286.5 143.5t-67.5 276.5q23 142 111.5 248.5t228 166t316.5 59.5q181 0 308.5 -60.5t187 -170t36.5 -255.5h-388
q7 73 -35 113.5t-140 40.5q-94 0 -142.5 -32t-56.5 -82q-9 -53 33 -86t144 -56l117 -26q239 -53 329 -169.5t62 -286.5q-37 -221 -205 -339.5t-451 -118.5zM773 1954l114 -166l170 166h332l-1 -6l-387 -320h-280l-281 320l1 6h332z" />
    <glyph glyph-name="scaron" unicode="&#x161;" horiz-adv-x="1202" 
d="M524 -20q-235 0 -370 100t-137 263v5l372 28q8 -66 40 -95t117 -29q33 0 69.5 7t62.5 25t26 51q0 26 -23.5 43.5t-81.5 27.5l-192 36q-146 28 -221.5 105.5t-75.5 187.5q0 135 77 223t204 131t275 43q229 0 356 -90.5t130 -241.5v-4l-354 -25q-4 55 -36 74t-91 19
q-31 0 -68 -8t-63.5 -27t-26.5 -54q0 -20 16.5 -38t66.5 -27l222 -40q147 -26 224 -93.5t77 -175.5q0 -104 -50 -183t-135 -132t-191.5 -79.5t-218.5 -26.5zM623 1582l114 -166l170 166h332l-1 -6l-387 -320h-280l-281 320l1 6h332z" />
    <glyph glyph-name="uni021A" unicode="&#x162;" horiz-adv-x="1406" 
d="M156 1164l54 326h1294l-54 -326h-445l-193 -1164h-404l193 1164h-445zM391 -418l21 131h135q80 0 90 58q10 57 -70 57h-100l77 212h133l-7 -40l-26 -90q95 12 144 -31t36 -121q-16 -96 -80.5 -136t-194.5 -40h-158z" />
    <glyph glyph-name="uni0163" unicode="&#x163;" horiz-adv-x="820" 
d="M849 1118l-48 -292h-192l-77 -467q-10 -70 65 -70q18 0 53 4.5t47 8.5v-287q-72 -19 -134 -25.5t-116 -6.5q-379 0 -323 339l84 504h-143l48 292h143l44 266h402l-44 -266h191zM192 -418l21 131h135q80 0 90 58q10 57 -70 57h-100l77 212h133l-7 -40l-26 -90
q95 12 144 -31t36 -121q-16 -96 -80.5 -136t-194.5 -40h-158z" />
    <glyph glyph-name="Tcaron" unicode="&#x164;" horiz-adv-x="1406" 
d="M156 1164l54 326h1294l-54 -326h-445l-193 -1164h-404l193 1164h-445zM792 1954l114 -166l170 166h332l-1 -6l-387 -320h-280l-281 320l1 6h332z" />
    <glyph glyph-name="tcaron" unicode="&#x165;" horiz-adv-x="952" 
d="M849 1118l-48 -292h-192l-77 -467q-10 -70 65 -70q18 0 53 4.5t47 8.5v-287q-72 -19 -134 -25.5t-116 -6.5q-379 0 -323 339l84 504h-143l48 292h143l44 266h402l-44 -266h191zM811 1254l64 388h270l-118 -388h-216z" />
    <glyph glyph-name="Tbar" unicode="&#x166;" horiz-adv-x="1406" 
d="M156 1164l54 326h1294l-54 -326h-445l-193 -1164h-404l193 1164h-445zM240 542l41 248h920l-41 -248h-920z" />
    <glyph glyph-name="tbar" unicode="&#x167;" horiz-adv-x="821" 
d="M780 703l-36 -220h-190l-21 -124q-10 -70 65 -70q18 0 53 4.5t47 8.5v-287q-72 -19 -134 -25.5t-116 -6.5q-379 0 -323 339l27 161h-144l36 220h144l21 123h-143l48 292h143l44 266h402l-44 -266h191l-48 -292h-192l-20 -123h190z" />
    <glyph glyph-name="Utilde" unicode="&#x168;" horiz-adv-x="1478" 
d="M663 -18q-197 0 -335 70.5t-200 198.5t-34 298l156 941h404l-154 -933q-17 -104 33.5 -164.5t146.5 -60.5q75 0 139.5 34t108 91t54.5 126l150 907h404l-160 -967q-28 -170 -126 -291.5t-249 -185.5t-338 -64zM1063 1628q-57 0 -93 18t-61 42t-46.5 42t-49.5 18
q-72 0 -95 -112h-198q29 158 113 235t187 77q56 0 93 -17.5t63 -41t47.5 -41t47.5 -17.5q42 0 64 29.5t32 81.5h196q-28 -154 -113 -234t-187 -80z" />
    <glyph glyph-name="utilde" unicode="&#x169;" horiz-adv-x="1331" 
d="M398 -14q-118 0 -197 54t-111.5 149t-12.5 217l118 712h402l-104 -628q-13 -83 21 -130.5t110 -47.5q74 0 126 47.5t65 130.5l104 628h402l-185 -1118h-377l34 253q-60 -115 -156 -191t-239 -76zM930 1256q-57 0 -93 18t-61 42t-46.5 42t-49.5 18q-72 0 -95 -112h-198
q29 158 113 235t187 77q56 0 93 -17.5t63 -41t47.5 -41t47.5 -17.5q42 0 64 29.5t32 81.5h196q-28 -154 -113 -234t-187 -80z" />
    <glyph glyph-name="Umacron" unicode="&#x16a;" horiz-adv-x="1478" 
d="M663 -18q-197 0 -335 70.5t-200 198.5t-34 298l156 941h404l-154 -933q-17 -104 33.5 -164.5t146.5 -60.5q75 0 139.5 34t108 91t54.5 126l150 907h404l-160 -967q-28 -170 -126 -291.5t-249 -185.5t-338 -64zM1261 1904l-39 -232h-600l39 232h600z" />
    <glyph glyph-name="umacron" unicode="&#x16b;" horiz-adv-x="1331" 
d="M398 -14q-118 0 -197 54t-111.5 149t-12.5 217l118 712h402l-104 -628q-13 -83 21 -130.5t110 -47.5q74 0 126 47.5t65 130.5l104 628h402l-185 -1118h-377l34 253q-60 -115 -156 -191t-239 -76zM1128 1532l-39 -232h-600l39 232h600z" />
    <glyph glyph-name="Ubreve" unicode="&#x16c;" horiz-adv-x="1478" 
d="M663 -18q-197 0 -335 70.5t-200 198.5t-34 298l156 941h404l-154 -933q-17 -104 33.5 -164.5t146.5 -60.5q75 0 139.5 34t108 91t54.5 126l150 907h404l-160 -967q-28 -170 -126 -291.5t-249 -185.5t-338 -64zM912 1612q-112 0 -193 44.5t-119.5 120.5t-23.5 169h212
q-10 -58 35.5 -98.5t121.5 -40.5q75 0 133 40.5t68 98.5h214q-15 -93 -79.5 -169t-160.5 -120.5t-208 -44.5z" />
    <glyph glyph-name="ubreve" unicode="&#x16d;" horiz-adv-x="1331" 
d="M398 -14q-118 0 -197 54t-111.5 149t-12.5 217l118 712h402l-104 -628q-13 -83 21 -130.5t110 -47.5q74 0 126 47.5t65 130.5l104 628h402l-185 -1118h-377l34 253q-60 -115 -156 -191t-239 -76zM779 1240q-112 0 -193 44.5t-119.5 120.5t-23.5 169h212
q-10 -58 35.5 -98.5t121.5 -40.5q75 0 133 40.5t68 98.5h214q-15 -93 -79.5 -169t-160.5 -120.5t-208 -44.5z" />
    <glyph glyph-name="Uring" unicode="&#x16e;" horiz-adv-x="1478" 
d="M663 -18q-197 0 -335 70.5t-200 198.5t-34 298l156 941h404l-154 -933q-17 -104 33.5 -164.5t146.5 -60.5q75 0 139.5 34t108 91t54.5 126l150 907h404l-160 -967q-28 -170 -126 -291.5t-249 -185.5t-338 -64zM922 1548q-139 0 -209.5 77t-51.5 189q15 93 95.5 153.5
t204.5 60.5q139 0 209.5 -76.5t51.5 -189.5q-15 -93 -95.5 -153.5t-204.5 -60.5zM924 1685q52 0 87 28t42 75q8 47 -17 75t-77 28t-87 -28t-43 -75q-7 -47 18 -75t77 -28z" />
    <glyph glyph-name="uring" unicode="&#x16f;" horiz-adv-x="1331" 
d="M398 -14q-118 0 -197 54t-111.5 149t-12.5 217l118 712h402l-104 -628q-13 -83 21 -130.5t110 -47.5q74 0 126 47.5t65 130.5l104 628h402l-185 -1118h-377l34 253q-60 -115 -156 -191t-239 -76zM772 1199q-78 0 -137 35.5t-87.5 95t-16.5 131.5q12 73 60.5 132t119 94.5
t148.5 35.5q79 0 137.5 -35.5t87.5 -94.5t17 -132q-12 -72 -60.5 -131.5t-119 -95t-149.5 -35.5zM797 1346q48 0 87 33.5t47 81.5t-20 81.5t-76 33.5t-87 -33.5t-47 -81.5t20 -81.5t76 -33.5z" />
    <glyph glyph-name="Uhungarumlaut" unicode="&#x170;" horiz-adv-x="1478" 
d="M663 -18q-197 0 -335 70.5t-200 198.5t-34 298l156 941h404l-154 -933q-17 -104 33.5 -164.5t146.5 -60.5q75 0 139.5 34t108 91t54.5 126l150 907h404l-160 -967q-28 -170 -126 -291.5t-249 -185.5t-338 -64zM1159 1628h-272l224 326h360zM789 1628h-264l152 326h326z
" />
    <glyph glyph-name="uhungarumlaut" unicode="&#x171;" horiz-adv-x="1331" 
d="M398 -14q-118 0 -197 54t-111.5 149t-12.5 217l118 712h402l-104 -628q-13 -83 21 -130.5t110 -47.5q74 0 126 47.5t65 130.5l104 628h402l-185 -1118h-377l34 253q-60 -115 -156 -191t-239 -76zM1026 1256h-272l224 326h360zM656 1256h-264l152 326h326z" />
    <glyph glyph-name="Uogonek" unicode="&#x172;" horiz-adv-x="1478" 
d="M663 -18q-197 0 -335 70.5t-200 198.5t-34 298l156 941h404l-154 -933q-17 -104 33.5 -164.5t146.5 -60.5q75 0 139.5 34t108 91t54.5 126l150 907h404l-160 -967q-28 -170 -126 -291.5t-249 -185.5t-338 -64zM651 -426q-133 0 -200.5 60t-49.5 166q16 94 80.5 154.5
t158.5 103t197.5 81.5t198 88t161.5 122.5t86 186.5l93 -13q-24 -131 -78 -219.5t-123.5 -147t-142.5 -97t-136.5 -68.5t-106.5 -61t-50 -75q-11 -69 52 -69q29 0 67 19l39 -180q-46 -24 -115 -37.5t-131 -13.5z" />
    <glyph glyph-name="uogonek" unicode="&#x173;" horiz-adv-x="1331" 
d="M398 -14q-118 0 -197 54t-111.5 149t-12.5 217l118 712h402l-104 -628q-13 -83 21 -130.5t110 -47.5q74 0 126 47.5t65 130.5l104 628h402l-185 -1118h-377l34 253q-60 -115 -156 -191t-239 -76zM864 -426q-133 0 -200.5 60t-49.5 166q11 70 53 130t97 97l372 -27
q-95 -28 -136 -64.5t-48 -80.5q-11 -69 52 -69q32 0 67 19l39 -180q-46 -24 -115 -37.5t-131 -13.5z" />
    <glyph glyph-name="Wcircumflex" unicode="&#x174;" horiz-adv-x="2216" 
d="M348 0l-148 1490h452l23 -578q4 -97 1.5 -210t-5.5 -227q0 -11 -0.5 -22t-0.5 -22q39 124 79.5 249.5t82.5 231.5l228 578h404l36 -578q6 -95 5.5 -205.5t-1.5 -222.5q-1 -12 -1 -24v-24q37 122 75.5 246.5t77.5 229.5l216 578h452l-642 -1490h-457l-48 607q-6 82 -6 173
t2 184q-27 -92 -55.5 -183t-63.5 -174l-249 -607h-457zM1143 1628h-332l1 6l387 320h280l281 -320l-1 -6h-332l-115 166z" />
    <glyph glyph-name="wcircumflex" unicode="&#x175;" horiz-adv-x="1796" 
d="M228 0l-137 1118h420l6 -350q1 -30 1.5 -60t1.5 -62q2 -70 3.5 -145t0.5 -156q41 118 82.5 223t77.5 200l133 350h348l13 -350q1 -38 3.5 -77t4.5 -80q4 -63 7.5 -130t4.5 -138q36 118 72.5 223.5t70.5 201.5l122 350h428l-511 -1118h-412l-45 368q-6 51 -8.5 125
t-4.5 148q-26 -74 -53 -148t-50 -125l-167 -368h-412zM870 1256h-332l1 6l387 320h280l281 -320l-1 -6h-332l-115 166z" />
    <glyph glyph-name="Ycircumflex" unicode="&#x176;" horiz-adv-x="1588" 
d="M508 0l86 518l-394 972h459l140 -450q13 -41 22.5 -83t17.5 -89q44 93 92 172l276 450h489l-700 -972l-86 -518h-402zM829 1628h-332l1 6l387 320h280l281 -320l-1 -6h-332l-115 166z" />
    <glyph glyph-name="ycircumflex" unicode="&#x177;" horiz-adv-x="1302" 
d="M-53 -388l135 286l50 -14q94 -26 156 2.5t52 80.5l-6 32l-229 1119h414l61 -510q8 -71 9.5 -142.5t1.5 -147.5q29 77 59.5 148t64.5 142l244 510h424l-663 -1220q-49 -91 -119 -164.5t-170 -116.5t-241 -43q-69 0 -134 10t-109 28zM629 1256h-332l1 6l387 320h280
l281 -320l-1 -6h-332l-115 166z" />
    <glyph glyph-name="Ydieresis" unicode="&#x178;" horiz-adv-x="1588" 
d="M508 0l86 518l-394 972h459l140 -450q13 -41 22.5 -83t17.5 -89q44 93 92 172l276 450h489l-700 -972l-86 -518h-402zM738 1619q-73 0 -116 49.5t-32 119.5q12 70 71.5 119.5t132.5 49.5t116.5 -49.5t31.5 -119.5q-11 -70 -71 -119.5t-133 -49.5zM1200 1619
q-73 0 -116 49.5t-32 119.5q12 70 71.5 119.5t132.5 49.5t116.5 -49.5t31.5 -119.5q-11 -70 -71 -119.5t-133 -49.5z" />
    <glyph glyph-name="Zacute" unicode="&#x179;" horiz-adv-x="1423" 
d="M10 0l37 224l860 940h-702l54 326h1216l-37 -224l-860 -940h702l-54 -326h-1216zM760 1628l192 326h344l-272 -326h-264z" />
    <glyph glyph-name="zacute" unicode="&#x17a;" horiz-adv-x="1208" 
d="M21 0l37 222l576 584l1 6h-464l51 306h946l-41 -246l-528 -560l-1 -6h454l-51 -306h-980zM587 1256l192 326h344l-272 -326h-264z" />
    <glyph glyph-name="Zdotaccent" unicode="&#x17b;" horiz-adv-x="1423" 
d="M10 0l37 224l860 940h-702l54 326h1216l-37 -224l-860 -940h702l-54 -326h-1216zM890 1604q-82 0 -131 54t-37 130q13 77 80 130.5t149 53.5t131 -53.5t36 -130.5q-12 -76 -79 -130t-149 -54z" />
    <glyph glyph-name="zdotaccent" unicode="&#x17c;" horiz-adv-x="1208" 
d="M21 0l37 222l576 584l1 6h-464l51 306h946l-41 -246l-528 -560l-1 -6h454l-51 -306h-980zM717 1232q-82 0 -131 54t-37 130q13 77 80 130.5t149 53.5t131 -53.5t36 -130.5q-12 -76 -79 -130t-149 -54z" />
    <glyph glyph-name="Zcaron" unicode="&#x17d;" horiz-adv-x="1423" 
d="M10 0l37 224l860 940h-702l54 326h1216l-37 -224l-860 -940h702l-54 -326h-1216zM806 1954l114 -166l170 166h332l-1 -6l-387 -320h-280l-281 320l1 6h332z" />
    <glyph glyph-name="zcaron" unicode="&#x17e;" horiz-adv-x="1208" 
d="M21 0l37 222l576 584l1 6h-464l51 306h946l-41 -246l-528 -560l-1 -6h454l-51 -306h-980zM633 1582l114 -166l170 166h332l-1 -6l-387 -320h-280l-281 320l1 6h332z" />
    <glyph glyph-name="longs" unicode="&#x17f;" horiz-adv-x="765" 
d="M-110 -456q-50 0 -103 3t-93 11l79 296q21 -4 42 -7t41 -3q128 0 151 144l182 1102q38 227 176.5 347.5t362.5 120.5q57 0 103.5 -4.5t95.5 -17.5l-98 -288q-24 4 -45 6t-60 2q-105 0 -123 -106l-187 -1132q-38 -229 -173 -351.5t-351 -122.5z" />
    <glyph glyph-name="bbar" unicode="&#x180;" horiz-adv-x="1321" 
d="M746 -14q-126 0 -199 62.5t-93 147.5h-14l-33 -196h-398l247 1490h402l-96 -568h8q47 92 128 151t200 59q100 0 184 -46t135.5 -143t51.5 -249q0 -111 -29 -234t-91.5 -230.5t-162 -175.5t-240.5 -68zM608 294q70 0 117.5 39.5t76.5 99.5t42 123t13 111q0 157 -121 157
q-62 0 -109.5 -34.5t-79.5 -90t-48.5 -119.5t-16.5 -123q0 -77 32.5 -120t93.5 -43zM97 1196l36 216h782l-36 -216h-782z" />
    <glyph glyph-name="uni0181" unicode="&#x181;" horiz-adv-x="1848" 
d="M119 1024l11 72q35 206 173 300t405 94h658q255 0 374.5 -109.5t89.5 -288.5q-19 -114 -116.5 -196t-228.5 -107v-13q95 -3 167 -51.5t106 -132.5t15 -196q-19 -116 -94.5 -205.5t-198 -140t-284.5 -50.5h-713l193 1164h-38q-142 0 -161 -112l-4 -28h-354zM941 322h179
q101 0 166 47t78 131q23 138 -165 138h-206zM1034 888h156q80 0 142.5 44.5t75.5 123.5q10 59 -29.5 87.5t-114.5 28.5h-183z" />
    <glyph glyph-name="uni0182" unicode="&#x182;" horiz-adv-x="1340" 
d="M3 0l248 1490h1048l-56 -326h-642l-26 -174h150q187 0 317.5 -61t190.5 -170.5t36 -258.5q-25 -148 -122 -260.5t-248 -176t-340 -63.5h-556zM461 318h150q110 -1 176.5 52t79.5 134q14 76 -35.5 126.5t-158.5 49.5h-152z" />
    <glyph glyph-name="uni0183" unicode="&#x183;" horiz-adv-x="1321" 
d="M746 -14q-126 0 -199 62.5t-93 147.5h-14l-33 -196h-398l247 1490h892l-48 -292h-491l-47 -276h8q47 92 128 151t200 59q100 0 184 -46t135.5 -143t51.5 -249q0 -111 -29 -234t-91.5 -230.5t-162 -175.5t-240.5 -68zM608 294q70 0 117.5 39.5t76.5 99.5t42 123t13 111
q0 157 -121 157q-62 0 -109.5 -34.5t-79.5 -90t-48.5 -119.5t-16.5 -123q0 -77 32.5 -120t93.5 -43z" />
    <glyph glyph-name="uni0184" unicode="&#x184;" horiz-adv-x="1840" 
d="M379 891l-253 154l313 445h677l-77 -468h191q193 0 323 -61.5t187.5 -175t31.5 -269.5q-26 -158 -117.5 -274t-238 -179t-339.5 -63h-612l213 1287zM987 712l-65 -394h192q107 0 174 52.5t83 149.5q15 92 -26.5 142t-149.5 50h-208z" />
    <glyph glyph-name="uni0185" unicode="&#x185;" horiz-adv-x="1642" 
d="M251 551l-220 122l297 445h649l-50 -304h174q241 0 363 -111t91 -301q-20 -123 -99 -213.5t-204 -139.5t-286 -49h-576l153 927zM877 514l-35 -214h174q134 0 151 104q19 110 -116 110h-174z" />
    <glyph glyph-name="uni0186" unicode="&#x186;" horiz-adv-x="1532" 
d="M880 1510q185 0 325 -71t219 -207.5t79 -335.5q0 -187 -58.5 -352.5t-168.5 -292.5t-263.5 -199t-344.5 -72q-187 0 -326.5 65t-213.5 191t-63 308h410q-4 -95 45 -153.5t153 -58.5q107 0 186 51t130.5 134.5t77 182.5t25.5 195q0 263 -239 263q-118 0 -200.5 -58.5
t-113.5 -153.5h-410q23 95 83.5 194t155.5 183t223.5 135.5t288.5 51.5z" />
    <glyph glyph-name="uni0187" unicode="&#x187;" horiz-adv-x="1532" 
d="M714 -20q-184 0 -324.5 71t-219.5 208t-79 335q0 187 58.5 352.5t168.5 292.5t264 199t344 72q172 0 304 -55q104 245 448 245q109 0 194 -24l-45 -273q-30 4 -57.5 6.5t-56.5 2.5q-58 0 -85.5 -18t-34.5 -62l-64 -386v0h-410q4 95 -45 153.5t-153 58.5q-107 0 -186 -51
t-130.5 -134.5t-77 -182.5t-25.5 -195q0 -263 239 -263q119 0 201 58.5t113 153.5h410q-23 -95 -83.5 -194t-155.5 -183t-223.5 -135.5t-288.5 -51.5z" />
    <glyph glyph-name="uni0188" unicode="&#x188;" horiz-adv-x="1233" 
d="M565 -20q-241 0 -375 132t-134 349q0 126 40 246t121.5 216t205.5 152.5t291 56.5q114 0 208 -30q31 109 118.5 159.5t259.5 50.5q32 0 66.5 -3t65.5 -8l-55 -288q-21 5 -42 8t-43 3q-58 0 -78 -17.5t-19 -62.5l3 -160q4 -37 2 -77l-379 -55q1 88 -20.5 134t-88.5 46
q-70 0 -118.5 -38.5t-77.5 -99.5t-42 -128t-13 -124q0 -162 118 -162q66 0 125 47.5t87 138.5l360 -54q-53 -199 -203 -315.5t-383 -116.5z" />
    <glyph glyph-name="Dbar1" unicode="&#x189;" horiz-adv-x="1599" 
d="M745 0h-622l247 1490h552q230 0 386 -89.5t223.5 -256.5t28.5 -400q-58 -349 -266.5 -546.5t-548.5 -197.5zM584 344h154q111 0 195 35t140 122.5t81 242.5q26 156 1 243.5t-98 123t-190 35.5h-150zM25 621l41 248h848l-41 -248h-848z" />
    <glyph glyph-name="uni018A" unicode="&#x18a;" horiz-adv-x="1959" 
d="M119 1024l11 72q35 206 173 300t405 94h574q230 0 386 -89.5t223.5 -256.5t28.5 -400q-58 -349 -266.5 -546.5t-548.5 -197.5h-622l193 1164h-38q-142 0 -161 -112l-4 -28h-354zM944 344h154q111 0 195 35t140 122.5t81 242.5q26 156 1 243.5t-98 123t-190 35.5h-150z
" />
    <glyph glyph-name="uni018B" unicode="&#x18b;" horiz-adv-x="1428" 
d="M1214 0h-556q-188 0 -318 64t-189 177t-35 259q24 147 120.5 257t248 171.5t339.5 61.5h166l32 194h-658l52 318h1048zM876 312l60 368h-166q-110 1 -180 -49.5t-84 -126.5q-13 -81 39.5 -137t164.5 -55h166z" />
    <glyph glyph-name="uni018C" unicode="&#x18c;" horiz-adv-x="1322" 
d="M428 -14q-160 0 -268 110t-108 330q0 127 33.5 252t99.5 228t163 164.5t224 61.5q133 0 204.5 -68t89.5 -154h10l48 288h-490l48 292h892l-247 -1490h-398l34 184h-13q-49 -95 -130.5 -146.5t-191.5 -51.5zM586 294q83 0 139 59t85 145t29 165q0 161 -125 161
q-63 0 -110 -35.5t-78 -92.5t-46.5 -122t-15.5 -124q0 -156 122 -156z" />
    <glyph glyph-name="deltaturn" unicode="&#x18d;" horiz-adv-x="1498" 
d="M1030 -376h-888l50 300h404q-23 16 -59 31.5t-97 68.5q-129 109 -198.5 239t-47.5 287l4 20q25 168 109.5 294.5t221.5 197t317 70.5q269 0 387.5 -138t84.5 -366l-4 -20q-21 -148 -94.5 -259t-173 -178.5t-200.5 -86.5h-38q26 -21 62 -59.5t74 -81.5t68.5 -80t45.5 -55z
M930 550l4 20q10 68 8 127.5t-34 97t-112 37.5q-111 0 -158 -74.5t-64 -187.5l-4 -20q-16 -109 14.5 -180.5t85.5 -101.5q8 -4 17 -5t17 -1q103 0 154.5 83t71.5 205z" />
    <glyph glyph-name="Eturn" unicode="&#x18e;" horiz-adv-x="1274" 
d="M1333 1490l-247 -1490h-1074l54 326h670l42 252h-614l53 318h614l44 268h-666l54 326h1070z" />
    <glyph glyph-name="uni018F" unicode="&#x18f;" horiz-adv-x="1545" 
d="M657 -20q-195 0 -335.5 76.5t-205 221t-30.5 348.5l34 206h980q9 155 -55 240.5t-199 85.5q-95 0 -168 -41.5t-105 -118.5h-408q41 150 149 265.5t261.5 181t328.5 65.5q201 0 351.5 -89.5t220.5 -261t29 -417.5q-39 -235 -157 -406t-295.5 -263.5t-395.5 -92.5z
M1029 544h-567q-13 -98 50.5 -155t198.5 -57q111 0 190 55t128 157z" />
    <glyph glyph-name="Epsilon1" unicode="&#x190;" horiz-adv-x="1369" 
d="M594 -20q-182 0 -312.5 57t-193 158.5t-40.5 232.5q23 137 127.5 227.5t288.5 110.5l1 10q-130 15 -203 95.5t-53 204.5q21 126 109 224t224 154t301 56q169 0 290 -59.5t178.5 -164.5t34.5 -242h-388q11 68 -36 111t-131 43q-76 0 -130.5 -41.5t-65.5 -106.5
q-11 -67 38.5 -110.5t139.5 -43.5h152l-46 -280h-152q-98 0 -166 -43t-80 -111q-11 -69 34 -112.5t129 -43.5q88 0 152 41.5t74 106.5h406q-23 -139 -118.5 -246t-241.5 -167.5t-322 -60.5z" />
    <glyph glyph-name="uni0191" unicode="&#x191;" horiz-adv-x="1196" 
d="M-284 -417l49 297q29 -4 57 -6.5t57 -2.5q59 0 84 17.5t32 62.5l8 49v0l2 15l19 113v0l226 1362h1048l-54 -326h-644l-56 -336h580l-53 -318h-580l-84 -510v0l-12 -73q-62 -368 -485 -368q-110 0 -194 24z" />
    <glyph glyph-name="florin" unicode="&#x192;" horiz-adv-x="1074" 
d="M1016 1082l-44 -268h-228l-134 -808q-34 -208 -163.5 -316.5t-326.5 -107.5q-43 -1 -83 2t-89 12l64 296q18 -4 42.5 -7.5t47.5 -4.5q75 1 96.5 35t31.5 91l134 808h-160l44 268h160l10 78q35 195 175.5 295.5t364.5 100.5q50 0 89 -5t81 -13l-66 -284q-23 5 -47 7t-67 1
q-58 1 -98 -25t-50 -77l-12 -78h228z" />
    <glyph glyph-name="uni0193" unicode="&#x193;" horiz-adv-x="1546" 
d="M726 -20q-195 0 -337.5 74.5t-220 212.5t-77.5 330q0 187 61 352.5t173.5 291.5t267.5 197.5t343 71.5q197 0 348 -83q12 135 105 196t274 61q109 0 194 -24l-45 -273q-30 4 -57.5 6.5t-56.5 2.5q-58 0 -85 -18t-35 -62l-52 -309v-9h-408q-6 77 -55 118.5t-136 41.5
q-106 0 -185.5 -49t-132.5 -130.5t-79.5 -180t-26.5 -198.5q0 -129 60 -198.5t184 -69.5q138 0 223 59.5t108 152.5h-269l47 288h660l-36 -219q-33 -204 -140 -345t-265.5 -214.5t-348.5 -73.5z" />
    <glyph glyph-name="Gamma1" unicode="&#x194;" horiz-adv-x="1682" 
d="M254 1490h466l181 -581l369 581h468l-705 -1012q71 -239 101 -394t16 -236q-13 -81 -77.5 -147t-166.5 -104.5t-230 -38.5q-194 0 -302.5 81t-85.5 221q5 30 18.5 67.5t48 101t99.5 170.5t171 276zM763 80q-28 -51 -47.5 -102t-25.5 -96q-12 -68 30 -68q40 0 50 70
q15 91 -7 196z" />
    <glyph glyph-name="uni0195" unicode="&#x195;" horiz-adv-x="2065" 
d="M10 0l246 1490h388l-96 -586h12q54 107 152 167.5t222 60.5q118 0 196.5 -54t111.5 -148.5t12 -217.5l-26 -154l-20 -128q-10 -58 14.5 -91.5t79.5 -32.5q124 -1 201.5 188t132.5 518l18 106h400l-16 -106q-56 -336 -154 -566t-256 -348t-394 -118q-254 0 -357.5 125.5
t-70.5 324.5l22 128l10 70q14 83 -19.5 130.5t-110.5 47.5q-73 0 -125.5 -47.5t-66.5 -130.5l-104 -628h-402z" />
    <glyph glyph-name="Iota" unicode="&#x196;" horiz-adv-x="691" 
d="M410 -6q-210 0 -292.5 79.5t-54.5 252.5l193 1164h402l-187 -1126q-11 -70 63 -70q36 0 51 6l12 -276q-25 -9 -73.5 -19.5t-113.5 -10.5z" />
    <glyph glyph-name="uni0197" unicode="&#x197;" horiz-adv-x="796" 
d="M754 1490l-247 -1490h-404l247 1490h404zM33 732l19 112h782l-19 -112h-782z" />
    <glyph glyph-name="uni0198" unicode="&#x198;" horiz-adv-x="1570" 
d="M2 0l248 1490h404l-96 -576h20l496 428q155 134 313 161t317 -69l-166 -282q-64 33 -108.5 11t-97.5 -67l-354 -304l476 -792h-482l-302 504l-210 -184l-52 -320h-406z" />
    <glyph glyph-name="uni0199" unicode="&#x199;" horiz-adv-x="1243" 
d="M158 896l40 240q62 368 487 368q110 0 194 -24l-45 -273q-29 4 -57 6.5t-57 2.5q-58 0 -85 -17.5t-35 -62.5l-3 -18l-62 -376h14l332 376h452l-461 -490l286 -628h-458l-163 394l-72 -77l-53 -317h-402l148 896v0z" />
    <glyph glyph-name="uni019A" unicode="&#x19a;" horiz-adv-x="606" 
d="M658 1490l-247 -1490h-402l247 1490h402zM-74 660l36 216h782l-36 -216h-782z" />
    <glyph glyph-name="lambdabar" unicode="&#x19b;" horiz-adv-x="1420" 
d="M1076 1370l-36 -212l-92 -27l192 -723q7 -25 17.5 -56t30 -53.5t50.5 -22.5h34l-50 -294q-20 -3 -42.5 -3t-49.5 1h-22.5h-23.5q-101 0 -166.5 36t-100.5 92t-47 116l-70 358l-284 -582h-402l538 1017l-268 -77l34 218l214 60q-36 36 -110 36q-13 0 -28.5 -0.5
t-41.5 -3.5l34 280q50 14 117 20t107 6q114 0 182 -46t90 -132l15 -58z" />
    <glyph glyph-name="mcapturn" unicode="&#x19c;" horiz-adv-x="2022" 
d="M810 147q-69 -79 -162 -123t-206 -44q-199 0 -273 100t-35 334l178 1076h372l-178 -1076q-10 -59 17 -97t97 -37q57 0 99.5 16.5t71.5 46.5q3 34 9 71l178 1076h372l-178 -1076q-10 -59 17 -97t97 -37q54 0 94.5 15t70.5 42l193 1153h378l-248 -1490h-334l1 119
q-67 -66 -151 -102.5t-182 -36.5q-112 0 -188.5 39t-109.5 128z" />
    <glyph glyph-name="Nhook" unicode="&#x19d;" horiz-adv-x="1576" 
d="M-284 -417l49 297q29 -4 57 -6.5t57 -2.5q59 0 84 17.5t32 62.5l8 49v0l2 15l19 113v0l226 1362h440l258 -585q41 -92 72.5 -185.5t56.5 -219.5q11 114 24 238t26 206l91 546h416l-247 -1490h-440l-241 544q-50 114 -82.5 211t-65.5 222q-12 -128 -24.5 -243.5
t-24.5 -189.5l-90 -544h-12l-12 -73q-62 -368 -485 -368q-110 0 -194 24z" />
    <glyph glyph-name="uni019E" unicode="&#x19e;" horiz-adv-x="1331" 
d="M516 628l-104 -628h-402l185 1118h377l-34 -252q58 114 144.5 190t229.5 76q119 0 202.5 -54t121.5 -149t18 -217l-187 -1130h-402l173 1046q14 83 -15 130.5t-103 47.5t-132 -47.5t-72 -130.5z" />
    <glyph glyph-name="Obar" unicode="&#x19f;" horiz-adv-x="1590" 
d="M720 -20q-184 0 -326 71.5t-222.5 209t-80.5 336.5q0 187 59 352.5t169.5 291.5t265.5 197.5t347 71.5q183 0 324.5 -71t222.5 -209t81 -338q0 -187 -59.5 -352t-170 -291t-265 -197.5t-345.5 -71.5zM737 332q143 0 232.5 87t133.5 209h-600q-1 -17 -1 -34
q0 -262 235 -262zM548 862h600q1 17 1 34q0 262 -234 262q-142 0 -232.5 -87t-134.5 -209z" />
    <glyph glyph-name="Ohorn" unicode="&#x1a0;" horiz-adv-x="1628" 
d="M720 -20q-184 0 -326 71.5t-222.5 209t-80.5 336.5q0 187 59 352.5t169.5 291.5t265.5 197.5t347 71.5q20 0 39 -1v1q58 0 102.5 -5t99 -10t139.5 -5q31 0 37 32l29 176h348l-34 -208q-18 -108 -83.5 -159t-155.5 -62q51 -73 79 -167.5t28 -209.5q0 -187 -59.5 -352
t-170 -291t-265 -197.5t-345.5 -71.5zM737 332q109 0 187 51.5t128 136t73.5 183.5t23.5 193q0 262 -234 262q-109 0 -187.5 -52t-128.5 -136.5t-73.5 -183t-23.5 -192.5q0 -262 235 -262z" />
    <glyph glyph-name="ohorn" unicode="&#x1a1;" horiz-adv-x="1280" 
d="M566 -20q-247 0 -379 130t-132 345q0 136 44 258t128.5 216.5t207 148.5t280.5 54h19v0q52 0 117 -7t105 -7t45 32l30 176h340l-35 -208q-13 -81 -62.5 -129t-116.5 -68q67 -111 67 -264q0 -135 -43 -257t-127 -216.5t-206.5 -149t-281.5 -54.5zM582 280q67 0 113 42
t73.5 105.5t39.5 131t12 117.5q0 77 -32.5 116.5t-88.5 39.5q-68 0 -114.5 -41t-74 -103.5t-39.5 -129t-12 -117.5q0 -78 33.5 -119.5t89.5 -41.5z" />
    <glyph glyph-name="OI" unicode="&#x1a2;" horiz-adv-x="2014" 
d="M2068 1490l-316 -1908h-372l238 1434l-175 -78l-65 -390l-2 -12v0l-60 -358q-48 -41 -138.5 -87t-214.5 -78.5t-273 -32.5q-328 0 -480.5 186.5t-97.5 523.5l13 76l5 34q56 338 270.5 524t543.5 186q194 0 326.5 -52t198.5 -110l321 142h278zM996 530v0l104 622
q-32 26 -84.5 36.5t-105.5 9.5q-129 1 -204.5 -46t-115 -136t-60.5 -216l-4 -24v0l-2 -12l-12 -68h-1l-1 -6q-19 -119 -6.5 -209t72 -140t180.5 -51q71 1 125 17t83 33z" />
    <glyph glyph-name="uni01A3" unicode="&#x1a3;" horiz-adv-x="1676" 
d="M1682 1118l-254 -1536h-378l188 1136l-98 -27l-14 -89h-2l-58 -354q-48 -71 -117 -132.5t-170.5 -98.5t-248.5 -37q-179 0 -286 70.5t-145 195.5t-11 286l2 18q29 175 110 305.5t212 203.5t310 73q120 0 207.5 -45.5t142.5 -106.5l366 138h244zM572 282q89 0 134 46
l50 310v0l20 128q-13 32 -40.5 49t-77.5 17q-69 0 -106.5 -37t-56.5 -101t-33 -144l-2 -18q-10 -58 -13.5 -115.5t22.5 -96t103 -38.5z" />
    <glyph glyph-name="uni01A4" unicode="&#x1a4;" horiz-adv-x="1823" 
d="M119 1024l11 72q35 206 173 300t405 94h664q166 0 279.5 -65.5t163.5 -184.5t23 -278q-26 -160 -116.5 -276.5t-229 -180t-308.5 -63.5h-224l-73 -442h-404l193 1164h-38q-142 0 -161 -112l-4 -28h-354zM1012 756h142q107 0 176.5 56t85.5 150q17 97 -35 150.5t-159 53.5
h-142z" />
    <glyph glyph-name="uni01A5" unicode="&#x1a5;" horiz-adv-x="1321" 
d="M158 896l40 240q62 368 487 368q110 0 194 -24l-45 -273q-29 4 -57 6.5t-57 2.5q-58 0 -85 -17.5t-35 -62.5l-3 -18l-33 -196h2q47 86 131.5 148t200.5 62q100 0 184 -46t135.5 -143t51.5 -249q0 -111 -29 -234t-91.5 -230.5t-162 -175.5t-240.5 -68q-126 0 -199 62.5
t-93 147.5h-12l-100 -614h-402l218 1314v0zM608 294q70 0 117.5 39.5t76.5 99.5t42 123t13 111q0 157 -121 157q-62 0 -109.5 -34.5t-79.5 -90t-48.5 -119.5t-16.5 -123q0 -77 32.5 -120t93.5 -43z" />
    <glyph glyph-name="YR" unicode="&#x1a6;" horiz-adv-x="1618" 
d="M230 1388l34 204h390l-17 -102h227q176 0 298.5 -51t179 -149t32.5 -242q-20 -126 -68.5 -208t-120 -134.5t-160.5 -89.5l353 -944l-4 -16h-418l-308 862h-170l-86 -518h-392l231 1388h-1zM530 830h224q94 -1 152 43.5t72 126.5q14 83 -30.5 129t-135.5 47h-224z" />
    <glyph glyph-name="uni01A7" unicode="&#x1a7;" horiz-adv-x="1364" 
d="M582 -18q-283 0 -432 118.5t-112 339.5q28 170 157 287t384 169l127 26q110 23 162 56t61 86q8 50 -25.5 82t-127.5 32q-98 0 -157 -40.5t-76 -113.5h-388q25 146 110.5 255.5t223.5 170t318 60.5q177 0 307 -59.5t193 -166t40 -248.5q-29 -175 -159.5 -276.5
t-334.5 -143.5l-155 -32q-128 -26 -184 -60t-64 -84q-9 -55 31.5 -90.5t137.5 -35.5q117 0 196 53.5t101 156.5h384q-48 -280 -237 -411t-481 -131z" />
    <glyph glyph-name="uni01A8" unicode="&#x1a8;" horiz-adv-x="1205" 
d="M115 754q36 177 192.5 277.5t397.5 100.5q240 0 362.5 -94.5t93.5 -269.5q-44 -267 -394 -328l-204 -36q-132 -23 -142 -82q-5 -34 28 -53t88 -19q68 0 117.5 28.5t67.5 81.5h398q-45 -171 -206.5 -275.5t-418.5 -104.5q-154 0 -268 47.5t-169.5 135t-36.5 207.5
q41 242 390 302l235 40q65 11 90 33t29 47q6 35 -27 53.5t-85 18.5q-59 0 -108 -29.5t-62 -80.5h-368z" />
    <glyph glyph-name="uni01A9" unicode="&#x1a9;" horiz-adv-x="1467" 
d="M12 0l48 292l364 309q38 32 95 74t117 84q-45 39 -87.5 80t-69.5 72l-237 275l51 304h1206l-54 -326h-420q-81 0 -169 1.5t-173 4.5q54 -45 109 -92.5t91 -90.5l152 -179l-24 -144l-213 -182q-45 -38 -103.5 -79.5t-117.5 -81.5q77 2 156.5 3.5t152.5 1.5h438l-54 -326
h-1258z" />
    <glyph glyph-name="eshlooprev" unicode="&#x1aa;" horiz-adv-x="1490" 
d="M238 1100q21 124 101 227.5t197 166t246 62.5q130 0 226.5 -62.5t143.5 -166t26 -227.5v-3l-182 -1089q-12 -73 21.5 -112.5t100.5 -39.5q26 0 50.5 2t57.5 6l-46 -294q-44 -8 -86 -11t-92 -3q-208 0 -312.5 116.5t-67.5 335.5l106 644q-48 -10 -96 -10
q-128 1 -224.5 62.5t-143 165t-26.5 230.5zM686 954q59 0 107.5 37t58.5 111q11 73 -25.5 108t-92.5 36q-67 -1 -113.5 -37.5t-58.5 -106.5q-14 -73 22.5 -110.5t101.5 -37.5z" />
    <glyph glyph-name="uni01AB" unicode="&#x1ab;" horiz-adv-x="820" 
d="M5 -420l45 273q29 -4 57 -6.5t57 -2.5q131 0 131 106v52q-214 62 -171 320l84 504h-143l48 292h143l44 266h402l-44 -266h191l-48 -292h-192l-77 -467q-10 -70 65 -70q18 0 53 4.5t47 8.5v-287l1 -40q7 -193 -127.5 -306t-371.5 -113q-110 0 -194 24z" />
    <glyph glyph-name="uni01AC" unicode="&#x1ac;" horiz-adv-x="1612" 
d="M218 1024l11 72q35 206 173 300t405 94h903l-54 -326h-445l-193 -1164h-404l193 1164h-70q-142 0 -161 -112l-4 -28h-354z" />
    <glyph glyph-name="uni01AD" unicode="&#x1ad;" horiz-adv-x="832" 
d="M458 -17q-379 0 -323 339l84 504h-142l48 292h142l3 18q62 368 487 368q110 0 194 -24l-45 -273q-29 4 -57 6.5t-57 2.5q-58 0 -85 -17.5t-35 -62.5l-3 -18h192l-48 -292h-192l-77 -466q-12 -70 64 -70q18 0 43 4t37 8l11 -284q-72 -19 -129.5 -27t-111.5 -8z" />
    <glyph glyph-name="Trthook" unicode="&#x1ae;" horiz-adv-x="1406" 
d="M808 0l-6 -34q-8 -51 37 -68t97 -18h68l-50 -298h-174q-80 0 -156 11.5t-133.5 49.5t-83 115.5t-3.5 209.5l6 32h-2l193 1164h-445l54 326h1294l-54 -326h-445l-193 -1164h-4z" />
    <glyph glyph-name="Uhorn" unicode="&#x1af;" horiz-adv-x="1478" 
d="M1092 1250l40 240h190q31 0 37 32l29 176h348l-34 -208q-16 -96 -71.5 -152t-132.5 -76l-122 -739q-28 -170 -126 -291.5t-249 -185.5t-338 -64q-197 0 -335 70.5t-200 198.5t-34 298l156 941h404l-154 -933q-17 -104 33.5 -164.5t146.5 -60.5q75 0 139.5 34t108 91
t54.5 126l110 667v0z" />
    <glyph glyph-name="uhorn" unicode="&#x1b0;" horiz-adv-x="1420" 
d="M398 -14q-118 0 -197 54t-111.5 149t-12.5 217l118 712h402l-104 -628q-13 -83 21 -130.5t110 -47.5q74 0 126 47.5t65 130.5l104 628h229q32 0 37 32l36 216h300l-41 -248q-15 -94 -68.5 -149.5t-127.5 -76.5l-148 -892h-377l34 253q-60 -115 -156 -191t-239 -76z" />
    <glyph glyph-name="Upsilon2" unicode="&#x1b1;" horiz-adv-x="1618" 
d="M90 666q29 170 117.5 291t216.5 195l4 12h-256l54 326h632l-66 -408q-107 -39 -184 -142t-98 -234q-27 -163 46 -267t214 -105q95 1 176 48.5t136 131.5t72 192q23 131 -18 234t-136 142l68 408h630l-54 -326h-256v-10q104 -76 153.5 -197t20.5 -291
q-25 -150 -100 -275.5t-188.5 -217.5t-256.5 -142.5t-305 -50.5q-215 0 -366.5 88t-220 243t-35.5 355z" />
    <glyph glyph-name="Vcursive" unicode="&#x1b2;" horiz-adv-x="1420" 
d="M616 -20q-181 0 -308 63t-183.5 184t-28.5 293l160 970h390l-160 -970q-17 -106 22.5 -167.5t161.5 -62.5q120 1 176 62.5t74 167.5l86 538q13 77 -4 104.5t-92 27.5q-23 0 -48.5 -2t-59.5 -6l54 310q48 10 88 14t78 4q221 0 318 -116t62 -336l-88 -538
q-27 -171 -121.5 -292t-242 -184.5t-334.5 -63.5z" />
    <glyph glyph-name="uni01B3" unicode="&#x1b3;" horiz-adv-x="1730" 
d="M206 1490h434l264 -606h17l295 384q97 127 208 181.5t223 55.5t211 -35l-130 -298q-84 24 -132.5 -1.5t-111.5 -102.5l-426 -518l-92 -550h-402l94 550z" />
    <glyph glyph-name="uni01B4" unicode="&#x1b4;" horiz-adv-x="1548" 
d="M964 1118l15 30q58 116 117.5 195t145 120t220.5 41q62 0 109.5 -7.5t89.5 -19.5l-30 -268q-29 4 -55.5 5.5t-48.5 1.5q-66 0 -89.5 -25t-47.5 -66l-4 -7h-3l-663 -1220q-49 -91 -119 -164.5t-170 -116.5t-241 -43q-69 0 -134 10t-109 28l135 286l50 -14q94 -26 156 2.5
t52 80.5l-6 32l-229 1119h414l61 -510q8 -71 9.5 -142.5t1.5 -147.5q29 77 59.5 148t64.5 142l244 510h5z" />
    <glyph glyph-name="Zbar" unicode="&#x1b5;" horiz-adv-x="1423" 
d="M10 0l37 224l860 940h-702l54 326h1216l-37 -224l-860 -940h702l-54 -326h-1216zM261 621l41 248h920l-41 -248h-920z" />
    <glyph glyph-name="zbar" unicode="&#x1b6;" horiz-adv-x="1208" 
d="M21 0l37 222l576 584l1 6h-464l51 306h946l-41 -246l-528 -560l-1 -6h454l-51 -306h-980zM201 502l19 112h782l-19 -112h-782z" />
    <glyph glyph-name="uni01B7" unicode="&#x1b7;" horiz-adv-x="1414" 
d="M-14 136h408q-13 -109 41 -176.5t153 -67.5q117 0 195 90.5t101 231.5q26 158 -34 248.5t-176 89.5h-194l46 280l414 314v12h-704l56 332h1190l-48 -292l-522 -392l-4 -14q148 -16 247 -92.5t140 -199t15 -278.5q-24 -145 -93 -266.5t-172.5 -210.5t-232.5 -138t-272 -49
q-186 0 -319.5 74.5t-196.5 205.5t-38 298z" />
    <glyph glyph-name="uni01B8" unicode="&#x1b8;" horiz-adv-x="1414" 
d="M1288 136q-31 -167 -138 -298t-264.5 -205.5t-343.5 -74.5q-191 0 -325.5 85.5t-195 235.5t-29.5 343q26 156 107.5 278.5t205 199t275.5 92.5l4 14l-392 392l48 292h1190l-56 -332h-704v-12l308 -314l-48 -280h-194q-115 1 -204.5 -89.5t-115.5 -248.5
q-23 -141 24.5 -231.5t163.5 -90.5q99 0 176.5 67.5t99.5 176.5h408z" />
    <glyph glyph-name="uni01B9" unicode="&#x1b9;" horiz-adv-x="1371" 
d="M529 -392q-173 0 -303.5 55.5t-195.5 156t-43 236.5q14 83 67 168.5t161 151t287 86.5l2 12l-343 352l48 292h1102l-54 -324h-622l-1 -8l257 -274l-45 -268h-188q-93 0 -159 -40t-78 -114q-11 -66 32 -111t130 -45q84 0 148.5 41.5t78.5 106.5h406q-25 -138 -118 -245
t-239 -168t-330 -61z" />
    <glyph glyph-name="uni01BA" unicode="&#x1ba;" horiz-adv-x="1228" 
d="M265 1118h924l-35 -212l-319 -234q129 -40 186 -128t39 -194q-17 -105 -90 -175.5t-178.5 -114.5t-221.5 -70q-107 -24 -152.5 -49t-50.5 -57q-7 -42 30 -59t89 -17q63 0 119 25t71 95h348q-14 -86 -86.5 -171.5t-194.5 -142t-286 -56.5q-232 0 -354 97t-97 251
q23 140 138 223t346 123q90 15 149 39t68 77q7 41 -22.5 63.5t-79.5 22.5h-288l35 210l215 154h-352z" />
    <glyph glyph-name="uni01BB" unicode="&#x1bb;" horiz-adv-x="1325" 
d="M6 0l48 290l632 460q94 68 155.5 131.5t74.5 142.5q14 85 -31.5 129.5t-128.5 44.5q-85 0 -148.5 -50t-79.5 -144h-384q39 235 205.5 370.5t426.5 135.5q179 0 306.5 -57t188 -160.5t37.5 -242.5q-11 -64 -38 -127t-82.5 -132.5t-150 -153t-239.5 -189.5l-159 -116
l-2 -10h566l-53 -322h-1144zM321 549l41 248h920l-41 -248h-920z" />
    <glyph glyph-name="uni01BC" unicode="&#x1bc;" horiz-adv-x="1347" 
d="M599 -20q-172 0 -299 60.5t-189.5 167.5t-41.5 246h394q-13 -77 34 -122.5t128 -45.5q92 0 164 58.5t88 155.5q16 98 -28 157t-136 59q-65 0 -128 -31t-98 -85l-344 70l117 496h-104l54 324h1129l-54 -324h-670l-82 -328h8q47 68 132 112t198 44q133 0 231 -61.5
t144.5 -170t22.5 -250.5q-26 -156 -116 -276t-231.5 -188t-322.5 -68z" />
    <glyph glyph-name="uni01BD" unicode="&#x1bd;" horiz-adv-x="1498" 
d="M634 454l-344 12l103 332h-169l46 284h1042l-46 -284h-528l-52 -144q39 16 100 28.5t142 13.5q194 -1 286 -94t66 -258q-27 -157 -165.5 -259t-412.5 -103q-146 1 -263.5 36.5t-179 113t-41.5 202.5l378 12q2 -37 42 -49t112 -11q142 -1 160 92q7 40 -30 63.5t-106 24.5
q-53 -1 -88 -3t-52 -9z" />
    <glyph glyph-name="glottalstopbarinv" unicode="&#x1be;" horiz-adv-x="1228" 
d="M718 312q7 39 -23 64t-74 51q-50 30 -103 72.5t-85.5 116.5t-18.5 198h-132l44 268h133l47 276h378l-46 -276h184l-44 -268h-183q-6 -65 13.5 -104.5t53.5 -65t73 -47.5q43 -25 82 -55.5t58.5 -82.5t4.5 -141q-15 -96 -89 -172.5t-194.5 -121t-276.5 -44.5
q-164 0 -267.5 57.5t-148 143.5t-32.5 169h350q-5 -68 41.5 -94t106.5 -26t101.5 19t46.5 63z" />
    <glyph glyph-name="uni01BF" unicode="&#x1bf;" horiz-adv-x="1440" 
d="M622 1014q54 55 122.5 86.5t153.5 31.5q214 0 304 -149.5t58 -394.5l-8 -56q-26 -196 -125.5 -333.5t-268 -229t-401.5 -151.5l-35 -234h-378l226 1534h356zM499 108q151 43 252.5 152t122.5 272l8 56q9 67 4.5 123t-33 90t-93.5 33q-116 1 -164 -70z" />
    <glyph glyph-name="pipe" unicode="&#x1c0;" horiz-adv-x="660" 
d="M574 1446l-240 -1446h-194l238 1446h196z" />
    <glyph glyph-name="pipedbl" unicode="&#x1c1;" horiz-adv-x="856" 
d="M556 1446l-240 -1446h-194l238 1446h196zM824 1446l-240 -1446h-194l238 1446h196z" />
    <glyph glyph-name="pipedblbar" unicode="&#x1c2;" horiz-adv-x="606" 
d="M545 1446l-240 -1446h-194l238 1446h196zM-50 804l36 216h782l-36 -216h-782zM-126 342l36 216h782l-36 -216h-782z" />
    <glyph glyph-name="exclam1" unicode="&#x1c3;" horiz-adv-x="778" 
d="M192 466l140 1024h424l-200 -1024h-364zM306 -24q-95 0 -150 66t-39 163q13 77 74 127t141 50q95 0 150 -66t39 -163q-13 -77 -74 -127t-141 -50z" />
    <glyph glyph-name="Dzcaron_" unicode="&#x1c5;" horiz-adv-x="2687" 
d="M625 0h-622l247 1490h552q230 0 386 -89.5t223.5 -256.5t28.5 -400q-58 -349 -266.5 -546.5t-548.5 -197.5zM464 344h154q111 0 195 35t140 122.5t81 242.5q26 156 1 243.5t-98 123t-190 35.5h-150zM1500 0l37 222l576 584l1 6h-464l51 306h946l-41 -246l-528 -560l-1 -6
h454l-51 -306h-980zM2112 1582l114 -166l170 166h332l-1 -6l-387 -320h-280l-281 320l1 6h332z" />
    <glyph glyph-name="uni01C6" unicode="&#x1c6;" horiz-adv-x="2362" 
d="M428 -14q-160 0 -268 110t-108 330q0 127 33.5 252t99.5 228t163 164.5t224 61.5q133 0 204.5 -68t89.5 -154h10l96 580h402l-247 -1490h-398l34 184h-13q-49 -95 -130.5 -146.5t-191.5 -51.5zM586 294q83 0 139 59t85 145t29 165q0 161 -125 161q-63 0 -110 -35.5
t-78 -92.5t-46.5 -122t-15.5 -124q0 -156 122 -156zM1175 0l37 222l576 584l1 6h-464l51 306h946l-41 -246l-528 -560l-1 -6h454l-51 -306h-980zM1787 1582l114 -166l170 166h332l-1 -6l-387 -320h-280l-281 320l1 6h332z" />
    <glyph glyph-name="uni01C7" unicode="&#x1c7;" horiz-adv-x="2379" 
d="M3 0l247 1490h404l-193 -1164h602l-54 -326h-1006zM1665 -20q-233 0 -362 99t-129 285q0 24 4.5 61t20.5 134h404q-15 -88 -18 -112.5t-3 -35.5q0 -117 119 -117q139 0 167 166l171 1030h398l-170 -1022q-39 -235 -191 -361.5t-411 -126.5z" />
    <glyph glyph-name="uni01C8" unicode="&#x1c8;" horiz-adv-x="1764" 
d="M3 0l247 1490h404l-193 -1164h602l-54 -326h-1006zM1352 1118h402l-191 -1156q-24 -147 -99.5 -229.5t-192 -116.5t-263.5 -34h-82l49 296h46q73 0 103 22t38 70zM1572 1232q-82 0 -131 54t-37 130q13 77 80 130.5t149 53.5t131 -53.5t36 -130.5q-12 -76 -79 -130
t-149 -54z" />
    <glyph glyph-name="uni01C9" unicode="&#x1c9;" horiz-adv-x="1212" 
d="M658 1490l-247 -1490h-402l247 1490h402zM800 1118h402l-191 -1156q-24 -147 -99.5 -229.5t-192 -116.5t-263.5 -34h-82l49 296h46q73 0 103 22t38 70zM1020 1232q-82 0 -131 54t-37 130q13 77 80 130.5t149 53.5t131 -53.5t36 -130.5q-12 -76 -79 -130t-149 -54z" />
    <glyph glyph-name="uni01CA" unicode="&#x1ca;" horiz-adv-x="2797" 
d="M3 0l247 1490h440l258 -585q41 -92 72.5 -185.5t56.5 -219.5q11 114 24 238t26 206l91 546h416l-247 -1490h-440l-241 544q-50 114 -82.5 211t-65.5 222q-12 -128 -24.5 -243.5t-24.5 -189.5l-90 -544h-416zM2083 -20q-233 0 -362 99t-129 285q0 24 4.5 61t20.5 134h404
q-15 -88 -18 -112.5t-3 -35.5q0 -117 119 -117q139 0 167 166l171 1030h398l-170 -1022q-39 -235 -191 -361.5t-411 -126.5z" />
    <glyph glyph-name="uni01CB" unicode="&#x1cb;" horiz-adv-x="2182" 
d="M3 0l247 1490h440l258 -585q41 -92 72.5 -185.5t56.5 -219.5q11 114 24 238t26 206l91 546h416l-247 -1490h-440l-241 544q-50 114 -82.5 211t-65.5 222q-12 -128 -24.5 -243.5t-24.5 -189.5l-90 -544h-416zM1770 1118h402l-191 -1156q-24 -147 -99.5 -229.5t-192 -116.5
t-263.5 -34h-82l49 296h46q73 0 103 22t38 70zM1990 1232q-82 0 -131 54t-37 130q13 77 80 130.5t149 53.5t131 -53.5t36 -130.5q-12 -76 -79 -130t-149 -54z" />
    <glyph glyph-name="uni01CC" unicode="&#x1cc;" horiz-adv-x="1936" 
d="M513 615l-102 -615h-402l186 1118h376l-29 -227q60 108 149 174.5t221 66.5q124 0 207 -57.5t118 -155.5t14 -220l-116 -699h-402l107 641q14 83 -23.5 124t-105.5 41q-82 0 -133 -54t-65 -137zM1524 1118h402l-191 -1156q-24 -147 -99.5 -229.5t-192 -116.5t-263.5 -34
h-82l49 296h46q73 0 103 22t38 70zM1744 1232q-82 0 -131 54t-37 130q13 77 80 130.5t149 53.5t131 -53.5t36 -130.5q-12 -76 -79 -130t-149 -54z" />
    <glyph glyph-name="uni01CD" unicode="&#x1cd;" horiz-adv-x="1628" 
d="M-47 0l730 1490h552l254 -1490h-442l-38 286h-459l-129 -286h-468zM686 588h283q-18 137 -30.5 281t-22.5 290q-55 -146 -111.5 -290t-118.5 -281zM899 1954l114 -166l170 166h332l-1 -6l-387 -320h-280l-281 320l1 6h332z" />
    <glyph glyph-name="uni01CE" unicode="&#x1ce;" horiz-adv-x="1322" 
d="M407 -14q-119 0 -209 62.5t-129.5 189.5t-7.5 320q34 203 118 329.5t194 185.5t221 59q124 0 192.5 -62t87.5 -148h6l32 196h400l-185 -1118h-398l30 184h-8q-49 -85 -137.5 -141.5t-206.5 -56.5zM606 294q83 0 142.5 71.5t78.5 192.5q21 125 -15 195.5t-119 70.5
q-82 0 -139.5 -70.5t-78.5 -195.5q-20 -124 14.5 -194t116.5 -70zM694 1582l114 -166l170 166h332l-1 -6l-387 -320h-280l-281 320l1 6h332z" />
    <glyph glyph-name="uni01CF" unicode="&#x1cf;" horiz-adv-x="596" 
d="M654 1490l-247 -1490h-404l247 1490h404zM389 1954l114 -166l170 166h332l-1 -6l-387 -320h-280l-281 320l1 6h332z" />
    <glyph glyph-name="uni01D0" unicode="&#x1d0;" horiz-adv-x="607" 
d="M10 0l185 1118h402l-185 -1118h-402zM330 1582l114 -166l170 166h332l-1 -6l-387 -320h-280l-281 320l1 6h332z" />
    <glyph glyph-name="uni01D1" unicode="&#x1d1;" horiz-adv-x="1590" 
d="M720 -20q-184 0 -326 71.5t-222.5 209t-80.5 336.5q0 187 59 352.5t169.5 291.5t265.5 197.5t347 71.5q183 0 324.5 -71t222.5 -209t81 -338q0 -187 -59.5 -352t-170 -291t-265 -197.5t-345.5 -71.5zM737 332q109 0 187 51.5t128 136t73.5 183.5t23.5 193q0 262 -234 262
q-109 0 -187.5 -52t-128.5 -136.5t-73.5 -183t-23.5 -192.5q0 -262 235 -262zM884 1954l114 -166l170 166h332l-1 -6l-387 -320h-280l-281 320l1 6h332z" />
    <glyph glyph-name="uni01D2" unicode="&#x1d2;" horiz-adv-x="1280" 
d="M566 -20q-247 0 -379 130t-132 345q0 136 44 258t128.5 216.5t207 148.5t280.5 54q246 0 377.5 -130t131.5 -345q0 -135 -43 -257t-127 -216.5t-206.5 -149t-281.5 -54.5zM582 280q67 0 113 42t73.5 105.5t39.5 131t12 117.5q0 77 -32.5 116.5t-88.5 39.5
q-68 0 -114.5 -41t-74 -103.5t-39.5 -129t-12 -117.5q0 -78 33.5 -119.5t89.5 -41.5zM668 1582l114 -166l170 166h332l-1 -6l-387 -320h-280l-281 320l1 6h332z" />
    <glyph glyph-name="uni01D3" unicode="&#x1d3;" horiz-adv-x="1478" 
d="M663 -18q-197 0 -335 70.5t-200 198.5t-34 298l156 941h404l-154 -933q-17 -104 33.5 -164.5t146.5 -60.5q75 0 139.5 34t108 91t54.5 126l150 907h404l-160 -967q-28 -170 -126 -291.5t-249 -185.5t-338 -64zM827 1954l114 -166l170 166h332l-1 -6l-387 -320h-280
l-281 320l1 6h332z" />
    <glyph glyph-name="uni01D4" unicode="&#x1d4;" horiz-adv-x="1331" 
d="M398 -14q-118 0 -197 54t-111.5 149t-12.5 217l118 712h402l-104 -628q-13 -83 21 -130.5t110 -47.5q74 0 126 47.5t65 130.5l104 628h402l-185 -1118h-377l34 253q-60 -115 -156 -191t-239 -76zM694 1582l114 -166l170 166h332l-1 -6l-387 -320h-280l-281 320l1 6h332z
" />
    <glyph glyph-name="uni01D5" unicode="&#x1d5;" horiz-adv-x="1478" 
d="M663 -18q-197 0 -335 70.5t-200 198.5t-34 298l156 941h404l-154 -933q-17 -104 33.5 -164.5t146.5 -60.5q75 0 139.5 34t108 91t54.5 126l150 907h404l-160 -967q-28 -170 -126 -291.5t-249 -185.5t-338 -64zM1366 2230l-39 -186h-600l39 186h600zM679 1595
q-73 0 -116 49.5t-32 119.5q12 70 71.5 119.5t132.5 49.5t116.5 -49.5t31.5 -119.5q-11 -70 -71 -119.5t-133 -49.5zM1141 1595q-73 0 -116 49.5t-32 119.5q12 70 71.5 119.5t132.5 49.5t116.5 -49.5t31.5 -119.5q-11 -70 -71 -119.5t-133 -49.5z" />
    <glyph glyph-name="uni01D6" unicode="&#x1d6;" horiz-adv-x="1331" 
d="M398 -14q-118 0 -197 54t-111.5 149t-12.5 217l118 712h402l-104 -628q-13 -83 21 -130.5t110 -47.5q74 0 126 47.5t65 130.5l104 628h402l-185 -1118h-377l34 253q-60 -115 -156 -191t-239 -76zM1233 1858l-39 -186h-600l39 186h600zM546 1223q-73 0 -116 49.5
t-32 119.5q12 70 71.5 119.5t132.5 49.5t116.5 -49.5t31.5 -119.5q-11 -70 -71 -119.5t-133 -49.5zM1008 1223q-73 0 -116 49.5t-32 119.5q12 70 71.5 119.5t132.5 49.5t116.5 -49.5t31.5 -119.5q-11 -70 -71 -119.5t-133 -49.5z" />
    <glyph glyph-name="uni01D7" unicode="&#x1d7;" horiz-adv-x="1478" 
d="M663 -18q-197 0 -335 70.5t-200 198.5t-34 298l156 941h404l-154 -933q-17 -104 33.5 -164.5t146.5 -60.5q75 0 139.5 34t108 91t54.5 126l150 907h404l-160 -967q-28 -170 -126 -291.5t-249 -185.5t-338 -64zM679 1595q-73 0 -116 49.5t-32 119.5q12 70 71.5 119.5
t132.5 49.5t116.5 -49.5t31.5 -119.5q-11 -70 -71 -119.5t-133 -49.5zM1141 1595q-73 0 -116 49.5t-32 119.5q12 70 71.5 119.5t132.5 49.5t116.5 -49.5t31.5 -119.5q-11 -70 -71 -119.5t-133 -49.5zM882 2004l154 261h275l-218 -261h-211z" />
    <glyph glyph-name="uni01D8" unicode="&#x1d8;" horiz-adv-x="1331" 
d="M398 -14q-118 0 -197 54t-111.5 149t-12.5 217l118 712h402l-104 -628q-13 -83 21 -130.5t110 -47.5q74 0 126 47.5t65 130.5l104 628h402l-185 -1118h-377l34 253q-60 -115 -156 -191t-239 -76zM546 1223q-73 0 -116 49.5t-32 119.5q12 70 71.5 119.5t132.5 49.5
t116.5 -49.5t31.5 -119.5q-11 -70 -71 -119.5t-133 -49.5zM1008 1223q-73 0 -116 49.5t-32 119.5q12 70 71.5 119.5t132.5 49.5t116.5 -49.5t31.5 -119.5q-11 -70 -71 -119.5t-133 -49.5zM749 1632l154 261h275l-218 -261h-211z" />
    <glyph glyph-name="uni01D9" unicode="&#x1d9;" horiz-adv-x="1478" 
d="M663 -18q-197 0 -335 70.5t-200 198.5t-34 298l156 941h404l-154 -933q-17 -104 33.5 -164.5t146.5 -60.5q75 0 139.5 34t108 91t54.5 126l150 907h404l-160 -967q-28 -170 -126 -291.5t-249 -185.5t-338 -64zM916 2265l91 -133l136 133h266l-1 -5l-309 -256h-224
l-225 256l1 5h265zM679 1595q-73 0 -116 49.5t-32 119.5q12 70 71.5 119.5t132.5 49.5t116.5 -49.5t31.5 -119.5q-11 -70 -71 -119.5t-133 -49.5zM1141 1595q-73 0 -116 49.5t-32 119.5q12 70 71.5 119.5t132.5 49.5t116.5 -49.5t31.5 -119.5q-11 -70 -71 -119.5t-133 -49.5
z" />
    <glyph glyph-name="uni01DA" unicode="&#x1da;" horiz-adv-x="1331" 
d="M398 -14q-118 0 -197 54t-111.5 149t-12.5 217l118 712h402l-104 -628q-13 -83 21 -130.5t110 -47.5q74 0 126 47.5t65 130.5l104 628h402l-185 -1118h-377l34 253q-60 -115 -156 -191t-239 -76zM783 1893l91 -133l136 133h266l-1 -5l-309 -256h-224l-225 256l1 5h265z
M546 1223q-73 0 -116 49.5t-32 119.5q12 70 71.5 119.5t132.5 49.5t116.5 -49.5t31.5 -119.5q-11 -70 -71 -119.5t-133 -49.5zM1008 1223q-73 0 -116 49.5t-32 119.5q12 70 71.5 119.5t132.5 49.5t116.5 -49.5t31.5 -119.5q-11 -70 -71 -119.5t-133 -49.5z" />
    <glyph glyph-name="uni01DB" unicode="&#x1db;" horiz-adv-x="1478" 
d="M663 -18q-197 0 -335 70.5t-200 198.5t-34 298l156 941h404l-154 -933q-17 -104 33.5 -164.5t146.5 -60.5q75 0 139.5 34t108 91t54.5 126l150 907h404l-160 -967q-28 -170 -126 -291.5t-249 -185.5t-338 -64zM679 1595q-73 0 -116 49.5t-32 119.5q12 70 71.5 119.5
t132.5 49.5t116.5 -49.5t31.5 -119.5q-11 -70 -71 -119.5t-133 -49.5zM1141 1595q-73 0 -116 49.5t-32 119.5q12 70 71.5 119.5t132.5 49.5t116.5 -49.5t31.5 -119.5q-11 -70 -71 -119.5t-133 -49.5zM881 2004l-131 261h275l68 -261h-212z" />
    <glyph glyph-name="uni01DC" unicode="&#x1dc;" horiz-adv-x="1331" 
d="M398 -14q-118 0 -197 54t-111.5 149t-12.5 217l118 712h402l-104 -628q-13 -83 21 -130.5t110 -47.5q74 0 126 47.5t65 130.5l104 628h402l-185 -1118h-377l34 253q-60 -115 -156 -191t-239 -76zM546 1223q-73 0 -116 49.5t-32 119.5q12 70 71.5 119.5t132.5 49.5
t116.5 -49.5t31.5 -119.5q-11 -70 -71 -119.5t-133 -49.5zM1008 1223q-73 0 -116 49.5t-32 119.5q12 70 71.5 119.5t132.5 49.5t116.5 -49.5t31.5 -119.5q-11 -70 -71 -119.5t-133 -49.5zM748 1632l-131 261h275l68 -261h-212z" />
    <glyph glyph-name="eturn" unicode="&#x1dd;" horiz-adv-x="1232" 
d="M666 1142q238 0 376.5 -121.5t138.5 -338.5q0 -136 -46.5 -261.5t-134 -223t-211.5 -154.5t-279 -57q-127 0 -232 40.5t-167.5 117.5t-62.5 185q0 128 90.5 198t257.5 100t397 37v28q0 73 -32 120t-126 47q-67 0 -117.5 -26t-66.5 -75l-357 26q50 159 199.5 258.5
t372.5 99.5zM762 446q-148 -2 -223.5 -11t-101.5 -26.5t-26 -48.5q0 -92 141 -92q89 0 138 53t72 125z" />
    <glyph glyph-name="uni01DE" unicode="&#x1de;" horiz-adv-x="1628" 
d="M-47 0l730 1490h552l254 -1490h-442l-38 286h-459l-129 -286h-468zM686 588h283q-18 137 -30.5 281t-22.5 290q-55 -146 -111.5 -290t-118.5 -281zM1438 2230l-39 -186h-600l39 186h600zM751 1595q-73 0 -116 49.5t-32 119.5q12 70 71.5 119.5t132.5 49.5t116.5 -49.5
t31.5 -119.5q-11 -70 -71 -119.5t-133 -49.5zM1213 1595q-73 0 -116 49.5t-32 119.5q12 70 71.5 119.5t132.5 49.5t116.5 -49.5t31.5 -119.5q-11 -70 -71 -119.5t-133 -49.5z" />
    <glyph glyph-name="uni01DF" unicode="&#x1df;" horiz-adv-x="1322" 
d="M407 -14q-119 0 -209 62.5t-129.5 189.5t-7.5 320q34 203 118 329.5t194 185.5t221 59q124 0 192.5 -62t87.5 -148h6l32 196h400l-185 -1118h-398l30 184h-8q-49 -85 -137.5 -141.5t-206.5 -56.5zM606 294q83 0 142.5 71.5t78.5 192.5q21 125 -15 195.5t-119 70.5
q-82 0 -139.5 -70.5t-78.5 -195.5q-20 -124 14.5 -194t116.5 -70zM1233 1858l-39 -186h-600l39 186h600zM546 1223q-73 0 -116 49.5t-32 119.5q12 70 71.5 119.5t132.5 49.5t116.5 -49.5t31.5 -119.5q-11 -70 -71 -119.5t-133 -49.5zM1008 1223q-73 0 -116 49.5t-32 119.5
q12 70 71.5 119.5t132.5 49.5t116.5 -49.5t31.5 -119.5q-11 -70 -71 -119.5t-133 -49.5z" />
    <glyph glyph-name="uni01E0" unicode="&#x1e0;" horiz-adv-x="1628" 
d="M-47 0l730 1490h552l254 -1490h-442l-38 286h-459l-129 -286h-468zM686 588h283q-18 137 -30.5 281t-22.5 290q-55 -146 -111.5 -290t-118.5 -281zM980 1580q-82 0 -131 54t-37 130q13 77 80 130.5t149 53.5t131 -53.5t36 -130.5q-12 -76 -79 -130t-149 -54zM1439 2230
l-39 -186h-600l39 186h600z" />
    <glyph glyph-name="uni01E1" unicode="&#x1e1;" horiz-adv-x="1322" 
d="M407 -14q-119 0 -209 62.5t-129.5 189.5t-7.5 320q34 203 118 329.5t194 185.5t221 59q124 0 192.5 -62t87.5 -148h6l32 196h400l-185 -1118h-398l30 184h-8q-49 -85 -137.5 -141.5t-206.5 -56.5zM606 294q83 0 142.5 71.5t78.5 192.5q21 125 -15 195.5t-119 70.5
q-82 0 -139.5 -70.5t-78.5 -195.5q-20 -124 14.5 -194t116.5 -70zM775 1208q-82 0 -131 54t-37 130q13 77 80 130.5t149 53.5t131 -53.5t36 -130.5q-12 -76 -79 -130t-149 -54zM1234 1858l-39 -186h-600l39 186h600z" />
    <glyph glyph-name="uni01E2" unicode="&#x1e2;" horiz-adv-x="2164" 
d="M-47 0l829 1490h1432l-54 -326h-670l-43 -256h614l-54 -326h-614l-42 -256h666l-54 -326h-1070l47 286h-390l-151 -286h-446zM710 588h280l82 492h-102zM1875 1904l-39 -232h-600l39 232h600z" />
    <glyph glyph-name="uni01E3" unicode="&#x1e3;" horiz-adv-x="1915" 
d="M401 -18q-201 0 -304 88t-78 238q26 160 152.5 256t316.5 100q66 1 131.5 3t131.5 3l14 84q8 47 -22.5 74.5t-90.5 27.5q-59 0 -103.5 -27t-61.5 -73l-356 36q52 157 208.5 248.5t371.5 91.5q220 0 310 -112q79 54 175 83t204 29q127 0 232 -40.5t167.5 -117t62.5 -185.5
q0 -128 -90.5 -197.5t-257.5 -98.5t-397 -36q-1 -15 -1 -26q0 -172 159 -172q68 0 119 27t65 74h366q-58 -174 -203.5 -279t-377.5 -105q-264 0 -402 146q-80 -67 -192 -103.5t-249 -36.5zM715 454q-40 -2 -80.5 -3.5t-80.5 -2.5q-73 -2 -109.5 -37.5t-43.5 -78.5
q-7 -47 21 -71.5t79 -24.5q68 0 130 42t75 118zM1150 672q147 3 222 11.5t101 26.5t26 48q0 92 -141 92q-87 0 -136.5 -43t-71.5 -135zM1397 1532l-39 -232h-600l39 232h600z" />
    <glyph glyph-name="Gbar" unicode="&#x1e4;" horiz-adv-x="1546" 
d="M726 -20q-195 0 -337.5 74.5t-220 212.5t-77.5 330q0 187 61 352.5t173.5 291.5t267.5 197.5t343 71.5q169 0 306.5 -62t215.5 -176.5t68 -273.5h-408q-6 77 -55 118.5t-136 41.5q-106 0 -185.5 -49t-132.5 -130.5t-79.5 -180t-26.5 -198.5q0 -129 60 -198.5t184 -69.5
q138 0 223 59.5t108 152.5h-269l47 288h660l-36 -219q-33 -204 -140 -345t-265.5 -214.5t-348.5 -73.5zM782 386l16 96h782l-16 -96h-782z" />
    <glyph glyph-name="gbar" unicode="&#x1e5;" horiz-adv-x="1327" 
d="M492 -442q-237 0 -370 91.5t-133 235.5l354 26q2 -45 41.5 -64t108.5 -19q106 0 168 49.5t78 137.5l33 177h-38q-46 -85 -120.5 -131.5t-180.5 -46.5t-192.5 44t-137 136t-50.5 236q0 127 34 251.5t100.5 226.5t164 163t223.5 61q132 0 207 -68t94 -154h9l35 208h398
l-181 -1089q-39 -236 -213.5 -353.5t-431.5 -117.5zM588 300q85 0 140.5 58t83.5 142.5t28 162.5q0 161 -125 161q-62 0 -109 -35.5t-78.5 -91.5t-47 -120.5t-15.5 -123.5q0 -153 123 -153zM622 512l19 112h782l-19 -112h-782z" />
    <glyph glyph-name="Gcaron" unicode="&#x1e6;" horiz-adv-x="1546" 
d="M726 -20q-195 0 -337.5 74.5t-220 212.5t-77.5 330q0 187 61 352.5t173.5 291.5t267.5 197.5t343 71.5q169 0 306.5 -62t215.5 -176.5t68 -273.5h-408q-6 77 -55 118.5t-136 41.5q-106 0 -185.5 -49t-132.5 -130.5t-79.5 -180t-26.5 -198.5q0 -129 60 -198.5t184 -69.5
q138 0 223 59.5t108 152.5h-269l47 288h660l-36 -219q-33 -204 -140 -345t-265.5 -214.5t-348.5 -73.5zM876 1954l114 -166l170 166h332l-1 -6l-387 -320h-280l-281 320l1 6h332z" />
    <glyph glyph-name="gcaron" unicode="&#x1e7;" horiz-adv-x="1327" 
d="M492 -442q-237 0 -370 91.5t-133 235.5l354 26q2 -45 41.5 -64t108.5 -19q106 0 168 49.5t78 137.5l33 177h-38q-46 -85 -120.5 -131.5t-180.5 -46.5t-192.5 44t-137 136t-50.5 236q0 127 34 251.5t100.5 226.5t164 163t223.5 61q132 0 207 -68t94 -154h9l35 208h398
l-181 -1089q-39 -236 -213.5 -353.5t-431.5 -117.5zM588 300q85 0 140.5 58t83.5 142.5t28 162.5q0 161 -125 161q-62 0 -109 -35.5t-78.5 -91.5t-47 -120.5t-15.5 -123.5q0 -153 123 -153zM680 1582l114 -166l170 166h332l-1 -6l-387 -320h-280l-281 320l1 6h332z" />
    <glyph glyph-name="uni01E8" unicode="&#x1e8;" horiz-adv-x="1555" 
d="M3 0l247 1490h416l-53 -320l-58 -314q81 106 217 251l360 383h503l-627 -642l408 -848h-452l-260 599l3 3l-224 -216l-64 -386h-416zM839 1954l114 -166l170 166h332l-1 -6l-387 -320h-280l-281 320l1 6h332z" />
    <glyph glyph-name="uni01E9" unicode="&#x1e9;" horiz-adv-x="1242" 
d="M9 0l247 1490h402l-124 -748h14l332 376h452l-461 -490l286 -628h-458l-163 394l-72 -77l-53 -317h-402zM392 1954l114 -166l170 166h332l-1 -6l-387 -320h-280l-281 320l1 6h332z" />
    <glyph glyph-name="uni01EA" unicode="&#x1ea;" horiz-adv-x="1590" 
d="M720 -20q-184 0 -326 71.5t-222.5 209t-80.5 336.5q0 187 59 352.5t169.5 291.5t265.5 197.5t347 71.5q183 0 324.5 -71t222.5 -209t81 -338q0 -187 -59.5 -352t-170 -291t-265 -197.5t-345.5 -71.5zM737 332q109 0 187 51.5t128 136t73.5 183.5t23.5 193q0 262 -234 262
q-109 0 -187.5 -52t-128.5 -136.5t-73.5 -183t-23.5 -192.5q0 -262 235 -262zM682 -426q-133 0 -200.5 60t-49.5 166q13 80 73.5 137t151.5 103t196.5 93.5t211 108.5t196 146.5t149.5 208.5t71 295h79q-10 -194 -56 -333.5t-115 -235t-149.5 -159t-160 -105t-147.5 -72
t-111.5 -60.5t-50.5 -72q-11 -69 52 -69q29 0 67 19l39 -180q-46 -24 -115 -37.5t-131 -13.5z" />
    <glyph glyph-name="uni01EB" unicode="&#x1eb;" horiz-adv-x="1280" 
d="M566 -20q-247 0 -379 130t-132 345q0 136 44 258t128.5 216.5t207 148.5t280.5 54q246 0 377.5 -130t131.5 -345q0 -135 -43 -257t-127 -216.5t-206.5 -149t-281.5 -54.5zM582 280q67 0 113 42t73.5 105.5t39.5 131t12 117.5q0 77 -32.5 116.5t-88.5 39.5
q-68 0 -114.5 -41t-74 -103.5t-39.5 -129t-12 -117.5q0 -78 33.5 -119.5t89.5 -41.5zM535 -426q-133 0 -200.5 60t-49.5 166q14 86 70 141.5t136 96.5t169 81t171.5 93.5t142.5 135.5t81 208h163q-23 -139 -73 -233t-115 -155t-132.5 -101t-127 -70.5t-99.5 -62.5t-48 -79
q-11 -69 52 -69q30 0 67 19l39 -180q-46 -24 -115 -37.5t-131 -13.5z" />
    <glyph glyph-name="uni01EC" unicode="&#x1ec;" horiz-adv-x="1590" 
d="M720 -20q-184 0 -326 71.5t-222.5 209t-80.5 336.5q0 187 59 352.5t169.5 291.5t265.5 197.5t347 71.5q183 0 324.5 -71t222.5 -209t81 -338q0 -187 -59.5 -352t-170 -291t-265 -197.5t-345.5 -71.5zM737 332q109 0 187 51.5t128 136t73.5 183.5t23.5 193q0 262 -234 262
q-109 0 -187.5 -52t-128.5 -136.5t-73.5 -183t-23.5 -192.5q0 -262 235 -262zM682 -426q-133 0 -200.5 60t-49.5 166q13 80 73.5 137t151.5 103t196.5 93.5t211 108.5t196 146.5t149.5 208.5t71 295h79q-10 -194 -56 -333.5t-115 -235t-149.5 -159t-160 -105t-147.5 -72
t-111.5 -60.5t-50.5 -72q-11 -69 52 -69q29 0 67 19l39 -180q-46 -24 -115 -37.5t-131 -13.5zM1318 1904l-39 -232h-600l39 232h600z" />
    <glyph glyph-name="uni01ED" unicode="&#x1ed;" horiz-adv-x="1280" 
d="M566 -20q-247 0 -379 130t-132 345q0 136 44 258t128.5 216.5t207 148.5t280.5 54q246 0 377.5 -130t131.5 -345q0 -135 -43 -257t-127 -216.5t-206.5 -149t-281.5 -54.5zM582 280q67 0 113 42t73.5 105.5t39.5 131t12 117.5q0 77 -32.5 116.5t-88.5 39.5
q-68 0 -114.5 -41t-74 -103.5t-39.5 -129t-12 -117.5q0 -78 33.5 -119.5t89.5 -41.5zM535 -426q-133 0 -200.5 60t-49.5 166q14 86 70 141.5t136 96.5t169 81t171.5 93.5t142.5 135.5t81 208h163q-23 -139 -73 -233t-115 -155t-132.5 -101t-127 -70.5t-99.5 -62.5t-48 -79
q-11 -69 52 -69q30 0 67 19l39 -180q-46 -24 -115 -37.5t-131 -13.5zM1102 1532l-39 -232h-600l39 232h600z" />
    <glyph glyph-name="uni01EE" unicode="&#x1ee;" horiz-adv-x="1414" 
d="M-14 136h408q-13 -109 41 -176.5t153 -67.5q117 0 195 90.5t101 231.5q26 158 -34 248.5t-176 89.5h-194l46 280l414 314v12h-704l56 332h1190l-48 -292l-522 -392l-4 -14q148 -16 247 -92.5t140 -199t15 -278.5q-24 -145 -93 -266.5t-172.5 -210.5t-232.5 -138t-272 -49
q-186 0 -319.5 74.5t-196.5 205.5t-38 298zM829 2140l114 -166l170 166h332l-1 -6l-387 -320h-280l-281 320l1 6h332z" />
    <glyph glyph-name="uni01EF" unicode="&#x1ef;" horiz-adv-x="1371" 
d="M551 -392q-184 0 -316 61t-195.5 168t-42.5 245h406q-7 -65 43.5 -106.5t134.5 -41.5q87 0 145.5 48t71.5 132q13 74 -30 126t-136 52h-220l41 248l343 246l1 8h-606l54 324h1086l-49 -292l-432 -318q127 -10 217.5 -68t131.5 -151t22 -209q-24 -147 -117.5 -252.5
t-236 -162.5t-316.5 -57zM719 1582l114 -166l170 166h332l-1 -6l-387 -320h-280l-281 320l1 6h332z" />
    <glyph glyph-name="uni01F0" unicode="&#x1f0;" horiz-adv-x="606" 
d="M194 1118h402l-191 -1156q-24 -147 -99.5 -229.5t-192 -116.5t-263.5 -34h-82l49 296h46q73 0 103 22t38 70zM330 1582l114 -166l170 166h332l-1 -6l-387 -320h-280l-281 320l1 6h332z" />
    <glyph glyph-name="uni01F1" unicode="&#x1f1;" horiz-adv-x="2902" 
d="M625 0h-622l247 1490h552q230 0 386 -89.5t223.5 -256.5t28.5 -400q-58 -349 -266.5 -546.5t-548.5 -197.5zM464 344h154q111 0 195 35t140 122.5t81 242.5q26 156 1 243.5t-98 123t-190 35.5h-150zM1489 0l37 224l860 940h-702l54 326h1216l-37 -224l-860 -940h702
l-54 -326h-1216z" />
    <glyph glyph-name="uni01F2" unicode="&#x1f2;" horiz-adv-x="2687" 
d="M625 0h-622l247 1490h552q230 0 386 -89.5t223.5 -256.5t28.5 -400q-58 -349 -266.5 -546.5t-548.5 -197.5zM464 344h154q111 0 195 35t140 122.5t81 242.5q26 156 1 243.5t-98 123t-190 35.5h-150zM1500 0l37 222l576 584l1 6h-464l51 306h946l-41 -246l-528 -560l-1 -6
h454l-51 -306h-980z" />
    <glyph glyph-name="uni01F3" unicode="&#x1f3;" horiz-adv-x="2362" 
d="M428 -14q-160 0 -268 110t-108 330q0 127 33.5 252t99.5 228t163 164.5t224 61.5q133 0 204.5 -68t89.5 -154h10l96 580h402l-247 -1490h-398l34 184h-13q-49 -95 -130.5 -146.5t-191.5 -51.5zM586 294q83 0 139 59t85 145t29 165q0 161 -125 161q-63 0 -110 -35.5
t-78 -92.5t-46.5 -122t-15.5 -124q0 -156 122 -156zM1175 0l37 222l576 584l1 6h-464l51 306h946l-41 -246l-528 -560l-1 -6h454l-51 -306h-980z" />
    <glyph glyph-name="uni01F4" unicode="&#x1f4;" horiz-adv-x="1546" 
d="M726 -20q-195 0 -337.5 74.5t-220 212.5t-77.5 330q0 187 61 352.5t173.5 291.5t267.5 197.5t343 71.5q169 0 306.5 -62t215.5 -176.5t68 -273.5h-408q-6 77 -55 118.5t-136 41.5q-106 0 -185.5 -49t-132.5 -130.5t-79.5 -180t-26.5 -198.5q0 -129 60 -198.5t184 -69.5
q138 0 223 59.5t108 152.5h-269l47 288h660l-36 -219q-33 -204 -140 -345t-265.5 -214.5t-348.5 -73.5zM830 1628l192 326h344l-272 -326h-264z" />
    <glyph glyph-name="uni01F5" unicode="&#x1f5;" horiz-adv-x="1327" 
d="M492 -442q-237 0 -370 91.5t-133 235.5l354 26q2 -45 41.5 -64t108.5 -19q106 0 168 49.5t78 137.5l33 177h-38q-46 -85 -120.5 -131.5t-180.5 -46.5t-192.5 44t-137 136t-50.5 236q0 127 34 251.5t100.5 226.5t164 163t223.5 61q132 0 207 -68t94 -154h9l35 208h398
l-181 -1089q-39 -236 -213.5 -353.5t-431.5 -117.5zM588 300q85 0 140.5 58t83.5 142.5t28 162.5q0 161 -125 161q-62 0 -109 -35.5t-78.5 -91.5t-47 -120.5t-15.5 -123.5q0 -153 123 -153zM634 1256l192 326h344l-272 -326h-264z" />
    <glyph glyph-name="uni01F6" unicode="&#x1f6;" horiz-adv-x="2312" 
d="M1550 -20q-187 0 -313 68.5t-179.5 193t-25.5 291.5l8 49h-536l-97 -582h-404l247 1490h404l-96 -582h536l96 582h404l-163 -983q-31 -195 131 -195q92 0 158 62t82 159l88 535h404l-93 -561q-40 -250 -212.5 -388.5t-438.5 -138.5z" />
    <glyph glyph-name="uni01F7" unicode="&#x1f7;" horiz-adv-x="1690" 
d="M744 1486l-5 -29q53 23 120 36t147 13q182 1 318 -80t196 -233t12 -367l-12 -52q-63 -283 -313.5 -514.5t-726.5 -396.5l-46 -281h-388l312 1904h386zM533 192q259 108 401.5 247t183.5 335l12 56q12 55 17 118t-8 119.5t-55.5 92.5t-125.5 36q-71 0 -143 -25.5
t-133 -67.5z" />
    <glyph glyph-name="uni01F8" unicode="&#x1f8;" horiz-adv-x="1576" 
d="M3 0l247 1490h440l258 -585q41 -92 72.5 -185.5t56.5 -219.5q11 114 24 238t26 206l91 546h416l-247 -1490h-440l-241 544q-50 114 -82.5 211t-65.5 222q-12 -128 -24.5 -243.5t-24.5 -189.5l-90 -544h-416zM835 1628l-164 326h344l84 -326h-264z" />
    <glyph glyph-name="uni01F9" unicode="&#x1f9;" horiz-adv-x="1330" 
d="M513 615l-102 -615h-402l186 1118h376l-29 -227q60 108 149 174.5t221 66.5q124 0 207 -57.5t118 -155.5t14 -220l-116 -699h-402l107 641q14 83 -23.5 124t-105.5 41q-82 0 -133 -54t-65 -137zM650 1256l-164 326h344l84 -326h-264z" />
    <glyph glyph-name="Aringacute" unicode="&#x1fa;" horiz-adv-x="1628" 
d="M-47 0l730 1490h552l254 -1490h-442l-38 286h-459l-129 -286h-468zM686 588h283q-18 137 -30.5 281t-22.5 290q-55 -146 -111.5 -290t-118.5 -281zM994 1546q-139 0 -209.5 72.5t-51.5 179.5q15 89 95.5 146.5t204.5 57.5q139 0 209.5 -73t51.5 -180
q-15 -88 -95.5 -145.5t-204.5 -57.5zM932 2057l184 230h308l-256 -230h-236zM996 1676q52 0 87 26.5t42 71.5q8 44 -17 70.5t-77 26.5t-87 -26.5t-43 -70.5q-7 -45 18 -71.5t77 -26.5z" />
    <glyph glyph-name="aringacute" unicode="&#x1fb;" horiz-adv-x="1322" 
d="M407 -14q-119 0 -209 62.5t-129.5 189.5t-7.5 320q34 203 118 329.5t194 185.5t221 59q124 0 192.5 -62t87.5 -148h6l32 196h400l-185 -1118h-398l30 184h-8q-49 -85 -137.5 -141.5t-206.5 -56.5zM606 294q83 0 142.5 71.5t78.5 192.5q21 125 -15 195.5t-119 70.5
q-82 0 -139.5 -70.5t-78.5 -195.5q-20 -124 14.5 -194t116.5 -70zM789 1174q-139 0 -209.5 72.5t-51.5 179.5q15 89 95.5 146.5t204.5 57.5q139 0 209.5 -73t51.5 -180q-15 -88 -95.5 -145.5t-204.5 -57.5zM727 1685l184 230h308l-256 -230h-236zM791 1304q52 0 87 26.5
t42 71.5q8 44 -17 70.5t-77 26.5t-87 -26.5t-43 -70.5q-7 -45 18 -71.5t77 -26.5z" />
    <glyph glyph-name="AEacute" unicode="&#x1fc;" horiz-adv-x="2164" 
d="M-47 0l829 1490h1432l-54 -326h-670l-43 -256h614l-54 -326h-614l-42 -256h666l-54 -326h-1070l47 286h-390l-151 -286h-446zM710 588h280l82 492h-102zM1395 1628l192 326h344l-272 -326h-264z" />
    <glyph glyph-name="aeacute" unicode="&#x1fd;" horiz-adv-x="1915" 
d="M401 -18q-201 0 -304 88t-78 238q26 160 152.5 256t316.5 100q66 1 131.5 3t131.5 3l14 84q8 47 -22.5 74.5t-90.5 27.5q-59 0 -103.5 -27t-61.5 -73l-356 36q52 157 208.5 248.5t371.5 91.5q220 0 310 -112q79 54 175 83t204 29q127 0 232 -40.5t167.5 -117t62.5 -185.5
q0 -128 -90.5 -197.5t-257.5 -98.5t-397 -36q-1 -15 -1 -26q0 -172 159 -172q68 0 119 27t65 74h366q-58 -174 -203.5 -279t-377.5 -105q-264 0 -402 146q-80 -67 -192 -103.5t-249 -36.5zM715 454q-40 -2 -80.5 -3.5t-80.5 -2.5q-73 -2 -109.5 -37.5t-43.5 -78.5
q-7 -47 21 -71.5t79 -24.5q68 0 130 42t75 118zM1150 672q147 3 222 11.5t101 26.5t26 48q0 92 -141 92q-87 0 -136.5 -43t-71.5 -135zM917 1256l192 326h344l-272 -326h-264z" />
    <glyph glyph-name="Oslashacute" unicode="&#x1fe;" horiz-adv-x="1590" 
d="M720 -20q-184 0 -326 71.5t-222.5 209t-80.5 336.5q0 187 59 352.5t169.5 291.5t265.5 197.5t347 71.5q183 0 324.5 -71t222.5 -209t81 -338q0 -187 -59.5 -352t-170 -291t-265 -197.5t-345.5 -71.5zM737 332q109 0 187 51.5t128 136t73.5 183.5t23.5 193q0 262 -234 262
q-109 0 -187.5 -52t-128.5 -136.5t-73.5 -183t-23.5 -192.5q0 -262 235 -262zM227 -78l-144 110l1342 1534l144 -112zM838 1628l192 326h344l-272 -326h-264z" />
    <glyph glyph-name="oslashacute" unicode="&#x1ff;" horiz-adv-x="1280" 
d="M566 -20q-247 0 -379 130t-132 345q0 136 44 258t128.5 216.5t207 148.5t280.5 54q246 0 377.5 -130t131.5 -345q0 -135 -43 -257t-127 -216.5t-206.5 -149t-281.5 -54.5zM582 280q67 0 113 42t73.5 105.5t39.5 131t12 117.5q0 77 -32.5 116.5t-88.5 39.5
q-68 0 -114.5 -41t-74 -103.5t-39.5 -129t-12 -117.5q0 -78 33.5 -119.5t89.5 -41.5zM84 -47l-88 94l1200 1118l88 -94zM622 1256l192 326h344l-272 -326h-264z" />
    <glyph glyph-name="uni0200" unicode="&#x200;" horiz-adv-x="1628" 
d="M-47 0l730 1490h552l254 -1490h-442l-38 286h-459l-129 -286h-468zM686 588h283q-18 137 -30.5 281t-22.5 290q-55 -146 -111.5 -290t-118.5 -281zM669 1628l-204 326h360l116 -326h-272zM1039 1628l-106 326h326l44 -326h-264z" />
    <glyph glyph-name="uni0201" unicode="&#x201;" horiz-adv-x="1322" 
d="M407 -14q-119 0 -209 62.5t-129.5 189.5t-7.5 320q34 203 118 329.5t194 185.5t221 59q124 0 192.5 -62t87.5 -148h6l32 196h400l-185 -1118h-398l30 184h-8q-49 -85 -137.5 -141.5t-206.5 -56.5zM606 294q83 0 142.5 71.5t78.5 192.5q21 125 -15 195.5t-119 70.5
q-82 0 -139.5 -70.5t-78.5 -195.5q-20 -124 14.5 -194t116.5 -70zM464 1256l-204 326h360l116 -326h-272zM834 1256l-106 326h326l44 -326h-264z" />
    <glyph glyph-name="uni0202" unicode="&#x202;" horiz-adv-x="1628" 
d="M-47 0l730 1490h552l254 -1490h-442l-38 286h-459l-129 -286h-468zM686 588h283q-18 137 -30.5 281t-22.5 290q-55 -146 -111.5 -290t-118.5 -281zM1042 1962q112 0 193.5 -44.5t120.5 -120t23 -169.5h-214q10 59 -35 99t-120 40q-76 0 -134.5 -40t-68.5 -99h-212
q16 94 79.5 169.5t159.5 120t208 44.5z" />
    <glyph glyph-name="uni0203" unicode="&#x203;" horiz-adv-x="1322" 
d="M407 -14q-119 0 -209 62.5t-129.5 189.5t-7.5 320q34 203 118 329.5t194 185.5t221 59q124 0 192.5 -62t87.5 -148h6l32 196h400l-185 -1118h-398l30 184h-8q-49 -85 -137.5 -141.5t-206.5 -56.5zM606 294q83 0 142.5 71.5t78.5 192.5q21 125 -15 195.5t-119 70.5
q-82 0 -139.5 -70.5t-78.5 -195.5q-20 -124 14.5 -194t116.5 -70zM837 1590q112 0 193.5 -44.5t120.5 -120t23 -169.5h-214q10 59 -35 99t-120 40q-76 0 -134.5 -40t-68.5 -99h-212q16 94 79.5 169.5t159.5 120t208 44.5z" />
    <glyph glyph-name="uni0204" unicode="&#x204;" horiz-adv-x="1274" 
d="M3 0l247 1490h1074l-54 -326h-670l-42 -252h614l-53 -318h-614l-44 -268h666l-54 -326h-1070zM492 1628l-204 326h360l116 -326h-272zM862 1628l-106 326h326l44 -326h-264z" />
    <glyph glyph-name="uni0205" unicode="&#x205;" horiz-adv-x="1232" 
d="M566 -24q-238 0 -376.5 121.5t-138.5 338.5q0 137 46.5 262t134 222.5t211.5 154.5t279 57q127 0 232 -40.5t167.5 -117t62.5 -185.5q0 -128 -90.5 -198t-257.5 -100t-397 -37v-28q0 -73 32 -120t126 -47q68 0 118 26t66 75l357 -26q-49 -159 -199 -258.5t-373 -99.5z
M470 672q148 2 223.5 11t101.5 26.5t26 48.5q0 92 -141 92q-89 0 -138 -53t-72 -125zM442 1256l-204 326h360l116 -326h-272zM812 1256l-106 326h326l44 -326h-264z" />
    <glyph glyph-name="uni0206" unicode="&#x206;" horiz-adv-x="1274" 
d="M3 0l247 1490h1074l-54 -326h-670l-42 -252h614l-53 -318h-614l-44 -268h666l-54 -326h-1070zM865 1962q112 0 193.5 -44.5t120.5 -120t23 -169.5h-214q10 59 -35 99t-120 40q-76 0 -134.5 -40t-68.5 -99h-212q16 94 79.5 169.5t159.5 120t208 44.5z" />
    <glyph glyph-name="uni0207" unicode="&#x207;" horiz-adv-x="1232" 
d="M566 -24q-238 0 -376.5 121.5t-138.5 338.5q0 137 46.5 262t134 222.5t211.5 154.5t279 57q127 0 232 -40.5t167.5 -117t62.5 -185.5q0 -128 -90.5 -198t-257.5 -100t-397 -37v-28q0 -73 32 -120t126 -47q68 0 118 26t66 75l357 -26q-49 -159 -199 -258.5t-373 -99.5z
M470 672q148 2 223.5 11t101.5 26.5t26 48.5q0 92 -141 92q-89 0 -138 -53t-72 -125zM815 1590q112 0 193.5 -44.5t120.5 -120t23 -169.5h-214q10 59 -35 99t-120 40q-76 0 -134.5 -40t-68.5 -99h-212q16 94 79.5 169.5t159.5 120t208 44.5z" />
    <glyph glyph-name="uni0208" unicode="&#x208;" horiz-adv-x="596" 
d="M654 1490l-247 -1490h-404l247 1490h404zM159 1628l-204 326h360l116 -326h-272zM529 1628l-106 326h326l44 -326h-264z" />
    <glyph glyph-name="uni0209" unicode="&#x209;" horiz-adv-x="607" 
d="M10 0l185 1118h402l-185 -1118h-402zM100 1256l-204 326h360l116 -326h-272zM470 1256l-106 326h326l44 -326h-264z" />
    <glyph glyph-name="uni020A" unicode="&#x20a;" horiz-adv-x="596" 
d="M654 1490l-247 -1490h-404l247 1490h404zM532 1962q112 0 193.5 -44.5t120.5 -120t23 -169.5h-214q10 59 -35 99t-120 40q-76 0 -134.5 -40t-68.5 -99h-212q16 94 79.5 169.5t159.5 120t208 44.5z" />
    <glyph glyph-name="uni020B" unicode="&#x20b;" horiz-adv-x="607" 
d="M10 0l185 1118h402l-185 -1118h-402zM473 1590q112 0 193.5 -44.5t120.5 -120t23 -169.5h-214q10 59 -35 99t-120 40q-76 0 -134.5 -40t-68.5 -99h-212q16 94 79.5 169.5t159.5 120t208 44.5z" />
    <glyph glyph-name="uni020C" unicode="&#x20c;" horiz-adv-x="1590" 
d="M720 -20q-184 0 -326 71.5t-222.5 209t-80.5 336.5q0 187 59 352.5t169.5 291.5t265.5 197.5t347 71.5q183 0 324.5 -71t222.5 -209t81 -338q0 -187 -59.5 -352t-170 -291t-265 -197.5t-345.5 -71.5zM737 332q109 0 187 51.5t128 136t73.5 183.5t23.5 193q0 262 -234 262
q-109 0 -187.5 -52t-128.5 -136.5t-73.5 -183t-23.5 -192.5q0 -262 235 -262zM654 1628l-204 326h360l116 -326h-272zM1024 1628l-106 326h326l44 -326h-264z" />
    <glyph glyph-name="uni020D" unicode="&#x20d;" horiz-adv-x="1280" 
d="M566 -20q-247 0 -379 130t-132 345q0 136 44 258t128.5 216.5t207 148.5t280.5 54q246 0 377.5 -130t131.5 -345q0 -135 -43 -257t-127 -216.5t-206.5 -149t-281.5 -54.5zM582 280q67 0 113 42t73.5 105.5t39.5 131t12 117.5q0 77 -32.5 116.5t-88.5 39.5
q-68 0 -114.5 -41t-74 -103.5t-39.5 -129t-12 -117.5q0 -78 33.5 -119.5t89.5 -41.5zM438 1256l-204 326h360l116 -326h-272zM808 1256l-106 326h326l44 -326h-264z" />
    <glyph glyph-name="uni020E" unicode="&#x20e;" horiz-adv-x="1590" 
d="M720 -20q-184 0 -326 71.5t-222.5 209t-80.5 336.5q0 187 59 352.5t169.5 291.5t265.5 197.5t347 71.5q183 0 324.5 -71t222.5 -209t81 -338q0 -187 -59.5 -352t-170 -291t-265 -197.5t-345.5 -71.5zM737 332q109 0 187 51.5t128 136t73.5 183.5t23.5 193q0 262 -234 262
q-109 0 -187.5 -52t-128.5 -136.5t-73.5 -183t-23.5 -192.5q0 -262 235 -262zM1027 1962q112 0 193.5 -44.5t120.5 -120t23 -169.5h-214q10 59 -35 99t-120 40q-76 0 -134.5 -40t-68.5 -99h-212q16 94 79.5 169.5t159.5 120t208 44.5z" />
    <glyph glyph-name="uni020F" unicode="&#x20f;" horiz-adv-x="1280" 
d="M566 -20q-247 0 -379 130t-132 345q0 136 44 258t128.5 216.5t207 148.5t280.5 54q246 0 377.5 -130t131.5 -345q0 -135 -43 -257t-127 -216.5t-206.5 -149t-281.5 -54.5zM582 280q67 0 113 42t73.5 105.5t39.5 131t12 117.5q0 77 -32.5 116.5t-88.5 39.5
q-68 0 -114.5 -41t-74 -103.5t-39.5 -129t-12 -117.5q0 -78 33.5 -119.5t89.5 -41.5zM811 1590q112 0 193.5 -44.5t120.5 -120t23 -169.5h-214q10 59 -35 99t-120 40q-76 0 -134.5 -40t-68.5 -99h-212q16 94 79.5 169.5t159.5 120t208 44.5z" />
    <glyph glyph-name="uni0210" unicode="&#x210;" horiz-adv-x="1368" 
d="M3 0l247 1490h642q166 0 280.5 -60.5t165 -174t24.5 -271.5q-26 -155 -111 -263t-214 -165l212 -556h-440l-181 492h-140l-81 -492h-404zM540 806h142q107 0 174.5 41t83.5 137q16 95 -37.5 138.5t-160.5 43.5h-142zM533 1628l-204 326h360l116 -326h-272zM903 1628
l-106 326h326l44 -326h-264z" />
    <glyph glyph-name="uni0211" unicode="&#x211;" horiz-adv-x="889" 
d="M10 0l185 1118h390l-35 -214h12q50 119 125 173.5t164 54.5q50 0 100 -16l-57 -342q-28 11 -71 15.5t-74 4.5q-89 0 -156.5 -58t-84.5 -154l-96 -582h-402zM280 1256l-204 326h360l116 -326h-272zM650 1256l-106 326h326l44 -326h-264z" />
    <glyph glyph-name="uni0212" unicode="&#x212;" horiz-adv-x="1368" 
d="M3 0l247 1490h642q166 0 280.5 -60.5t165 -174t24.5 -271.5q-26 -155 -111 -263t-214 -165l212 -556h-440l-181 492h-140l-81 -492h-404zM540 806h142q107 0 174.5 41t83.5 137q16 95 -37.5 138.5t-160.5 43.5h-142zM906 1962q112 0 193.5 -44.5t120.5 -120t23 -169.5
h-214q10 59 -35 99t-120 40q-76 0 -134.5 -40t-68.5 -99h-212q16 94 79.5 169.5t159.5 120t208 44.5z" />
    <glyph glyph-name="uni0213" unicode="&#x213;" horiz-adv-x="889" 
d="M10 0l185 1118h390l-35 -214h12q50 119 125 173.5t164 54.5q50 0 100 -16l-57 -342q-28 11 -71 15.5t-74 4.5q-89 0 -156.5 -58t-84.5 -154l-96 -582h-402zM653 1590q112 0 193.5 -44.5t120.5 -120t23 -169.5h-214q10 59 -35 99t-120 40q-76 0 -134.5 -40t-68.5 -99h-212
q16 94 79.5 169.5t159.5 120t208 44.5z" />
    <glyph glyph-name="uni0214" unicode="&#x214;" horiz-adv-x="1478" 
d="M663 -18q-197 0 -335 70.5t-200 198.5t-34 298l156 941h404l-154 -933q-17 -104 33.5 -164.5t146.5 -60.5q75 0 139.5 34t108 91t54.5 126l150 907h404l-160 -967q-28 -170 -126 -291.5t-249 -185.5t-338 -64zM597 1628l-204 326h360l116 -326h-272zM967 1628l-106 326
h326l44 -326h-264z" />
    <glyph glyph-name="uni0215" unicode="&#x215;" horiz-adv-x="1331" 
d="M398 -14q-118 0 -197 54t-111.5 149t-12.5 217l118 712h402l-104 -628q-13 -83 21 -130.5t110 -47.5q74 0 126 47.5t65 130.5l104 628h402l-185 -1118h-377l34 253q-60 -115 -156 -191t-239 -76zM464 1256l-204 326h360l116 -326h-272zM834 1256l-106 326h326l44 -326
h-264z" />
    <glyph glyph-name="uni0216" unicode="&#x216;" horiz-adv-x="1478" 
d="M663 -18q-197 0 -335 70.5t-200 198.5t-34 298l156 941h404l-154 -933q-17 -104 33.5 -164.5t146.5 -60.5q75 0 139.5 34t108 91t54.5 126l150 907h404l-160 -967q-28 -170 -126 -291.5t-249 -185.5t-338 -64zM970 1962q112 0 193.5 -44.5t120.5 -120t23 -169.5h-214
q10 59 -35 99t-120 40q-76 0 -134.5 -40t-68.5 -99h-212q16 94 79.5 169.5t159.5 120t208 44.5z" />
    <glyph glyph-name="uni0217" unicode="&#x217;" horiz-adv-x="1331" 
d="M398 -14q-118 0 -197 54t-111.5 149t-12.5 217l118 712h402l-104 -628q-13 -83 21 -130.5t110 -47.5q74 0 126 47.5t65 130.5l104 628h402l-185 -1118h-377l34 253q-60 -115 -156 -191t-239 -76zM837 1590q112 0 193.5 -44.5t120.5 -120t23 -169.5h-214q10 59 -35 99
t-120 40q-76 0 -134.5 -40t-68.5 -99h-212q16 94 79.5 169.5t159.5 120t208 44.5z" />
    <glyph glyph-name="uni0218" unicode="&#x218;" horiz-adv-x="1364" 
d="M630 -18q-194 0 -335 57.5t-207 177.5t-36 307h384q-12 -103 45 -156.5t174 -53.5q97 0 153.5 35.5t65.5 90.5q8 50 -36.5 84t-163.5 60l-145 32q-190 42 -286.5 143.5t-67.5 276.5q23 142 111.5 248.5t228 166t316.5 59.5q181 0 308.5 -60.5t187 -170t36.5 -255.5h-388
q7 73 -35 113.5t-140 40.5q-94 0 -142.5 -32t-56.5 -82q-9 -53 33 -86t144 -56l117 -26q239 -53 329 -169.5t62 -286.5q-37 -221 -205 -339.5t-451 -118.5zM249 -466l154 348h360l-242 -348h-272z" />
    <glyph glyph-name="uni0219" unicode="&#x219;" horiz-adv-x="1202" 
d="M524 -20q-235 0 -370 100t-137 263v5l372 28q8 -66 40 -95t117 -29q33 0 69.5 7t62.5 25t26 51q0 26 -23.5 43.5t-81.5 27.5l-192 36q-146 28 -221.5 105.5t-75.5 187.5q0 135 77 223t204 131t275 43q229 0 356 -90.5t130 -241.5v-4l-354 -25q-4 55 -36 74t-91 19
q-31 0 -68 -8t-63.5 -27t-26.5 -54q0 -20 16.5 -38t66.5 -27l222 -40q147 -26 224 -93.5t77 -175.5q0 -104 -50 -183t-135 -132t-191.5 -79.5t-218.5 -26.5zM158 -466l154 348h360l-242 -348h-272z" />
    <glyph glyph-name="uni021A.1" unicode="&#x21a;" horiz-adv-x="1406" 
d="M156 1164l54 326h1294l-54 -326h-445l-193 -1164h-404l193 1164h-445zM262 -466l154 348h360l-242 -348h-272z" />
    <glyph glyph-name="uni021B" unicode="&#x21b;" horiz-adv-x="820" 
d="M849 1118l-48 -292h-192l-77 -467q-10 -70 65 -70q18 0 53 4.5t47 8.5v-287q-72 -19 -134 -25.5t-116 -6.5q-379 0 -323 339l84 504h-143l48 292h143l44 266h402l-44 -266h191zM13 -466l154 348h360l-242 -348h-272z" />
    <glyph glyph-name="uni021C" unicode="&#x21c;" horiz-adv-x="1426" 
d="M206 306l48 294q209 58 343 104t211 90t112.5 94.5t47.5 117.5q17 104 -26 148.5t-146 43.5q-84 1 -134 -28.5t-58 -81.5h-390q21 124 108 219t223 149t303 54q275 0 414.5 -108.5t101.5 -339.5q-19 -115 -74 -211t-156 -178q80 -48 116 -128t18 -187
q-25 -155 -122.5 -289.5t-254 -239.5t-362 -173t-447.5 -92l52 308q321 57 519 188t227 306q19 115 -42 136q-239 -103 -632 -196z" />
    <glyph glyph-name="uni021D" unicode="&#x21d;" horiz-adv-x="1230" 
d="M192 120l44 266q182 62 289 114.5t158 109t63 128.5q22 120 -96 120q-108 0 -122 -96h-378q28 174 167.5 272t374.5 98q240 0 353.5 -89.5t82.5 -268.5q-29 -179 -188 -316q144 -77 114 -262q-36 -213 -276.5 -372.5t-677.5 -259.5l46 270q192 75 304 135.5t164.5 119.5
t63.5 127q7 44 -1 77q-193 -91 -485 -173z" />
    <glyph glyph-name="uni021E" unicode="&#x21e;" horiz-adv-x="1536" 
d="M3 0l247 1490h404l-94 -566h536l94 566h404l-247 -1490h-404l99 598h-536l-99 -598h-404zM857 1954l114 -166l170 166h332l-1 -6l-387 -320h-280l-281 320l1 6h332z" />
    <glyph glyph-name="uni021F" unicode="&#x21f;" horiz-adv-x="1330" 
d="M515 628l-104 -628h-402l247 1490h392l-100 -602q58 106 145 175t223 69q119 0 201.5 -54t119 -149t16.5 -217l-118 -712h-402l104 628q14 83 -20.5 130.5t-110.5 47.5q-74 0 -125.5 -47.5t-65.5 -130.5zM384 1954l114 -166l170 166h332l-1 -6l-387 -320h-280l-281 320
l1 6h332z" />
    <glyph glyph-name="uni0220" unicode="&#x220;" horiz-adv-x="1432" 
d="M1122 -416h-380l248 1504q7 48 -19 86.5t-123 39.5q-108 -1 -220 -59l-192 -1155h-378l248 1490h378l-6 -37q62 27 131.5 42t144.5 15q137 0 238.5 -51.5t150.5 -146t27 -224.5z" />
    <glyph glyph-name="uni0221" unicode="&#x221;" horiz-adv-x="1642" 
d="M1131 -418q-284 0 -373 133l-235 -145l-129 222l330 202l32 190h-6q-49 -95 -130.5 -146.5t-191.5 -51.5q-160 0 -268 110t-108 330q0 127 33.5 252t99.5 228t163 164.5t224 61.5q133 0 204.5 -68t89.5 -154h10l96 580h402l-215 -1298v0l-5 -32q24 2 48 2q209 0 310 -93
t78 -231q-43 -256 -459 -256zM586 294q83 0 139 59t85 145t29 165q0 161 -125 161q-63 0 -110 -35.5t-78 -92.5t-46.5 -122t-15.5 -124q0 -156 122 -156zM1112 -89l-6 -33q-6 -40 15 -60t59 -20q33 0 58 15t29 43q5 29 -16 47.5t-71 18.5q-33 0 -68 -11z" />
    <glyph glyph-name="uni0222" unicode="&#x222;" horiz-adv-x="1428" 
d="M776 998h20q99 0 148.5 23t59.5 93q11 79 -60 94l50 302q227 5 333 -102t75 -294q-30 -187 -200 -286q128 -123 92 -342q-26 -154 -117 -267.5t-231 -176t-316 -62.5h-20q-177 0 -298.5 62t-175 175t-28.5 265q36 222 206 346q-132 98 -102 286q31 188 171 294.5
t367 101.5l-50 -302q-43 -7 -62.5 -29.5t-27.5 -64.5q-10 -72 28.5 -94t137.5 -22zM746 684h-20q-85 0 -144.5 -55t-75.5 -147q-15 -88 27 -142.5t127 -53.5h20q83 -1 141.5 52.5t72.5 147.5q14 92 -25.5 145t-122.5 53z" />
    <glyph glyph-name="uni0223" unicode="&#x223;" horiz-adv-x="1426" 
d="M788 966q110 0 162.5 41.5t67.5 126.5q9 62 -13.5 93.5t-52.5 38.5l48 290q208 2 316.5 -99.5t73.5 -312.5q-19 -115 -70.5 -196.5t-130.5 -133.5q61 -55 86 -139t5 -201q-26 -158 -117 -268.5t-229 -168t-306 -57.5h-20q-168 0 -288 57.5t-175 168t-29 268.5
q20 117 73 201t132 138q-62 53 -87.5 134t-7.5 197q35 207 178 310.5t352 101.5l-50 -290q-30 -7 -61 -38.5t-39 -93.5q-16 -87 21 -127.5t143 -40.5h18zM742 666h-20q-97 0 -155.5 -55.5t-72.5 -136.5q-13 -80 27 -136t137 -56h20q101 0 156 56t68 136q13 81 -23 136.5
t-137 55.5z" />
    <glyph glyph-name="uni0224" unicode="&#x224;" horiz-adv-x="1423" 
d="M535 -417l49 297q29 -4 57 -6.5t57 -2.5q59 0 84 17.5t32 62.5l8 49h-812l37 224l860 940h-702l54 326h1216l-37 -224l-860 -940h702l-54 -326l-12 -73q-62 -368 -485 -368q-110 0 -194 24z" />
    <glyph glyph-name="uni0225" unicode="&#x225;" horiz-adv-x="1208" 
d="M716 -296l25 154q13 74 -13.5 108t-96.5 34h-610l37 222l584 584l1 6h-472l51 306h946l-41 -246l-536 -560l-1 -6h172q183 0 262 -116.5t43 -331.5l-25 -154h-326z" />
    <glyph glyph-name="uni0226" unicode="&#x226;" horiz-adv-x="1628" 
d="M-47 0l730 1490h552l254 -1490h-442l-38 286h-459l-129 -286h-468zM686 588h283q-18 137 -30.5 281t-22.5 290q-55 -146 -111.5 -290t-118.5 -281zM983 1604q-82 0 -131 54t-37 130q13 77 80 130.5t149 53.5t131 -53.5t36 -130.5q-12 -76 -79 -130t-149 -54z" />
    <glyph glyph-name="uni0227" unicode="&#x227;" horiz-adv-x="1322" 
d="M407 -14q-119 0 -209 62.5t-129.5 189.5t-7.5 320q34 203 118 329.5t194 185.5t221 59q124 0 192.5 -62t87.5 -148h6l32 196h400l-185 -1118h-398l30 184h-8q-49 -85 -137.5 -141.5t-206.5 -56.5zM606 294q83 0 142.5 71.5t78.5 192.5q21 125 -15 195.5t-119 70.5
q-82 0 -139.5 -70.5t-78.5 -195.5q-20 -124 14.5 -194t116.5 -70zM778 1232q-82 0 -131 54t-37 130q13 77 80 130.5t149 53.5t131 -53.5t36 -130.5q-12 -76 -79 -130t-149 -54z" />
    <glyph glyph-name="uni0228" unicode="&#x228;" horiz-adv-x="1274" 
d="M3 0l247 1490h1074l-54 -326h-670l-42 -252h614l-53 -318h-614l-44 -268h666l-54 -326h-1070zM330 -418l21 131h135q80 0 90 58q10 57 -70 57h-100l77 212h133l-7 -40l-26 -90q95 12 144 -31t36 -121q-16 -96 -80.5 -136t-194.5 -40h-158z" />
    <glyph glyph-name="uni0229" unicode="&#x229;" horiz-adv-x="1232" 
d="M566 -24q-238 0 -376.5 121.5t-138.5 338.5q0 137 46.5 262t134 222.5t211.5 154.5t279 57q127 0 232 -40.5t167.5 -117t62.5 -185.5q0 -128 -90.5 -198t-257.5 -100t-397 -37v-28q0 -73 32 -120t126 -47q68 0 118 26t66 75l357 -26q-49 -159 -199 -258.5t-373 -99.5z
M470 672q148 2 223.5 11t101.5 26.5t26 48.5q0 92 -141 92q-89 0 -138 -53t-72 -125zM339 -418l21 131h135q80 0 90 58q10 57 -70 57h-100l77 212h133l-7 -40l-26 -90q95 12 144 -31t36 -121q-16 -96 -80.5 -136t-194.5 -40h-158z" />
    <glyph glyph-name="uni022A" unicode="&#x22a;" horiz-adv-x="1590" 
d="M720 -20q-184 0 -326 71.5t-222.5 209t-80.5 336.5q0 187 59 352.5t169.5 291.5t265.5 197.5t347 71.5q183 0 324.5 -71t222.5 -209t81 -338q0 -187 -59.5 -352t-170 -291t-265 -197.5t-345.5 -71.5zM737 332q109 0 187 51.5t128 136t73.5 183.5t23.5 193q0 262 -234 262
q-109 0 -187.5 -52t-128.5 -136.5t-73.5 -183t-23.5 -192.5q0 -262 235 -262zM1423 2230l-39 -186h-600l39 186h600zM736 1595q-73 0 -116 49.5t-32 119.5q12 70 71.5 119.5t132.5 49.5t116.5 -49.5t31.5 -119.5q-11 -70 -71 -119.5t-133 -49.5zM1198 1595q-73 0 -116 49.5
t-32 119.5q12 70 71.5 119.5t132.5 49.5t116.5 -49.5t31.5 -119.5q-11 -70 -71 -119.5t-133 -49.5z" />
    <glyph glyph-name="uni022B" unicode="&#x22b;" horiz-adv-x="1280" 
d="M566 -20q-247 0 -379 130t-132 345q0 136 44 258t128.5 216.5t207 148.5t280.5 54q246 0 377.5 -130t131.5 -345q0 -135 -43 -257t-127 -216.5t-206.5 -149t-281.5 -54.5zM582 280q67 0 113 42t73.5 105.5t39.5 131t12 117.5q0 77 -32.5 116.5t-88.5 39.5
q-68 0 -114.5 -41t-74 -103.5t-39.5 -129t-12 -117.5q0 -78 33.5 -119.5t89.5 -41.5zM1207 1858l-39 -186h-600l39 186h600zM520 1223q-73 0 -116 49.5t-32 119.5q12 70 71.5 119.5t132.5 49.5t116.5 -49.5t31.5 -119.5q-11 -70 -71 -119.5t-133 -49.5zM982 1223
q-73 0 -116 49.5t-32 119.5q12 70 71.5 119.5t132.5 49.5t116.5 -49.5t31.5 -119.5q-11 -70 -71 -119.5t-133 -49.5z" />
    <glyph glyph-name="uni022C" unicode="&#x22c;" horiz-adv-x="1590" 
d="M720 -20q-184 0 -326 71.5t-222.5 209t-80.5 336.5q0 187 59 352.5t169.5 291.5t265.5 197.5t347 71.5q183 0 324.5 -71t222.5 -209t81 -338q0 -187 -59.5 -352t-170 -291t-265 -197.5t-345.5 -71.5zM737 332q109 0 187 51.5t128 136t73.5 183.5t23.5 193q0 262 -234 262
q-109 0 -187.5 -52t-128.5 -136.5t-73.5 -183t-23.5 -192.5q0 -262 235 -262zM1117 1604q-57 0 -93 18t-61 42t-46.5 42t-49.5 18q-72 0 -95 -112h-198q29 158 113 235t187 77q56 0 93 -17.5t63 -41t47.5 -41t47.5 -17.5q42 0 64 29.5t32 81.5h196q-28 -154 -113 -234
t-187 -80zM1425 2230l-39 -186h-600l39 186h600z" />
    <glyph glyph-name="uni022D" unicode="&#x22d;" horiz-adv-x="1280" 
d="M566 -20q-247 0 -379 130t-132 345q0 136 44 258t128.5 216.5t207 148.5t280.5 54q246 0 377.5 -130t131.5 -345q0 -135 -43 -257t-127 -216.5t-206.5 -149t-281.5 -54.5zM582 280q67 0 113 42t73.5 105.5t39.5 131t12 117.5q0 77 -32.5 116.5t-88.5 39.5
q-68 0 -114.5 -41t-74 -103.5t-39.5 -129t-12 -117.5q0 -78 33.5 -119.5t89.5 -41.5zM901 1232q-57 0 -93 18t-61 42t-46.5 42t-49.5 18q-72 0 -95 -112h-198q29 158 113 235t187 77q56 0 93 -17.5t63 -41t47.5 -41t47.5 -17.5q42 0 64 29.5t32 81.5h196q-28 -154 -113 -234
t-187 -80zM1209 1858l-39 -186h-600l39 186h600z" />
    <glyph glyph-name="uni022E" unicode="&#x22e;" horiz-adv-x="1590" 
d="M720 -20q-184 0 -326 71.5t-222.5 209t-80.5 336.5q0 187 59 352.5t169.5 291.5t265.5 197.5t347 71.5q183 0 324.5 -71t222.5 -209t81 -338q0 -187 -59.5 -352t-170 -291t-265 -197.5t-345.5 -71.5zM737 332q109 0 187 51.5t128 136t73.5 183.5t23.5 193q0 262 -234 262
q-109 0 -187.5 -52t-128.5 -136.5t-73.5 -183t-23.5 -192.5q0 -262 235 -262zM968 1604q-82 0 -131 54t-37 130q13 77 80 130.5t149 53.5t131 -53.5t36 -130.5q-12 -76 -79 -130t-149 -54z" />
    <glyph glyph-name="uni022F" unicode="&#x22f;" horiz-adv-x="1280" 
d="M566 -20q-247 0 -379 130t-132 345q0 136 44 258t128.5 216.5t207 148.5t280.5 54q246 0 377.5 -130t131.5 -345q0 -135 -43 -257t-127 -216.5t-206.5 -149t-281.5 -54.5zM582 280q67 0 113 42t73.5 105.5t39.5 131t12 117.5q0 77 -32.5 116.5t-88.5 39.5
q-68 0 -114.5 -41t-74 -103.5t-39.5 -129t-12 -117.5q0 -78 33.5 -119.5t89.5 -41.5zM752 1232q-82 0 -131 54t-37 130q13 77 80 130.5t149 53.5t131 -53.5t36 -130.5q-12 -76 -79 -130t-149 -54z" />
    <glyph glyph-name="uni0230" unicode="&#x230;" horiz-adv-x="1590" 
d="M720 -20q-184 0 -326 71.5t-222.5 209t-80.5 336.5q0 187 59 352.5t169.5 291.5t265.5 197.5t347 71.5q183 0 324.5 -71t222.5 -209t81 -338q0 -187 -59.5 -352t-170 -291t-265 -197.5t-345.5 -71.5zM737 332q109 0 187 51.5t128 136t73.5 183.5t23.5 193q0 262 -234 262
q-109 0 -187.5 -52t-128.5 -136.5t-73.5 -183t-23.5 -192.5q0 -262 235 -262zM965 1580q-82 0 -131 54t-37 130q13 77 80 130.5t149 53.5t131 -53.5t36 -130.5q-12 -76 -79 -130t-149 -54zM1424 2230l-39 -186h-600l39 186h600z" />
    <glyph glyph-name="uni0231" unicode="&#x231;" horiz-adv-x="1280" 
d="M566 -20q-247 0 -379 130t-132 345q0 136 44 258t128.5 216.5t207 148.5t280.5 54q246 0 377.5 -130t131.5 -345q0 -135 -43 -257t-127 -216.5t-206.5 -149t-281.5 -54.5zM582 280q67 0 113 42t73.5 105.5t39.5 131t12 117.5q0 77 -32.5 116.5t-88.5 39.5
q-68 0 -114.5 -41t-74 -103.5t-39.5 -129t-12 -117.5q0 -78 33.5 -119.5t89.5 -41.5zM749 1208q-82 0 -131 54t-37 130q13 77 80 130.5t149 53.5t131 -53.5t36 -130.5q-12 -76 -79 -130t-149 -54zM1208 1858l-39 -186h-600l39 186h600z" />
    <glyph glyph-name="uni0232" unicode="&#x232;" horiz-adv-x="1588" 
d="M508 0l86 518l-394 972h459l140 -450q13 -41 22.5 -83t17.5 -89q44 93 92 172l276 450h489l-700 -972l-86 -518h-402zM1317 1904l-39 -232h-600l39 232h600z" />
    <glyph glyph-name="uni0233" unicode="&#x233;" horiz-adv-x="1302" 
d="M-53 -388l135 286l50 -14q94 -26 156 2.5t52 80.5l-6 32l-229 1119h414l61 -510q8 -71 9.5 -142.5t1.5 -147.5q29 77 59.5 148t64.5 142l244 510h424l-663 -1220q-49 -91 -119 -164.5t-170 -116.5t-241 -43q-69 0 -134 10t-109 28zM1117 1532l-39 -232h-600l39 232h600z
" />
    <glyph glyph-name="uni0234" unicode="&#x234;" horiz-adv-x="926" 
d="M415 -418q-284 0 -373 133l-235 -145l-129 222l330 202l1 6l247 1490h402l-215 -1298v0l-5 -32q24 2 48 2q209 0 310 -93t78 -231q-43 -256 -459 -256zM396 -89l-6 -33q-6 -40 15 -60t59 -20q33 0 58 15t29 43q5 29 -16 47.5t-71 18.5q-33 0 -68 -11z" />
    <glyph glyph-name="uni0235" unicode="&#x235;" horiz-adv-x="1650" 
d="M1139 -418q-284 0 -373 133l-235 -145l-129 222l330 202l1 6l32 192v0l75 449q14 83 -23.5 124t-105.5 41q-82 0 -133 -54t-65 -137l-102 -615h-402l186 1118h376l-29 -227q60 108 149 174.5t221 66.5q124 0 207 -57.5t118 -155.5t14 -220l-84 -507v0l-5 -32q24 2 48 2
q209 0 310 -93t78 -231q-43 -256 -459 -256zM1120 -89l-6 -33q-6 -40 15 -60t59 -20q33 0 58 15t29 43q5 29 -16 47.5t-71 18.5q-33 0 -68 -11z" />
    <glyph glyph-name="uni0236" unicode="&#x236;" horiz-adv-x="1050" 
d="M542 -21q-284 0 -373 133l-235 -145l-129 222l330 202l1 6l71 429h-142l48 292h142l44 266h402l-44 -266h192l-48 -292h-192l-39 -237v0l-5 -32q24 2 48 2q209 0 310 -93t78 -231q-43 -256 -459 -256zM523 308l-6 -33q-6 -40 15 -60t59 -20q33 0 58 15t29 43
q5 29 -16 47.5t-71 18.5q-33 0 -68 -11z" />
    <glyph glyph-name="uni0237" unicode="&#x237;" horiz-adv-x="606" 
d="M194 1118h402l-191 -1156q-24 -147 -99.5 -229.5t-192 -116.5t-263.5 -34h-82l49 296h46q73 0 103 22t38 70z" />
    <glyph glyph-name="uni0238" unicode="&#x238;" horiz-adv-x="2018" 
d="M1890 564l-4 -20q-27 -166 -100 -293t-179.5 -199t-236.5 -72q-87 0 -147.5 30.5t-100.5 83.5l-16 -94h-340l3 119q-61 -64 -138.5 -101.5t-174.5 -37.5q-128 0 -210.5 72t-113 199t-2.5 293l2 20q25 171 98 299t182 198.5t240 70.5q86 0 146 -30t100 -84l78 472h378
l-78 -471q57 53 127.5 83t156.5 30q130 0 211.5 -70.5t112 -198.5t6.5 -299zM1508 544l4 20q20 127 -2 199t-114 71q-104 1 -167 -92l-61 -368q29 -95 136 -94q70 0 111 35.5t62 95.5t31 133zM510 564l-2 -20q-10 -73 -9.5 -133t28 -95.5t97.5 -35.5q104 -1 165 87l61 366
q-27 102 -134 101q-92 1 -138.5 -71t-67.5 -199z" />
    <glyph glyph-name="uni0239" unicode="&#x239;" horiz-adv-x="2018" 
d="M660 -416l85 511q-58 -54 -129 -84.5t-158 -30.5q-129 0 -212 72t-113.5 199t-2.5 293l4 20q36 169 107.5 297t175.5 199.5t235 71.5q96 0 160 -37.5t104 -103.5l46 127h304l-4 -113q59 60 133 93.5t165 33.5q130 0 215 -71.5t116 -199t-1 -297.5l-4 -22
q-27 -166 -99.5 -293t-179 -198t-235.5 -71q-87 0 -148 30.5t-101 83.5l-85 -510h-378zM512 564l-4 -20q-16 -72 -15 -132t31 -96t100 -36q107 -1 168 99l61 364q-33 92 -137 91q-92 1 -138 -71t-66 -199zM1508 544l4 20q20 127 -2 199t-114 71q-107 1 -168 -107l-61 -363
q34 -85 137 -84q70 0 108.5 36t59.5 96t36 132z" />
    <glyph glyph-name="uni023A" unicode="&#x23a;" horiz-adv-x="1628" 
d="M1351 1678l-109 -232l247 -1446h-442l-38 286h-309l-222 -476h-78l222 476h-72l-129 -286h-468l730 1490h502l88 188h78zM763 588l168 360q-4 52 -8 105t-7 106q-55 -146 -111.5 -290t-118.5 -281h77zM944 808l-103 -220h128q-7 54 -13.5 109t-11.5 111z" />
    <glyph glyph-name="uni023B" unicode="&#x23b;" horiz-adv-x="1532" 
d="M280 -190l112 239q-140 70 -220.5 207.5t-80.5 337.5q0 187 58.5 352.5t168.5 292.5t264 199t344 72q75 0 143 -11l84 179h208l-109 -233q138 -64 213 -190.5t64 -308.5h-410q3 87 -35 141l-353 -755h10q119 0 201 58.5t113 153.5h410q-23 -95 -83.5 -194t-155.5 -183
t-223.5 -135.5t-288.5 -51.5q-75 0 -143 12l-85 -182h-206zM558 404l352 754q-104 -3 -181 -55t-127.5 -135t-75 -180.5t-24.5 -192.5q0 -125 56 -191z" />
    <glyph glyph-name="uni023C" unicode="&#x23c;" horiz-adv-x="1233" 
d="M115 -418l208 443q-128 54 -197.5 167.5t-69.5 268.5q0 126 40 246t121.5 216t205.5 152.5t291 56.5q66 0 126 -10l173 368h134l-189 -401q121 -49 185.5 -147.5t56.5 -234.5l-379 -55q0 37 -3 66.5t-11 51.5l-231 -490h3q66 0 125 47.5t87 138.5l360 -54
q-53 -199 -203 -315.5t-383 -116.5q-66 0 -125 11l-193 -409h-132zM475 348l228 484q-68 -3 -114.5 -42.5t-74.5 -99.5t-40.5 -126t-12.5 -122q0 -58 14 -94z" />
    <glyph glyph-name="uni023D" unicode="&#x23d;" horiz-adv-x="1278" 
d="M123 0l247 1490h404l-193 -1164h602l-54 -326h-1006zM30 621l41 248h848l-41 -248h-848z" />
    <glyph glyph-name="uni023E" unicode="&#x23e;" horiz-adv-x="1406" 
d="M222 -190l239 511l140 843h-445l54 326h798l88 188h208l-88 -188h288l-54 -326h-387l-90 -191l-161 -973h-295l-89 -190h-206z" />
    <glyph glyph-name="uni023F" unicode="&#x23f;" horiz-adv-x="1210" 
d="M524 -20q-42 0 -81 3q42 -95 76 -120t81 -25q76 -1 133 26.5t101 59.5l80 -192q-70 -50 -163 -100.5t-213 -49.5q-107 0 -175.5 48.5t-111 120.5t-71.5 141l-116 276l4 2q-50 77 -51 173v5l372 28q8 -66 40 -95t117 -29q33 0 69.5 7t62.5 25t26 51q0 26 -23.5 43.5
t-81.5 27.5l-192 36q-146 28 -221.5 105.5t-75.5 187.5q0 135 77 223t204 131t275 43q229 0 356 -90.5t130 -241.5v-4l-354 -25q-4 55 -36 74t-91 19q-31 0 -68 -8t-63.5 -27t-26.5 -54q0 -20 16.5 -38t66.5 -27l222 -40q147 -26 224 -93.5t77 -175.5q0 -104 -50 -183
t-135 -132t-191.5 -79.5t-218.5 -26.5z" />
    <glyph glyph-name="uni0240" unicode="&#x240;" horiz-adv-x="1208" 
d="M21 0l37 222l584 584l1 6h-472l51 306h946l-41 -246l-536 -560l-1 -6h90q55 0 108.5 -24.5t92 -74t47.5 -124.5q12 -106 53.5 -152.5t121.5 -46.5q35 0 87.5 17.5t99.5 40.5l88 -277q-81 -40 -160.5 -62.5t-165.5 -22.5q-189 0 -287.5 87t-144.5 280q-13 53 -56 53h-543z
" />
    <glyph glyph-name="uni0241" unicode="&#x241;" horiz-adv-x="1224" 
d="M448 552h152q92 1 129.5 63t56.5 173l28 164q5 32 8.5 73t-4 79.5t-34.5 63t-82 24.5q-77 1 -118.5 -44t-47.5 -104h-374q21 146 106.5 250t211 160t266.5 56q174 0 287.5 -72t160 -198t18.5 -288l-28 -164q-32 -183 -140.5 -319.5t-278.5 -193.5l-47 -275h-392l92 552
h30z" />
    <glyph glyph-name="uni0242" unicode="&#x242;" horiz-adv-x="1230" 
d="M142 680q22 136 96 237.5t190 158t262 56.5q152 0 258.5 -52.5t155 -149t26.5 -228.5q-25 -152 -120.5 -248.5t-244.5 -122.5l-55 -331h-378l86 518h128q88 0 139 42t67 136q22 136 -94 136q-64 0 -95 -35.5t-43 -116.5h-378z" />
    <glyph glyph-name="uni0243" unicode="&#x243;" horiz-adv-x="1368" 
d="M3 0l247 1490h636q255 0 374.5 -109.5t89.5 -288.5q-19 -114 -116.5 -196t-228.5 -107v-13q95 -3 167 -51.5t106 -132.5t15 -196q-19 -116 -94.5 -205.5t-198 -140t-284.5 -50.5h-713zM461 322h179q101 0 166 47t78 131q23 138 -165 138h-206zM554 888h156
q80 0 142.5 44.5t75.5 123.5q10 59 -29.5 87.5t-114.5 28.5h-183zM-91 424l19 112h782l-19 -112h-782z" />
    <glyph glyph-name="uni0244" unicode="&#x244;" horiz-adv-x="1582" 
d="M1640 834l-38 -220h-149l-15 -91q-28 -170 -126 -291.5t-249 -185.5t-338 -64q-197 0 -335 70.5t-200 198.5t-34 298l11 65h-169l36 220h169l109 656h404l-108 -656h478l108 656h404l-109 -656h151zM1049 614h-478l-9 -57q-17 -104 33.5 -164.5t146.5 -60.5
q75 0 139.5 34t108 91t54.5 126z" />
    <glyph glyph-name="uni0245" unicode="&#x245;" horiz-adv-x="1618" 
d="M1000 0l-112 1045l-460 -1045h-436l752 1490h432l262 -1490h-438z" />
    <glyph glyph-name="uni0246" unicode="&#x246;" horiz-adv-x="1274" 
d="M198 -190l86 190h-281l247 1490h712l86 188h166l-86 -188h196l-54 -326h-290l-115 -252h307l-53 -318h-398l-122 -268h528l-54 -326h-623l-86 -190h-166zM699 912l115 252h-214l-42 -252h141zM477 423l78 171h-50z" />
    <glyph glyph-name="uni0247" unicode="&#x247;" horiz-adv-x="1232" 
d="M72 -418l213 452q-111 55 -172.5 157.5t-61.5 244.5q0 137 46.5 262t134 222.5t211.5 154.5t279 57q40 0 79 -4l171 362h206l-194 -411q90 -42 145 -115.5t55 -174.5q0 -153 -129 -224t-359 -95l-100 -211h1q68 0 118 26t66 75l357 -26q-49 -159 -199 -258.5t-373 -99.5
q-52 0 -101 6l-189 -400h-204zM588 675l82 175q-84 -4 -131 -56t-69 -122q68 1 118 3zM444 370l40 85q-22 -1 -45 -1v-28q0 -31 5 -56z" />
    <glyph glyph-name="uni0248" unicode="&#x248;" horiz-adv-x="1321" 
d="M507 -20q-233 0 -362 99t-129 285q0 24 4.5 61t20.5 134h404q-15 -88 -18 -112.5t-3 -35.5q0 -117 119 -117q139 0 167 166l171 1030h398l-170 -1022q-39 -235 -191 -361.5t-411 -126.5zM574 828l19 112h782l-19 -112h-782z" />
    <glyph glyph-name="uni0249" unicode="&#x249;" horiz-adv-x="606" 
d="M194 1118h402l-191 -1156q-24 -147 -99.5 -229.5t-192 -116.5t-263.5 -34h-82l49 296h46q73 0 103 22t38 70zM-87 578l36 216h782l-36 -216h-782zM414 1232q-82 0 -131 54t-37 130q13 77 80 130.5t149 53.5t131 -53.5t36 -130.5q-12 -76 -79 -130t-149 -54z" />
    <glyph glyph-name="Q_rthook" unicode="&#x24a;" horiz-adv-x="1601" 
d="M1659 1490l-247 -1490l-12 -73q-7 -45 12.5 -62.5t77.5 -17.5q29 0 57 2.5t59 6.5l-45 -273q-93 -24 -202 -24q-423 0 -361 368l12 73l35 210h-10q-70 -92 -180 -161t-260 -69q-134 0 -237.5 59.5t-170 164.5t-89.5 243.5t3 296.5q27 159 97.5 298t172.5 244t224.5 164.5
t252.5 59.5q151 0 237.5 -69.5t126.5 -160.5h10l35 210h402zM757 332q151 0 247 106t129 306q34 201 -27 307.5t-212 106.5q-150 0 -246.5 -106.5t-130.5 -307.5q-33 -200 28.5 -306t211.5 -106z" />
    <glyph glyph-name="qrthook" unicode="&#x24b;" horiz-adv-x="1322" 
d="M1074 -441q-419 0 -357 368l12 73v0l30 184h-8q-49 -85 -137.5 -141.5t-206.5 -56.5q-119 0 -209 62.5t-129.5 189.5t-7.5 320q34 203 118 329.5t194 185.5t221 59q124 0 192.5 -62t87.5 -148h6l32 196h400l-170 -1029l-27 -162q-7 -45 12.5 -62.5t77.5 -17.5
q29 0 57 2.5t59 6.5l-45 -273q-93 -24 -202 -24zM606 294q83 0 142.5 71.5t78.5 192.5q21 125 -15 195.5t-119 70.5q-82 0 -139.5 -70.5t-78.5 -195.5q-20 -124 14.5 -194t116.5 -70z" />
    <glyph glyph-name="uni024C" unicode="&#x24c;" horiz-adv-x="1420" 
d="M43 0l87 526h-122l48 286h122l112 678h642q166 0 280.5 -60.5t165 -174t24.5 -271.5q-26 -155 -111 -263t-214 -165l212 -556h-440l-181 492h-140l-81 -492h-404zM580 806h142q107 0 174.5 41t83.5 137q16 95 -37.5 138.5t-160.5 43.5h-142z" />
    <glyph glyph-name="uni024D" unicode="&#x24d;" horiz-adv-x="889" 
d="M10 0l185 1118h390l-35 -214h12q50 119 125 173.5t164 54.5q50 0 100 -16l-57 -342q-28 11 -71 15.5t-74 4.5q-89 0 -156.5 -58t-84.5 -154l-96 -582h-402zM-111 428l36 216h782l-36 -216h-782z" />
    <glyph glyph-name="uni024E" unicode="&#x24e;" horiz-adv-x="1566" 
d="M1640 1176l-32 -190h-275l-337 -468l-86 -518h-402l86 518l-190 468h-308l32 190h199l-127 314h459l98 -314h257l193 314h489l-226 -314h170zM899 986h-85q14 -53 25 -118q30 64 60 118z" />
    <glyph glyph-name="uni024F" unicode="&#x24f;" horiz-adv-x="1321" 
d="M1277 724l-28 -172h-155l-355 -654q-49 -91 -119 -164.5t-170 -116.5t-241 -43q-69 0 -134 10t-109 28l135 286l50 -14q94 -26 156 2.5t52 80.5l-6 32l-113 553h-227l26 172h166l-81 394h414l47 -394h204l189 394h424l-214 -394h89zM708 552h-104q4 -57 5 -115t1 -119
q48 124 98 234z" />
    <glyph glyph-name="aturn" unicode="&#x250;" horiz-adv-x="1322" 
d="M915 1132q119 0 209 -62.5t129.5 -189.5t7.5 -320q-33 -202 -117.5 -329t-194.5 -186t-221 -59q-124 0 -192.5 62.5t-87.5 147.5h-6l-32 -196h-400l185 1118h398l-30 -184h8q49 86 137.5 142t206.5 56zM716 824q-83 0 -142 -71t-79 -193q-21 -124 15 -195t119 -71t140 71
t78 195q20 124 -14 194t-117 70z" />
    <glyph glyph-name="ascript" unicode="&#x251;" horiz-adv-x="1322" 
d="M407 -14q-119 0 -209 62.5t-129.5 189.5t-7.5 320q34 203 118 329.5t194 185.5t221 59q124 0 192.5 -62t87.5 -148h6l32 196h400l-185 -1118h-398l30 184h-8q-49 -85 -137.5 -141.5t-206.5 -56.5zM606 294q83 0 142.5 71.5t78.5 192.5q21 125 -15 195.5t-119 70.5
q-82 0 -139.5 -70.5t-78.5 -195.5q-20 -124 14.5 -194t116.5 -70z" />
    <glyph glyph-name="ascriptturn" unicode="&#x252;" horiz-adv-x="1321" 
d="M726 -14q-118 0 -188 56.5t-92 141.5h-8l-30 -184h-398l185 1118h400l-32 -196h6q47 86 135.5 148t212.5 62q111 0 201.5 -59t133 -185.5t8.5 -329.5q-32 -193 -113 -320t-191.5 -189.5t-229.5 -62.5zM629 294q83 0 140 70t77 194q21 125 -13 195.5t-117 70.5t-142 -70.5
t-80 -195.5q-19 -121 16.5 -192.5t118.5 -71.5z" />
    <glyph glyph-name="uni0253" unicode="&#x253;" horiz-adv-x="1320" 
d="M725 -14q-118 0 -187.5 56.5t-90.5 141.5h-10l-30 -184h-398l149 896l40 240q62 368 487 368q110 0 194 -24l-45 -273q-29 4 -57 6.5t-57 2.5q-58 0 -85 -17.5t-35 -62.5l-3 -18l-36 -214h6q46 83 134.5 143.5t212.5 60.5q111 0 201 -57.5t133 -180.5t10 -320
q-31 -189 -112 -314t-191 -187.5t-230 -62.5zM628 294q83 0 140 68t76 188q20 121 -14 190t-117 69q-82 0 -141.5 -69t-79.5 -190q-19 -118 17.5 -187t118.5 -69z" />
    <glyph glyph-name="uni0254" unicode="&#x254;" horiz-adv-x="1224" 
d="M78 404h352q-13 -63 19.5 -92.5t102.5 -29.5q72 0 108.5 35.5t54 95.5t29.5 133l2 18v1q10 60 14 121.5t-20 103.5t-98 42q-76 0 -117.5 -47.5t-54.5 -132.5h-352q26 163 106 269t199.5 158.5t260.5 52.5q176 0 283 -72t146 -200t11 -296l-2 -18q-28 -168 -110 -295.5
t-213.5 -199t-310.5 -71.5q-137 0 -238 50.5t-148 145.5t-24 228z" />
    <glyph glyph-name="drthook" unicode="&#x256;" horiz-adv-x="1322" 
d="M1074 -441q-419 0 -357 368l12 73v0v2l30 182h-9q-49 -95 -130.5 -146.5t-191.5 -51.5q-160 0 -268 110t-108 330q0 127 33.5 252t99.5 228t163 164.5t224 61.5q133 0 204.5 -68t89.5 -154h10l96 580h402l-238 -1434l-21 -129q-7 -45 12.5 -62.5t77.5 -17.5q29 0 57 2.5
t59 6.5l-45 -273q-93 -24 -202 -24zM586 294q83 0 139 59t85 145t29 165q0 161 -125 161q-63 0 -110 -35.5t-78 -92.5t-46.5 -122t-15.5 -124q0 -156 122 -156z" />
    <glyph glyph-name="uni0257" unicode="&#x257;" horiz-adv-x="1322" 
d="M407 -14q-119 0 -209 62.5t-129.5 189.5t-7.5 320q34 203 118 329.5t194 185.5t221 59q124 0 192.5 -62t87.5 -148h3l33 196l3 18q62 368 487 368q110 0 194 -24l-45 -273q-29 4 -57 6.5t-57 2.5q-58 0 -85 -17.5t-35 -62.5l-3 -18l-185 -1118h-398l30 184h-8
q-49 -85 -137.5 -141.5t-206.5 -56.5zM606 294q83 0 142.5 71.5t78.5 192.5q21 125 -15 195.5t-119 70.5q-82 0 -139.5 -70.5t-78.5 -195.5q-20 -124 14.5 -194t116.5 -70z" />
    <glyph glyph-name="erev" unicode="&#x258;" horiz-adv-x="1222" 
d="M460 -20q-163 0 -270.5 57.5t-151.5 124.5l206 216q40 -56 104 -76t122 -20q97 0 166 41t103 111h-689l26 156q43 257 206.5 399.5t407.5 142.5q187 0 296 -78.5t148.5 -208.5t15.5 -287l-6 -38q-16 -102 -71.5 -198.5t-144.5 -173.5t-207.5 -122.5t-260.5 -45.5z
M779 664q-1 41 -13.5 79.5t-45.5 63.5t-94 25q-67 0 -109 -33.5t-55 -92.5l-12 -42h329z" />
    <glyph glyph-name="uni0259" unicode="&#x259;" horiz-adv-x="1232" 
d="M666 1142q238 0 376.5 -121.5t138.5 -338.5q0 -136 -46.5 -261.5t-134 -223t-211.5 -154.5t-279 -57q-127 0 -232 40.5t-167.5 117.5t-62.5 185q0 128 90.5 198t257.5 100t397 37v28q0 73 -32 120t-126 47q-67 0 -117.5 -26t-66.5 -75l-357 26q50 159 199.5 258.5
t372.5 99.5zM762 446q-148 -2 -223.5 -11t-101.5 -26.5t-26 -48.5q0 -92 141 -92q89 0 138 53t72 125z" />
    <glyph glyph-name="uni025A" unicode="&#x25a;" horiz-adv-x="1764" 
d="M509 -24q-127 0 -232 40.5t-167.5 117.5t-62.5 185q0 128 90.5 202t257 115.5t396.5 71.5q-4 63 -38 102t-119 39q-67 0 -117.5 -26t-66.5 -75l-357 26q50 159 199.5 258.5t372.5 99.5q213 0 347 -98t162 -275l326 41q-1 -147 5.5 -222.5t25.5 -102t54 -26.5q28 0 71 12
l35 -222q-39 -25 -87 -42.5t-110 -17.5q-128 0 -191 90t-71 283l-63 -7q-26 -156 -113 -285t-225.5 -206.5t-321.5 -77.5zM778 496q-150 -22 -229.5 -42t-109 -44t-29.5 -57q0 -43 38.5 -69t102.5 -26q73 0 119 34.5t71.5 89t36.5 114.5z" />
    <glyph glyph-name="epsilon1" unicode="&#x25b;" horiz-adv-x="1176" 
d="M506 -20q-157 0 -275.5 37t-178.5 109.5t-42 179.5q17 101 94 167t203 95q-104 26 -159 87t-38 159q17 104 100 174.5t210 107t276 36.5q215 0 334.5 -78t122.5 -240l-358 -52q-1 44 -39 70t-107 26q-77 0 -120.5 -28.5t-48.5 -63.5q-7 -39 33.5 -64.5t109.5 -25.5h174
l-22 -130l-14 -84h-174q-180 0 -197 -108q-7 -45 27 -72.5t130 -27.5q92 0 139.5 29.5t68.5 96.5l331 -52q-65 -176 -202.5 -262t-377.5 -86z" />
    <glyph glyph-name="epsilon1rev" unicode="&#x25c;" horiz-adv-x="1178" 
d="M480 -20q-240 0 -349.5 86t-116.5 262l349 52q-1 -67 36.5 -96.5t129.5 -29.5q96 0 140 27.5t51 72.5q17 108 -163 108h-174l21 126v0l15 88h174q69 0 117.5 25.5t55.5 64.5q5 35 -28.5 63.5t-110.5 28.5q-69 0 -115 -26t-63 -70l-340 52q57 162 202 240t359 78
q150 0 265 -36.5t174.5 -107t42.5 -174.5q-17 -98 -92 -159t-187 -87q116 -29 172 -95t39 -167q-18 -107 -102 -179.5t-214 -109.5t-288 -37z" />
    <glyph glyph-name="epsilon1revhook" unicode="&#x25d;" horiz-adv-x="1697" 
d="M1453 340q-128 0 -194.5 86t-68.5 273l-163 -68q-63 -42 -154 -63q116 -29 172 -95t39 -167q-18 -107 -102 -179.5t-214 -109.5t-288 -37q-240 0 -349.5 86t-116.5 262l349 52q-1 -67 36.5 -96.5t129.5 -29.5q96 0 140 27.5t51 72.5q17 108 -163 108h-174l21 126v0l15 88
h174q69 0 117.5 25.5t55.5 64.5q5 35 -28.5 63.5t-110.5 28.5q-69 0 -115 -26t-63 -70l-340 52q57 162 202 240t359 78q132 0 237.5 -28.5t170.5 -83.5t76 -136l295 108q-1 -147 8.5 -231t31 -118.5t56.5 -34.5q14 0 31.5 4t39.5 10l35 -222q-39 -25 -87.5 -42.5
t-110.5 -17.5z" />
    <glyph glyph-name="epsilon1revclosed" unicode="&#x25e;" horiz-adv-x="1226" 
d="M544 -20q-579 0 -483 579q47 281 218.5 427t454.5 146q142 0 253.5 -36.5t170.5 -107t42 -174.5q-17 -98 -92 -159t-187 -87q116 -29 172 -95t39 -167q-18 -107 -101 -179.5t-210 -109.5t-277 -37zM559 546l7 42v0l15 88h60q69 0 117.5 25.5t55.5 64.5q5 35 -28.5 63.5
t-110.5 28.5q-201 0 -250 -299q-28 -170 5.5 -237.5t146.5 -67.5q96 0 140 27.5t51 72.5q17 108 -163 108h-60z" />
    <glyph glyph-name="jdotlessbar" unicode="&#x25f;" horiz-adv-x="606" 
d="M194 1118h402l-191 -1156q-24 -147 -99.5 -229.5t-192 -116.5t-263.5 -34h-82l49 296h46q73 0 103 22t38 70zM-87 578l36 216h782l-36 -216h-782z" />
    <glyph glyph-name="uni0260" unicode="&#x260;" horiz-adv-x="1327" 
d="M492 -442q-237 0 -370 91.5t-133 235.5l354 26q2 -45 41.5 -64t108.5 -19q106 0 168 49.5t78 137.5l33 177h-38q-46 -85 -120.5 -131.5t-180.5 -46.5t-192.5 44t-137 136t-50.5 236q0 127 34 251.5t100.5 226.5t164 163t223.5 61q132 0 207 -68t94 -154h5l35 208l3 18
q62 368 487 368q110 0 194 -24l-45 -273q-29 4 -57 6.5t-57 2.5q-58 0 -85 -17.5t-35 -62.5l-3 -18l-181 -1089q-39 -236 -213.5 -353.5t-431.5 -117.5zM588 300q85 0 140.5 58t83.5 142.5t28 162.5q0 161 -125 161q-62 0 -109 -35.5t-78.5 -91.5t-47 -120.5t-15.5 -123.5
q0 -153 123 -153z" />
    <glyph glyph-name="gcursive" unicode="&#x261;" horiz-adv-x="1327" 
d="M492 -442q-237 0 -370 91.5t-133 235.5l354 26q2 -45 41.5 -64t108.5 -19q106 0 168 49.5t78 137.5l33 177h-38q-46 -85 -120.5 -131.5t-180.5 -46.5t-192.5 44t-137 136t-50.5 236q0 127 34 251.5t100.5 226.5t164 163t223.5 61q132 0 207 -68t94 -154h9l35 208h398
l-181 -1089q-39 -236 -213.5 -353.5t-431.5 -117.5zM588 300q85 0 140.5 58t83.5 142.5t28 162.5q0 161 -125 161q-62 0 -109 -35.5t-78.5 -91.5t-47 -120.5t-15.5 -123.5q0 -153 123 -153z" />
    <glyph glyph-name="g.sc" unicode="&#x262;" horiz-adv-x="1199" 
d="M563 -15q-233 0 -370.5 125.5t-137.5 346.5q0 193 85 345.5t234 241t340 88.5q127 0 238 -44t176 -131.5t53 -217.5h-404q-1 32 -20.5 40t-50.5 8q-85 0 -138 -50t-77.5 -126t-24.5 -153q0 -62 26 -94.5t93 -32.5q71 0 110.5 17t53.5 40h-138l45 277h528l-33 -200
q-26 -157 -109 -264t-207 -161.5t-272 -54.5z" />
    <glyph glyph-name="gamma1" unicode="&#x263;" horiz-adv-x="1446" 
d="M560 -442q-199 0 -303.5 73t-80.5 227q9 62 42 138.5t94 157.5l191 256l-299 708h402l148 -372l278 372h400l-538 -725l90 -225q36 -91 46.5 -170.5t1.5 -141.5q-24 -153 -150 -225.5t-322 -72.5zM642 43q-62 -104 -74 -173q-5 -34 0 -49.5t32 -14.5q19 -1 30 11.5
t18 52.5q7 38 5 82.5t-11 90.5z" />
    <glyph glyph-name="babygamma" unicode="&#x264;" horiz-adv-x="1356" 
d="M218 762l-128 216q62 61 144 107.5t194 46.5q93 0 165 -45t144 -160q110 115 198.5 160t184.5 45q112 0 177.5 -46.5t110.5 -107.5l-204 -216q-19 20 -45.5 36.5t-52.5 15.5q-42 1 -90 -44t-129 -136q2 -6 5 -12q48 -110 75 -201.5t11 -180.5q-22 -137 -133 -198.5
t-263 -61.5q-155 0 -245 63t-67 197q14 87 72.5 179t152.5 216q-62 106 -98 143t-67 36q-25 1 -57 -15.5t-55 -36.5zM644 344q-20 -29 -32.5 -49t-17.5 -33q-2 -9 2.5 -20.5t27.5 -11.5q19 0 28 11t10 21q3 26 -18 82z" />
    <glyph glyph-name="hturn" unicode="&#x265;" horiz-adv-x="1330" 
d="M815 490l104 628h402l-247 -1490h-392l100 602q-58 -106 -145 -175t-223 -69q-118 0 -201 54t-119.5 149t-16.5 217l118 712h402l-104 -628q-13 -83 21 -130.5t110 -47.5q74 0 126 47.5t65 130.5z" />
    <glyph glyph-name="uni0266" unicode="&#x266;" horiz-adv-x="1330" 
d="M158 896l40 240q62 368 487 368q110 0 194 -24l-45 -273q-29 4 -57 6.5t-57 2.5q-58 0 -85 -17.5t-35 -62.5l-3 -18l-31 -187q58 91 142.5 146t203.5 55q124 0 207 -57.5t118 -155.5t14 -220l-116 -699h-402l107 641q14 83 -23.5 124t-105.5 41q-82 0 -133 -54t-65 -137
l-102 -615h-402l149 896v0zM545 896h-2l-1 -5q2 3 3 5z" />
    <glyph glyph-name="uni0267" unicode="&#x267;" horiz-adv-x="1330" 
d="M644 -441q-114 0 -198 24l45 273q29 -4 57 -6.5t57 -2.5q59 0 84 17.5t32 62.5l12 73l107 641q14 83 -23.5 124t-105.5 41q-82 0 -133 -54t-65 -137l-102 -615h-402l149 896v0l40 240q62 368 487 368q110 0 194 -24l-45 -273q-29 4 -57 6.5t-57 2.5q-58 0 -85 -17.5
t-35 -62.5l-3 -18l-31 -187q58 91 142.5 146t203.5 55q124 0 207 -57.5t118 -155.5t14 -220l-116 -699l-12 -73q-62 -368 -479 -368zM545 896h-2l-1 -5q2 3 3 5z" />
    </font>
</defs>
</svg>
